M48
; DRILL file {KiCad (6.0.6)} date Fri Aug  5 13:26:05 2022
; FORMAT={-:-/ absolute / inch / decimal}
; #@! TF.CreationDate,2022-08-05T13:26:05+02:00
; #@! TF.GenerationSoftware,Kicad,Pcbnew,(6.0.6)
; #@! TF.FileFunction,Plated,1,4,PTH
FMAT,2
INCH
; #@! TA.AperFunction,Plated,PTH,ViaDrill
T1C0.0157
; #@! TA.AperFunction,Plated,PTH,ComponentDrill
T2C0.0354
; #@! TA.AperFunction,Plated,PTH,ComponentDrill
T3C0.0394
%
G90
G05
T1
X5.3543Y-3.6732
X5.3543Y-3.8799
X5.3642Y-4.4016
X5.4134Y-3.8602
X5.4331Y-4.4016
X5.5217Y-3.7815
X5.5217Y-3.8209
X5.5217Y-4.3622
X5.5315Y-3.9094
X5.5512Y-3.6339
X5.5512Y-3.9793
X5.561Y-4.4213
X5.5709Y-3.7815
X5.5709Y-3.8209
X5.6201Y-3.7913
X5.6201Y-4.4311
X5.6594Y-3.8701
X5.6693Y-3.7028
X5.6988Y-4.2146
X5.7087Y-3.752
X5.7283Y-4.0276
X5.7283Y-4.3327
X5.7776Y-3.8504
X5.8071Y-4.2933
X5.8169Y-4.3327
X5.8268Y-4.0374
X5.8268Y-4.4902
X5.8563Y-4.3524
X5.876Y-4.185
X5.8957Y-4.1358
X5.9547Y-4.1161
X6.0138Y-3.6732
X6.0236Y-3.8602
X6.122Y-4.4902
X6.1417Y-4.1654
X6.2598Y-4.126
X6.378Y-4.2146
X6.4173Y-4.2146
X6.4665Y-3.6634
X6.4665Y-4.4803
X6.4722Y-4.063
X6.5453Y-4.5689
X6.5551Y-3.8504
X6.5945Y-3.8209
X6.6043Y-4.5197
X6.6535Y-3.9291
X6.6718Y-4.063
X6.6929Y-3.9291
X6.7323Y-4.3701
X6.7441Y-4.3346
X6.8012Y-4.4803
T3
X5.187Y-3.7094
X5.187Y-3.8094
X5.187Y-3.9094
X5.187Y-4.0094
X5.223Y-4.5984
X5.323Y-4.5984
X5.423Y-4.5984
X5.523Y-4.5984
X5.623Y-4.5984
X5.7453Y-3.5256
X5.7648Y-4.5984
X5.8453Y-3.5256
X5.8648Y-4.5984
X5.9453Y-3.5256
X5.9648Y-4.5984
X6.0453Y-3.5256
X6.0648Y-4.5984
X6.1648Y-4.5984
T2
G00X6.872Y-3.8386
M15
G01X6.935Y-3.8386
M16
G05
G00X6.872Y-4.2874
M15
G01X6.935Y-4.2874
M16
G05
T0
M30
