%TF.GenerationSoftware,KiCad,Pcbnew,(6.0.6)*%
%TF.CreationDate,2022-08-05T13:26:10+02:00*%
%TF.ProjectId,stm32_basic,73746d33-325f-4626-9173-69632e6b6963,rev?*%
%TF.SameCoordinates,Original*%
%TF.FileFunction,Copper,L4,Bot*%
%TF.FilePolarity,Positive*%
%FSLAX46Y46*%
G04 Gerber Fmt 4.6, Leading zero omitted, Abs format (unit mm)*
G04 Created by KiCad (PCBNEW (6.0.6)) date 2022-08-05 13:26:10*
%MOMM*%
%LPD*%
G01*
G04 APERTURE LIST*
%TA.AperFunction,ComponentPad*%
%ADD10R,1.700000X1.700000*%
%TD*%
%TA.AperFunction,ComponentPad*%
%ADD11O,1.700000X1.700000*%
%TD*%
%TA.AperFunction,ComponentPad*%
%ADD12O,3.500000X1.900000*%
%TD*%
%TA.AperFunction,ViaPad*%
%ADD13C,0.800000*%
%TD*%
%TA.AperFunction,Conductor*%
%ADD14C,1.000000*%
%TD*%
%TA.AperFunction,Conductor*%
%ADD15C,0.300000*%
%TD*%
%TA.AperFunction,Conductor*%
%ADD16C,0.500000*%
%TD*%
G04 APERTURE END LIST*
D10*
%TO.P,J3,1,Pin_1*%
%TO.N,I2C1_SCL*%
X131750000Y-94220000D03*
D11*
%TO.P,J3,2,Pin_2*%
%TO.N,I2C1_SDA*%
X131750000Y-96760000D03*
%TO.P,J3,3,Pin_3*%
%TO.N,+3.3V*%
X131750000Y-99300000D03*
%TO.P,J3,4,Pin_4*%
%TO.N,GND*%
X131750000Y-101840000D03*
%TD*%
D12*
%TO.P,J1,5,Shield*%
%TO.N,Net-(J1-Pad5)*%
X175350000Y-108900000D03*
X175350000Y-97500000D03*
%TD*%
D10*
%TO.P,J6,1,Pin_1*%
%TO.N,+3.3V*%
X142825000Y-116800000D03*
D11*
%TO.P,J6,2,Pin_2*%
%TO.N,USART2_CK*%
X140285000Y-116800000D03*
%TO.P,J6,3,Pin_3*%
%TO.N,USART2_RX*%
X137745000Y-116800000D03*
%TO.P,J6,4,Pin_4*%
%TO.N,USART2_TX*%
X135205000Y-116800000D03*
%TO.P,J6,5,Pin_5*%
%TO.N,GND*%
X132665000Y-116800000D03*
%TD*%
D10*
%TO.P,J5,1,Pin_1*%
%TO.N,+3.3V*%
X146425000Y-116800000D03*
D11*
%TO.P,J5,2,Pin_2*%
%TO.N,SPI1_SCK*%
X148965000Y-116800000D03*
%TO.P,J5,3,Pin_3*%
%TO.N,SPI1_MISO*%
X151505000Y-116800000D03*
%TO.P,J5,4,Pin_4*%
%TO.N,SPI1_MOSI*%
X154045000Y-116800000D03*
%TO.P,J5,5,Pin_5*%
%TO.N,GND*%
X156585000Y-116800000D03*
%TD*%
D10*
%TO.P,J4,1,Pin_1*%
%TO.N,+3.3V*%
X153550000Y-89550000D03*
D11*
%TO.P,J4,2,Pin_2*%
%TO.N,UART1_RX*%
X151010000Y-89550000D03*
%TO.P,J4,3,Pin_3*%
%TO.N,UART1_TX*%
X148470000Y-89550000D03*
%TO.P,J4,4,Pin_4*%
%TO.N,GND*%
X145930000Y-89550000D03*
%TD*%
D13*
%TO.N,GND*%
X140250000Y-97050000D03*
X141500000Y-97050000D03*
X141500000Y-96050000D03*
X169462500Y-103200000D03*
X146750500Y-97800000D03*
X140250000Y-96050000D03*
%TO.N,BUCK_IN*%
X166500000Y-97800000D03*
X162000000Y-107050000D03*
X171000000Y-111000000D03*
X171300000Y-110100000D03*
X167500000Y-97050000D03*
X163000000Y-107050000D03*
%TO.N,+3.3V*%
X136000000Y-98550000D03*
X148000000Y-114050000D03*
X142750000Y-96300000D03*
X136250000Y-111800000D03*
X164250000Y-113800000D03*
X166250000Y-116050000D03*
X167750000Y-114800000D03*
X155500000Y-114050000D03*
X141000000Y-92300000D03*
X159000000Y-104800000D03*
X138000000Y-111800000D03*
X145000000Y-95300000D03*
X141000000Y-101075000D03*
X136000000Y-93300000D03*
X144000000Y-94050000D03*
X164250000Y-93050000D03*
X172750000Y-113800000D03*
%TO.N,NRST*%
X149250000Y-106300000D03*
X153000000Y-98050000D03*
%TO.N,+3.3VA*%
X142750000Y-112550000D03*
X143750000Y-98300500D03*
%TO.N,+5V*%
X169000000Y-99800000D03*
X170000000Y-99800000D03*
X164392866Y-103200000D03*
%TO.N,I2C1_SCL*%
X148000000Y-102550000D03*
X140500000Y-99300000D03*
%TO.N,I2C1_SDA*%
X145500000Y-102300000D03*
X137500000Y-98050000D03*
%TO.N,SPI1_SCK*%
X147500000Y-109050000D03*
%TO.N,SPI1_MISO*%
X147750000Y-110050000D03*
%TO.N,SPI1_MOSI*%
X148750000Y-110550000D03*
%TO.N,USART2_CK*%
X145500000Y-110050000D03*
%TO.N,USART2_TX*%
X140250000Y-110800000D03*
%TO.N,SWDIO*%
X152750000Y-93300000D03*
X156000000Y-105800000D03*
%TO.N,Temperature_ADC*%
X141250000Y-112300000D03*
X144750000Y-107050000D03*
%TO.N,UART1_TX*%
X149750000Y-105050000D03*
%TO.N,UART1_RX*%
X151250000Y-104550000D03*
%TD*%
D14*
%TO.N,BUCK_IN*%
X171300000Y-107500000D02*
X171550000Y-107250000D01*
X174316547Y-99599999D02*
X176500000Y-99599999D01*
X163200000Y-107250000D02*
X163000000Y-107050000D01*
X177500000Y-100550000D02*
X177500000Y-105550000D01*
X177500000Y-105550000D02*
X175800000Y-107250000D01*
X176700000Y-99750000D02*
X177500000Y-100550000D01*
X171000000Y-111000000D02*
X171000000Y-110400000D01*
X176650001Y-99750000D02*
X176700000Y-99750000D01*
X171550000Y-107250000D02*
X163200000Y-107250000D01*
X175800000Y-107250000D02*
X171550000Y-107250000D01*
X171766548Y-97050000D02*
X174316547Y-99599999D01*
X171300000Y-110100000D02*
X171300000Y-107500000D01*
X171000000Y-110400000D02*
X171300000Y-110100000D01*
X167500000Y-97050000D02*
X171766548Y-97050000D01*
X176500000Y-99599999D02*
X176650001Y-99750000D01*
D15*
%TO.N,NRST*%
X153000000Y-104300000D02*
X152250000Y-105050000D01*
X150000000Y-106300000D02*
X149250000Y-106300000D01*
X152250000Y-105050000D02*
X151000000Y-106300000D01*
X153000000Y-98050000D02*
X153000000Y-104300000D01*
X151000000Y-106300000D02*
X150000000Y-106300000D01*
%TO.N,+3.3VA*%
X148820000Y-101800000D02*
X147320000Y-100300000D01*
X144750000Y-100300000D02*
X143750000Y-99300000D01*
X142750000Y-112550000D02*
X143250000Y-112050000D01*
X143750000Y-99300000D02*
X143750000Y-98300500D01*
X143250000Y-112050000D02*
X143250000Y-110300000D01*
X148820000Y-104730000D02*
X148820000Y-101800000D01*
X143250000Y-110300000D02*
X148820000Y-104730000D01*
X147320000Y-100300000D02*
X144750000Y-100300000D01*
D14*
%TO.N,+5V*%
X164392866Y-102407134D02*
X167000000Y-99800000D01*
X167000000Y-99800000D02*
X169000000Y-99800000D01*
X169000000Y-99800000D02*
X170000000Y-99800000D01*
X164392866Y-103200000D02*
X164392866Y-102407134D01*
D16*
%TO.N,I2C1_SCL*%
X144750000Y-103550000D02*
X147250000Y-103550000D01*
X147250000Y-103550000D02*
X148000000Y-102800000D01*
X140500000Y-99300000D02*
X144750000Y-103550000D01*
%TO.N,I2C1_SDA*%
X142000000Y-98800000D02*
X142000000Y-99800000D01*
X141250000Y-98050000D02*
X142000000Y-98800000D01*
X145250000Y-102550000D02*
X144750000Y-102550000D01*
X137500000Y-98050000D02*
X141250000Y-98050000D01*
X145500000Y-102300000D02*
X145250000Y-102550000D01*
X142000000Y-99800000D02*
X144750000Y-102550000D01*
D15*
%TO.N,SPI1_SCK*%
X147000000Y-109550000D02*
X147000000Y-114835000D01*
X147500000Y-109050000D02*
X147000000Y-109550000D01*
X147000000Y-114835000D02*
X148965000Y-116800000D01*
%TO.N,SPI1_MISO*%
X147750000Y-110050000D02*
X147750000Y-112739339D01*
X151505000Y-116494339D02*
X151505000Y-116800000D01*
X147750000Y-112739339D02*
X151505000Y-116494339D01*
%TO.N,SPI1_MOSI*%
X148750000Y-111505000D02*
X154045000Y-116800000D01*
X148750000Y-110550000D02*
X148750000Y-111505000D01*
%TO.N,USART2_CK*%
X145500000Y-110050000D02*
X145500000Y-112550000D01*
X142450000Y-115600000D02*
X141485000Y-115600000D01*
X145500000Y-112550000D02*
X142450000Y-115600000D01*
X141485000Y-115600000D02*
X140285000Y-116800000D01*
%TO.N,USART2_TX*%
X140250000Y-111755000D02*
X135205000Y-116800000D01*
X140250000Y-110800000D02*
X140250000Y-111755000D01*
%TO.N,SWDIO*%
X154000000Y-94050000D02*
X153000000Y-94050000D01*
X153000000Y-94050000D02*
X152750000Y-93800000D01*
X154250000Y-94300000D02*
X154000000Y-94050000D01*
X152750000Y-93800000D02*
X152750000Y-93300000D01*
X156000000Y-96050000D02*
X154250000Y-94300000D01*
X156000000Y-105800000D02*
X156000000Y-96050000D01*
%TO.N,Temperature_ADC*%
X141500000Y-112050000D02*
X141250000Y-112300000D01*
X142000000Y-111550000D02*
X141500000Y-112050000D01*
X142000000Y-109800000D02*
X142000000Y-111550000D01*
X144750000Y-107050000D02*
X142000000Y-109800000D01*
%TO.N,UART1_TX*%
X148470000Y-89550000D02*
X149320000Y-90400000D01*
X149320000Y-90400000D02*
X149320000Y-104620000D01*
X149320000Y-104620000D02*
X149750000Y-105050000D01*
%TO.N,UART1_RX*%
X151010000Y-104310000D02*
X151250000Y-104550000D01*
X151010000Y-89550000D02*
X151010000Y-104310000D01*
%TD*%
%TA.AperFunction,Conductor*%
%TO.N,GND*%
G36*
X177270572Y-87508223D02*
G01*
X177293819Y-87511852D01*
X177307786Y-87510032D01*
X177334079Y-87509374D01*
X177382570Y-87513241D01*
X177475853Y-87520680D01*
X177495527Y-87523829D01*
X177607774Y-87551044D01*
X177657168Y-87563021D01*
X177676094Y-87569230D01*
X177829532Y-87633413D01*
X177847248Y-87642531D01*
X177988656Y-87730104D01*
X178004713Y-87741902D01*
X178130537Y-87850663D01*
X178144534Y-87864844D01*
X178251644Y-87992085D01*
X178263230Y-88008295D01*
X178348943Y-88150831D01*
X178357827Y-88168663D01*
X178416006Y-88313022D01*
X178419996Y-88322923D01*
X178425959Y-88341932D01*
X178431695Y-88367015D01*
X178463035Y-88504075D01*
X178465927Y-88523789D01*
X178474684Y-88655283D01*
X178474910Y-88658683D01*
X178474060Y-88675542D01*
X178474245Y-88675547D01*
X178474022Y-88684520D01*
X178472528Y-88693373D01*
X178476751Y-88729186D01*
X178477617Y-88743862D01*
X178482989Y-99794647D01*
X178482994Y-99804947D01*
X178463025Y-99873077D01*
X178409392Y-99919596D01*
X178339123Y-99929734D01*
X178274528Y-99900273D01*
X178258523Y-99883617D01*
X178255467Y-99879789D01*
X178255466Y-99879788D01*
X178253262Y-99877027D01*
X178250758Y-99874523D01*
X178250116Y-99873805D01*
X178246415Y-99869472D01*
X178219065Y-99835938D01*
X178183733Y-99806709D01*
X178174963Y-99798728D01*
X177456851Y-99080617D01*
X177447749Y-99070473D01*
X177427897Y-99045782D01*
X177424032Y-99040975D01*
X177385578Y-99008708D01*
X177381931Y-99005527D01*
X177380108Y-99003874D01*
X177377925Y-99001691D01*
X177344688Y-98974390D01*
X177343810Y-98973661D01*
X177272526Y-98913846D01*
X177267856Y-98911278D01*
X177263739Y-98907897D01*
X177221090Y-98885029D01*
X177199638Y-98870505D01*
X177185565Y-98858696D01*
X177181920Y-98855516D01*
X177180109Y-98853874D01*
X177177925Y-98851690D01*
X177144654Y-98824360D01*
X177143799Y-98823650D01*
X177107937Y-98793558D01*
X177068611Y-98734449D01*
X177067485Y-98663461D01*
X177104129Y-98603844D01*
X177216513Y-98501582D01*
X177216514Y-98501580D01*
X177220335Y-98498104D01*
X177223534Y-98494053D01*
X177223538Y-98494049D01*
X177365774Y-98313946D01*
X177368979Y-98309888D01*
X177484887Y-98099922D01*
X177544742Y-97930896D01*
X177563219Y-97878720D01*
X177563220Y-97878716D01*
X177564945Y-97873845D01*
X177566144Y-97867113D01*
X177606098Y-97642816D01*
X177606099Y-97642810D01*
X177607004Y-97637727D01*
X177608871Y-97484936D01*
X177609871Y-97403081D01*
X177609871Y-97403079D01*
X177609934Y-97397911D01*
X177573657Y-97160837D01*
X177499146Y-96932871D01*
X177407409Y-96756646D01*
X177390792Y-96724725D01*
X177390791Y-96724724D01*
X177388403Y-96720136D01*
X177365861Y-96690112D01*
X177247507Y-96532480D01*
X177247505Y-96532477D01*
X177244402Y-96528345D01*
X177071010Y-96362648D01*
X177046286Y-96345782D01*
X176877162Y-96230414D01*
X176877163Y-96230414D01*
X176872883Y-96227495D01*
X176734790Y-96163394D01*
X176660030Y-96128691D01*
X176660028Y-96128690D01*
X176655344Y-96126516D01*
X176424232Y-96062424D01*
X176320521Y-96051340D01*
X176231778Y-96041856D01*
X176231770Y-96041856D01*
X176228443Y-96041500D01*
X174489197Y-96041500D01*
X174486624Y-96041712D01*
X174486613Y-96041712D01*
X174316124Y-96055729D01*
X174316118Y-96055730D01*
X174310973Y-96056153D01*
X174206475Y-96082401D01*
X174083375Y-96113321D01*
X174083371Y-96113322D01*
X174078364Y-96114580D01*
X174073634Y-96116636D01*
X174073627Y-96116639D01*
X173863159Y-96208153D01*
X173863156Y-96208155D01*
X173858422Y-96210213D01*
X173854088Y-96213017D01*
X173854084Y-96213019D01*
X173661396Y-96337675D01*
X173661393Y-96337677D01*
X173657053Y-96340485D01*
X173653230Y-96343964D01*
X173653227Y-96343966D01*
X173485918Y-96496206D01*
X173479665Y-96501896D01*
X173476466Y-96505947D01*
X173476462Y-96505951D01*
X173369876Y-96640913D01*
X173331021Y-96690112D01*
X173328521Y-96694641D01*
X173234800Y-96864414D01*
X173184367Y-96914385D01*
X173114924Y-96929156D01*
X173048519Y-96904039D01*
X173035397Y-96892615D01*
X172523403Y-96380621D01*
X172514301Y-96370478D01*
X172494445Y-96345782D01*
X172490580Y-96340975D01*
X172452126Y-96308708D01*
X172448479Y-96305528D01*
X172446667Y-96303885D01*
X172444473Y-96301691D01*
X172411199Y-96274358D01*
X172410401Y-96273696D01*
X172339074Y-96213846D01*
X172334404Y-96211278D01*
X172330287Y-96207897D01*
X172272403Y-96176860D01*
X172248462Y-96164023D01*
X172247303Y-96163394D01*
X172171167Y-96121538D01*
X172171159Y-96121535D01*
X172165761Y-96118567D01*
X172160679Y-96116955D01*
X172155985Y-96114438D01*
X172067014Y-96087237D01*
X172065989Y-96086918D01*
X171977242Y-96058765D01*
X171971946Y-96058171D01*
X171966850Y-96056613D01*
X171874291Y-96047210D01*
X171873155Y-96047089D01*
X171839540Y-96043319D01*
X171826818Y-96041892D01*
X171826814Y-96041892D01*
X171823321Y-96041500D01*
X171819794Y-96041500D01*
X171818809Y-96041445D01*
X171813129Y-96040998D01*
X171783723Y-96038011D01*
X171776211Y-96037248D01*
X171776209Y-96037248D01*
X171770086Y-96036626D01*
X171727807Y-96040623D01*
X171724439Y-96040941D01*
X171712581Y-96041500D01*
X167450231Y-96041500D01*
X167447175Y-96041800D01*
X167447168Y-96041800D01*
X167391915Y-96047218D01*
X167303167Y-96055920D01*
X167297266Y-96057702D01*
X167297264Y-96057702D01*
X167277057Y-96063803D01*
X167113831Y-96113084D01*
X166939204Y-96205934D01*
X166915441Y-96225315D01*
X166790713Y-96327040D01*
X166790710Y-96327043D01*
X166785938Y-96330935D01*
X166782011Y-96335682D01*
X166782009Y-96335684D01*
X166663799Y-96478575D01*
X166663797Y-96478579D01*
X166659870Y-96483325D01*
X166565802Y-96657299D01*
X166520637Y-96803205D01*
X166481386Y-96862364D01*
X166413439Y-96891256D01*
X166411116Y-96891500D01*
X166404513Y-96891500D01*
X166398060Y-96892872D01*
X166398057Y-96892872D01*
X166345522Y-96904039D01*
X166217712Y-96931206D01*
X166211682Y-96933891D01*
X166211681Y-96933891D01*
X166049278Y-97006197D01*
X166049276Y-97006198D01*
X166043248Y-97008882D01*
X166037907Y-97012762D01*
X166037906Y-97012763D01*
X165996373Y-97042939D01*
X165888747Y-97121134D01*
X165884326Y-97126044D01*
X165884325Y-97126045D01*
X165766542Y-97256857D01*
X165760960Y-97263056D01*
X165743368Y-97293527D01*
X165677293Y-97407972D01*
X165665473Y-97428444D01*
X165606458Y-97610072D01*
X165605768Y-97616633D01*
X165605768Y-97616635D01*
X165598699Y-97683891D01*
X165586496Y-97800000D01*
X165587186Y-97806565D01*
X165604481Y-97971114D01*
X165606458Y-97989928D01*
X165665473Y-98171556D01*
X165760960Y-98336944D01*
X165765378Y-98341851D01*
X165765379Y-98341852D01*
X165810651Y-98392132D01*
X165888747Y-98478866D01*
X166043248Y-98591118D01*
X166049276Y-98593802D01*
X166049278Y-98593803D01*
X166210922Y-98665771D01*
X166217712Y-98668794D01*
X166404513Y-98708500D01*
X166411115Y-98708500D01*
X166411695Y-98708561D01*
X166477352Y-98735574D01*
X166517981Y-98793796D01*
X166520684Y-98864741D01*
X166484602Y-98925885D01*
X166456506Y-98945737D01*
X166453544Y-98947272D01*
X166453539Y-98947275D01*
X166448074Y-98950108D01*
X166443911Y-98953431D01*
X166439204Y-98955934D01*
X166367082Y-99014755D01*
X166366226Y-99015446D01*
X166327027Y-99046738D01*
X166324523Y-99049242D01*
X166323805Y-99049884D01*
X166319472Y-99053585D01*
X166285938Y-99080935D01*
X166282011Y-99085682D01*
X166282009Y-99085684D01*
X166256713Y-99116262D01*
X166248723Y-99125042D01*
X163723487Y-101650279D01*
X163713344Y-101659381D01*
X163683841Y-101683102D01*
X163679874Y-101687830D01*
X163651575Y-101721555D01*
X163648394Y-101725203D01*
X163646751Y-101727015D01*
X163644557Y-101729209D01*
X163617224Y-101762483D01*
X163616562Y-101763281D01*
X163556712Y-101834608D01*
X163554144Y-101839278D01*
X163550763Y-101843395D01*
X163532416Y-101877613D01*
X163506889Y-101925220D01*
X163506260Y-101926379D01*
X163464404Y-102002515D01*
X163464401Y-102002523D01*
X163461433Y-102007921D01*
X163459821Y-102013003D01*
X163457304Y-102017697D01*
X163430104Y-102106665D01*
X163429784Y-102107693D01*
X163401631Y-102196440D01*
X163401037Y-102201736D01*
X163399479Y-102206832D01*
X163395862Y-102242446D01*
X163390084Y-102299321D01*
X163389955Y-102300527D01*
X163384366Y-102350361D01*
X163384366Y-102353888D01*
X163384311Y-102354873D01*
X163383864Y-102360553D01*
X163379492Y-102403596D01*
X163380072Y-102409727D01*
X163383807Y-102449243D01*
X163384366Y-102461101D01*
X163384366Y-103249769D01*
X163384666Y-103252825D01*
X163384666Y-103252832D01*
X163385396Y-103260273D01*
X163398786Y-103396833D01*
X163455950Y-103586169D01*
X163548800Y-103760796D01*
X163619157Y-103847062D01*
X163669906Y-103909287D01*
X163669909Y-103909290D01*
X163673801Y-103914062D01*
X163678548Y-103917989D01*
X163678550Y-103917991D01*
X163821441Y-104036201D01*
X163821445Y-104036203D01*
X163826191Y-104040130D01*
X164000165Y-104134198D01*
X164189098Y-104192682D01*
X164195223Y-104193326D01*
X164195224Y-104193326D01*
X164379662Y-104212711D01*
X164379664Y-104212711D01*
X164385791Y-104213355D01*
X164468290Y-104205847D01*
X164576615Y-104195989D01*
X164576618Y-104195988D01*
X164582754Y-104195430D01*
X164588660Y-104193692D01*
X164588664Y-104193691D01*
X164708746Y-104158349D01*
X164772485Y-104139590D01*
X164777943Y-104136737D01*
X164777947Y-104136735D01*
X164904033Y-104070818D01*
X164947756Y-104047960D01*
X165101891Y-103924032D01*
X165229020Y-103772526D01*
X165231987Y-103767128D01*
X165231991Y-103767123D01*
X165321333Y-103604608D01*
X165324299Y-103599213D01*
X165326712Y-103591608D01*
X165382239Y-103416564D01*
X165382239Y-103416563D01*
X165384101Y-103410694D01*
X165401366Y-103256773D01*
X165401366Y-102877059D01*
X165421368Y-102808938D01*
X165438271Y-102787964D01*
X167380829Y-100845405D01*
X167443141Y-100811380D01*
X167469924Y-100808500D01*
X170049769Y-100808500D01*
X170052825Y-100808200D01*
X170052832Y-100808200D01*
X170111340Y-100802463D01*
X170196833Y-100794080D01*
X170202734Y-100792298D01*
X170202736Y-100792298D01*
X170276053Y-100770162D01*
X170386169Y-100736916D01*
X170560796Y-100644066D01*
X170647062Y-100573709D01*
X170709287Y-100522960D01*
X170709290Y-100522957D01*
X170714062Y-100519065D01*
X170728779Y-100501275D01*
X170836201Y-100371425D01*
X170836203Y-100371421D01*
X170840130Y-100366675D01*
X170934198Y-100192701D01*
X170992682Y-100003768D01*
X170995299Y-99978866D01*
X171012711Y-99813204D01*
X171012711Y-99813202D01*
X171013355Y-99807075D01*
X170999551Y-99655394D01*
X170995989Y-99616251D01*
X170995988Y-99616248D01*
X170995430Y-99610112D01*
X170989686Y-99590593D01*
X170952741Y-99465064D01*
X170939590Y-99420381D01*
X170934919Y-99411445D01*
X170876656Y-99300000D01*
X170847960Y-99245110D01*
X170724032Y-99090975D01*
X170717727Y-99085684D01*
X170674851Y-99049707D01*
X170572526Y-98963846D01*
X170567128Y-98960879D01*
X170567123Y-98960875D01*
X170404608Y-98871533D01*
X170404609Y-98871533D01*
X170399213Y-98868567D01*
X170393346Y-98866706D01*
X170393344Y-98866705D01*
X170216564Y-98810627D01*
X170216563Y-98810627D01*
X170210694Y-98808765D01*
X170056773Y-98791500D01*
X167068738Y-98791500D01*
X167000617Y-98771498D01*
X166954124Y-98717842D01*
X166944020Y-98647568D01*
X166973514Y-98582988D01*
X166994677Y-98563564D01*
X167104372Y-98483865D01*
X167111253Y-98478866D01*
X167189349Y-98392132D01*
X167234621Y-98341852D01*
X167234622Y-98341851D01*
X167239040Y-98336944D01*
X167334527Y-98171556D01*
X167342973Y-98145562D01*
X167383048Y-98086957D01*
X167448445Y-98059321D01*
X167462806Y-98058500D01*
X171296623Y-98058500D01*
X171364744Y-98078502D01*
X171385718Y-98095405D01*
X173559692Y-100269378D01*
X173568794Y-100279521D01*
X173592515Y-100309024D01*
X173597243Y-100312991D01*
X173630968Y-100341290D01*
X173634616Y-100344471D01*
X173636428Y-100346114D01*
X173638622Y-100348308D01*
X173671896Y-100375641D01*
X173672694Y-100376303D01*
X173744021Y-100436153D01*
X173748691Y-100438721D01*
X173752808Y-100442102D01*
X173803406Y-100469232D01*
X173834633Y-100485976D01*
X173835792Y-100486605D01*
X173911928Y-100528461D01*
X173911936Y-100528464D01*
X173917334Y-100531432D01*
X173922416Y-100533044D01*
X173927110Y-100535561D01*
X174016078Y-100562761D01*
X174017106Y-100563081D01*
X174105853Y-100591234D01*
X174111149Y-100591828D01*
X174116245Y-100593386D01*
X174186086Y-100600481D01*
X174189928Y-100600871D01*
X174255679Y-100627655D01*
X174296511Y-100685735D01*
X174302504Y-100739394D01*
X174286404Y-100892575D01*
X174291069Y-100943837D01*
X174303604Y-101081565D01*
X174305218Y-101099303D01*
X174306956Y-101105209D01*
X174306957Y-101105213D01*
X174326503Y-101171623D01*
X174363827Y-101298440D01*
X174459999Y-101482400D01*
X174463859Y-101487200D01*
X174463859Y-101487201D01*
X174484411Y-101512762D01*
X174590071Y-101644177D01*
X174594788Y-101648135D01*
X174594790Y-101648137D01*
X174663407Y-101705713D01*
X174749089Y-101777609D01*
X174754481Y-101780573D01*
X174754485Y-101780576D01*
X174868753Y-101843395D01*
X174930995Y-101877613D01*
X175128861Y-101940379D01*
X175134978Y-101941065D01*
X175134982Y-101941066D01*
X175211598Y-101949659D01*
X175290413Y-101958500D01*
X175402237Y-101958500D01*
X175405293Y-101958200D01*
X175405300Y-101958200D01*
X175550466Y-101943966D01*
X175550469Y-101943965D01*
X175556592Y-101943365D01*
X175688546Y-101903526D01*
X175749407Y-101885152D01*
X175749410Y-101885151D01*
X175755315Y-101883368D01*
X175762635Y-101879476D01*
X175933153Y-101788809D01*
X175933155Y-101788808D01*
X175938599Y-101785913D01*
X176058861Y-101687830D01*
X176094689Y-101658610D01*
X176094692Y-101658607D01*
X176099464Y-101654715D01*
X176129010Y-101619001D01*
X176227855Y-101499518D01*
X176231783Y-101494770D01*
X176238472Y-101482400D01*
X176254664Y-101452452D01*
X176304658Y-101402043D01*
X176373970Y-101386665D01*
X176440592Y-101411201D01*
X176483373Y-101467860D01*
X176491500Y-101512380D01*
X176491500Y-104885693D01*
X176471498Y-104953814D01*
X176417842Y-105000307D01*
X176347568Y-105010411D01*
X176282988Y-104980917D01*
X176253838Y-104944068D01*
X176242855Y-104923060D01*
X176240001Y-104917600D01*
X176109929Y-104755823D01*
X176097371Y-104745285D01*
X175955629Y-104626350D01*
X175950911Y-104622391D01*
X175945519Y-104619427D01*
X175945515Y-104619424D01*
X175774402Y-104525354D01*
X175769005Y-104522387D01*
X175571139Y-104459621D01*
X175565022Y-104458935D01*
X175565018Y-104458934D01*
X175488402Y-104450341D01*
X175409587Y-104441500D01*
X175297763Y-104441500D01*
X175294707Y-104441800D01*
X175294700Y-104441800D01*
X175149534Y-104456034D01*
X175149531Y-104456035D01*
X175143408Y-104456635D01*
X175048871Y-104485177D01*
X174950593Y-104514848D01*
X174950590Y-104514849D01*
X174944685Y-104516632D01*
X174939240Y-104519527D01*
X174939238Y-104519528D01*
X174766847Y-104611191D01*
X174766845Y-104611192D01*
X174761401Y-104614087D01*
X174709345Y-104656543D01*
X174605311Y-104741390D01*
X174605308Y-104741393D01*
X174600536Y-104745285D01*
X174596608Y-104750033D01*
X174596607Y-104750034D01*
X174535702Y-104823655D01*
X174468217Y-104905230D01*
X174465288Y-104910647D01*
X174465286Y-104910650D01*
X174372416Y-105082410D01*
X174372414Y-105082415D01*
X174369486Y-105087830D01*
X174308102Y-105286129D01*
X174307458Y-105292254D01*
X174307458Y-105292255D01*
X174302323Y-105341118D01*
X174286404Y-105492575D01*
X174286963Y-105498715D01*
X174301628Y-105659852D01*
X174305218Y-105699303D01*
X174306956Y-105705209D01*
X174306957Y-105705213D01*
X174336787Y-105806565D01*
X174363827Y-105898440D01*
X174446787Y-106057127D01*
X174460620Y-106126760D01*
X174434610Y-106192821D01*
X174377014Y-106234333D01*
X174335124Y-106241500D01*
X171611840Y-106241500D01*
X171598232Y-106240763D01*
X171566736Y-106237341D01*
X171566732Y-106237341D01*
X171560611Y-106236676D01*
X171513895Y-106240763D01*
X171510946Y-106241021D01*
X171499965Y-106241500D01*
X163649762Y-106241500D01*
X163581641Y-106221498D01*
X163569787Y-106212865D01*
X163568502Y-106211809D01*
X163568500Y-106211807D01*
X163563739Y-106207897D01*
X163412418Y-106126760D01*
X163394870Y-106117351D01*
X163394869Y-106117351D01*
X163389437Y-106114438D01*
X163280781Y-106081218D01*
X163206200Y-106058416D01*
X163206198Y-106058416D01*
X163200302Y-106056613D01*
X163142449Y-106050736D01*
X163009666Y-106037248D01*
X163009661Y-106037248D01*
X163003538Y-106036626D01*
X162879475Y-106048354D01*
X162812771Y-106054659D01*
X162812769Y-106054659D01*
X162806638Y-106055239D01*
X162715527Y-106082400D01*
X162623007Y-106109981D01*
X162623005Y-106109982D01*
X162617104Y-106111741D01*
X162611655Y-106114614D01*
X162446504Y-106201688D01*
X162376917Y-106215765D01*
X162336491Y-106205338D01*
X162288323Y-106183892D01*
X162288315Y-106183889D01*
X162282288Y-106181206D01*
X162188887Y-106161353D01*
X162101944Y-106142872D01*
X162101939Y-106142872D01*
X162095487Y-106141500D01*
X161904513Y-106141500D01*
X161898061Y-106142872D01*
X161898056Y-106142872D01*
X161811113Y-106161353D01*
X161717712Y-106181206D01*
X161711682Y-106183891D01*
X161711681Y-106183891D01*
X161549278Y-106256197D01*
X161549276Y-106256198D01*
X161543248Y-106258882D01*
X161388747Y-106371134D01*
X161384326Y-106376044D01*
X161384325Y-106376045D01*
X161281785Y-106489928D01*
X161260960Y-106513056D01*
X161215891Y-106591118D01*
X161172595Y-106666109D01*
X161165473Y-106678444D01*
X161106458Y-106860072D01*
X161105768Y-106866633D01*
X161105768Y-106866635D01*
X161094222Y-106976495D01*
X161086496Y-107050000D01*
X161087186Y-107056565D01*
X161103011Y-107207128D01*
X161106458Y-107239928D01*
X161165473Y-107421556D01*
X161260960Y-107586944D01*
X161265378Y-107591851D01*
X161265379Y-107591852D01*
X161297472Y-107627495D01*
X161388747Y-107728866D01*
X161543248Y-107841118D01*
X161549276Y-107843802D01*
X161549278Y-107843803D01*
X161687552Y-107905366D01*
X161717712Y-107918794D01*
X161811113Y-107938647D01*
X161898056Y-107957128D01*
X161898061Y-107957128D01*
X161904513Y-107958500D01*
X162095487Y-107958500D01*
X162101939Y-107957128D01*
X162101944Y-107957128D01*
X162256803Y-107924211D01*
X162282288Y-107918794D01*
X162288328Y-107916105D01*
X162312450Y-107905366D01*
X162382817Y-107895932D01*
X162447114Y-107926040D01*
X162461892Y-107941519D01*
X162472100Y-107954215D01*
X162472104Y-107954219D01*
X162475968Y-107959025D01*
X162480696Y-107962992D01*
X162514421Y-107991291D01*
X162518069Y-107994472D01*
X162519881Y-107996115D01*
X162522075Y-107998309D01*
X162555349Y-108025642D01*
X162556147Y-108026304D01*
X162627474Y-108086154D01*
X162632144Y-108088722D01*
X162636261Y-108092103D01*
X162718120Y-108135995D01*
X162719280Y-108136624D01*
X162795389Y-108178466D01*
X162795394Y-108178468D01*
X162800787Y-108181433D01*
X162805865Y-108183044D01*
X162810563Y-108185563D01*
X162899498Y-108212753D01*
X162900702Y-108213128D01*
X162989306Y-108241235D01*
X162994597Y-108241828D01*
X162999698Y-108243388D01*
X163092311Y-108252795D01*
X163093431Y-108252915D01*
X163143227Y-108258500D01*
X163146756Y-108258500D01*
X163147739Y-108258555D01*
X163153426Y-108259003D01*
X163173683Y-108261060D01*
X163190336Y-108262752D01*
X163190339Y-108262752D01*
X163196463Y-108263374D01*
X163242112Y-108259059D01*
X163253969Y-108258500D01*
X170165500Y-108258500D01*
X170233621Y-108278502D01*
X170280114Y-108332158D01*
X170291500Y-108384500D01*
X170291500Y-109629483D01*
X170271498Y-109697604D01*
X170262028Y-109710466D01*
X170258686Y-109714448D01*
X170255528Y-109718069D01*
X170253885Y-109719881D01*
X170251691Y-109722075D01*
X170224358Y-109755349D01*
X170223696Y-109756147D01*
X170163846Y-109827474D01*
X170161278Y-109832144D01*
X170157897Y-109836261D01*
X170138919Y-109871655D01*
X170114023Y-109918086D01*
X170113394Y-109919245D01*
X170071538Y-109995381D01*
X170071535Y-109995389D01*
X170068567Y-110000787D01*
X170066955Y-110005869D01*
X170064438Y-110010563D01*
X170037238Y-110099531D01*
X170036918Y-110100559D01*
X170008765Y-110189306D01*
X170008171Y-110194602D01*
X170006613Y-110199698D01*
X169997778Y-110286679D01*
X169997218Y-110292187D01*
X169997089Y-110293393D01*
X169991500Y-110343227D01*
X169991500Y-110346754D01*
X169991445Y-110347739D01*
X169990998Y-110353419D01*
X169986626Y-110396462D01*
X169987206Y-110402593D01*
X169990941Y-110442109D01*
X169991500Y-110453967D01*
X169991500Y-111049769D01*
X169991800Y-111052825D01*
X169991800Y-111052832D01*
X169992530Y-111060273D01*
X170005920Y-111196833D01*
X170063084Y-111386169D01*
X170155934Y-111560796D01*
X170226291Y-111647062D01*
X170277040Y-111709287D01*
X170277043Y-111709290D01*
X170280935Y-111714062D01*
X170285682Y-111717989D01*
X170285684Y-111717991D01*
X170428575Y-111836201D01*
X170428579Y-111836203D01*
X170433325Y-111840130D01*
X170607299Y-111934198D01*
X170796232Y-111992682D01*
X170802357Y-111993326D01*
X170802358Y-111993326D01*
X170986796Y-112012711D01*
X170986798Y-112012711D01*
X170992925Y-112013355D01*
X171075424Y-112005847D01*
X171183749Y-111995989D01*
X171183752Y-111995988D01*
X171189888Y-111995430D01*
X171195794Y-111993692D01*
X171195798Y-111993691D01*
X171341027Y-111950948D01*
X171379619Y-111939590D01*
X171385077Y-111936737D01*
X171385081Y-111936735D01*
X171511123Y-111870841D01*
X171554890Y-111847960D01*
X171709025Y-111724032D01*
X171836154Y-111572526D01*
X171839121Y-111567128D01*
X171839125Y-111567123D01*
X171928467Y-111404608D01*
X171931433Y-111399213D01*
X171933846Y-111391608D01*
X171989373Y-111216564D01*
X171989373Y-111216563D01*
X171991235Y-111210694D01*
X172008500Y-111056773D01*
X172008500Y-110870517D01*
X172028502Y-110802396D01*
X172037972Y-110789534D01*
X172041314Y-110785552D01*
X172044472Y-110781931D01*
X172046115Y-110780119D01*
X172048309Y-110777925D01*
X172075642Y-110744651D01*
X172076348Y-110743800D01*
X172092326Y-110724759D01*
X172136154Y-110672526D01*
X172138722Y-110667856D01*
X172142103Y-110663739D01*
X172185977Y-110581914D01*
X172186606Y-110580755D01*
X172228462Y-110504619D01*
X172228465Y-110504611D01*
X172231433Y-110499213D01*
X172233045Y-110494131D01*
X172235562Y-110489437D01*
X172262762Y-110400469D01*
X172263108Y-110399358D01*
X172276070Y-110358500D01*
X172291235Y-110310694D01*
X172291829Y-110305398D01*
X172293387Y-110300302D01*
X172302790Y-110207743D01*
X172302911Y-110206607D01*
X172308500Y-110156773D01*
X172308500Y-110153246D01*
X172308555Y-110152261D01*
X172309002Y-110146581D01*
X172313374Y-110103538D01*
X172309059Y-110057891D01*
X172308500Y-110046033D01*
X172308500Y-108384500D01*
X172328502Y-108316379D01*
X172382158Y-108269886D01*
X172434500Y-108258500D01*
X173051550Y-108258500D01*
X173119671Y-108278502D01*
X173166164Y-108332158D01*
X173176268Y-108402432D01*
X173170323Y-108426559D01*
X173136782Y-108521276D01*
X173136780Y-108521284D01*
X173135055Y-108526155D01*
X173134148Y-108531248D01*
X173134147Y-108531251D01*
X173106809Y-108684729D01*
X173092996Y-108762273D01*
X173090066Y-109002089D01*
X173126343Y-109239163D01*
X173200854Y-109467129D01*
X173203244Y-109471720D01*
X173300626Y-109658788D01*
X173311597Y-109679864D01*
X173314700Y-109683997D01*
X173314702Y-109684000D01*
X173429575Y-109836996D01*
X173455598Y-109871655D01*
X173476365Y-109891500D01*
X173607124Y-110016456D01*
X173628990Y-110037352D01*
X173827117Y-110172505D01*
X173885699Y-110199698D01*
X174011618Y-110258148D01*
X174044656Y-110273484D01*
X174275768Y-110337576D01*
X174370865Y-110347739D01*
X174468222Y-110358144D01*
X174468230Y-110358144D01*
X174471557Y-110358500D01*
X176210803Y-110358500D01*
X176213376Y-110358288D01*
X176213387Y-110358288D01*
X176383876Y-110344271D01*
X176383882Y-110344270D01*
X176389027Y-110343847D01*
X176517134Y-110311669D01*
X176616625Y-110286679D01*
X176616629Y-110286678D01*
X176621636Y-110285420D01*
X176626366Y-110283364D01*
X176626373Y-110283361D01*
X176836841Y-110191847D01*
X176836844Y-110191845D01*
X176841578Y-110189787D01*
X176845912Y-110186983D01*
X176845916Y-110186981D01*
X177038604Y-110062325D01*
X177038607Y-110062323D01*
X177042947Y-110059515D01*
X177057764Y-110046033D01*
X177216513Y-109901582D01*
X177216514Y-109901580D01*
X177220335Y-109898104D01*
X177223534Y-109894053D01*
X177223538Y-109894049D01*
X177365774Y-109713946D01*
X177368979Y-109709888D01*
X177484887Y-109499922D01*
X177537005Y-109352746D01*
X177563219Y-109278720D01*
X177563220Y-109278716D01*
X177564945Y-109273845D01*
X177566919Y-109262763D01*
X177606098Y-109042816D01*
X177606099Y-109042810D01*
X177607004Y-109037727D01*
X177609934Y-108797911D01*
X177573657Y-108560837D01*
X177499146Y-108332871D01*
X177421151Y-108183044D01*
X177390792Y-108124725D01*
X177390791Y-108124724D01*
X177388403Y-108120136D01*
X177367356Y-108092103D01*
X177247507Y-107932480D01*
X177247505Y-107932477D01*
X177244402Y-107928345D01*
X177071010Y-107762648D01*
X177064836Y-107758436D01*
X176984128Y-107703381D01*
X176939125Y-107648470D01*
X176930954Y-107577945D01*
X176966037Y-107510198D01*
X178169379Y-106306855D01*
X178179522Y-106297753D01*
X178204218Y-106277897D01*
X178209025Y-106274032D01*
X178241292Y-106235578D01*
X178244472Y-106231931D01*
X178246114Y-106230120D01*
X178248309Y-106227925D01*
X178262784Y-106210303D01*
X178321478Y-106170361D01*
X178392450Y-106168491D01*
X178453166Y-106205289D01*
X178484349Y-106269071D01*
X178486147Y-106290219D01*
X178491476Y-117250595D01*
X178489968Y-117270092D01*
X178486312Y-117293511D01*
X178488132Y-117307477D01*
X178488790Y-117333773D01*
X178477485Y-117475552D01*
X178474336Y-117495226D01*
X178435145Y-117656869D01*
X178428934Y-117675801D01*
X178364750Y-117829248D01*
X178355634Y-117846960D01*
X178268064Y-117988371D01*
X178256267Y-118004428D01*
X178147499Y-118130266D01*
X178133322Y-118144260D01*
X178006073Y-118251382D01*
X177989870Y-118262963D01*
X177847326Y-118348685D01*
X177829493Y-118357571D01*
X177675227Y-118419747D01*
X177656217Y-118425711D01*
X177494064Y-118462794D01*
X177474364Y-118465684D01*
X177376340Y-118472215D01*
X177339790Y-118474650D01*
X177322599Y-118473785D01*
X177322595Y-118473931D01*
X177313623Y-118473708D01*
X177304772Y-118472215D01*
X177268969Y-118476438D01*
X177254288Y-118477304D01*
X149261552Y-118490696D01*
X130935194Y-118499463D01*
X130915699Y-118497955D01*
X130901150Y-118495684D01*
X130892279Y-118494299D01*
X130878312Y-118496119D01*
X130852019Y-118496777D01*
X130805654Y-118493080D01*
X130710241Y-118485471D01*
X130690567Y-118482322D01*
X130528926Y-118443130D01*
X130509994Y-118436919D01*
X130433271Y-118404827D01*
X130356546Y-118372734D01*
X130338831Y-118363616D01*
X130323036Y-118353834D01*
X130278090Y-118326000D01*
X130197428Y-118276047D01*
X130181371Y-118264250D01*
X130055541Y-118155487D01*
X130041544Y-118141307D01*
X129934425Y-118014059D01*
X129922843Y-117997856D01*
X129837119Y-117855309D01*
X129828237Y-117837482D01*
X129825424Y-117830501D01*
X129766062Y-117683212D01*
X129760099Y-117664201D01*
X129723020Y-117502062D01*
X129720128Y-117482349D01*
X129711155Y-117347669D01*
X129712014Y-117330592D01*
X129711855Y-117330588D01*
X129712078Y-117321613D01*
X129713571Y-117312763D01*
X129712520Y-117303848D01*
X129709366Y-117277102D01*
X129708499Y-117262354D01*
X129708486Y-117067966D01*
X131333257Y-117067966D01*
X131363565Y-117202446D01*
X131366645Y-117212275D01*
X131446770Y-117409603D01*
X131451413Y-117418794D01*
X131562694Y-117600388D01*
X131568777Y-117608699D01*
X131708213Y-117769667D01*
X131715580Y-117776883D01*
X131879434Y-117912916D01*
X131887881Y-117918831D01*
X132071756Y-118026279D01*
X132081042Y-118030729D01*
X132280001Y-118106703D01*
X132289899Y-118109579D01*
X132393250Y-118130606D01*
X132407299Y-118129410D01*
X132411000Y-118119065D01*
X132411000Y-118118517D01*
X132919000Y-118118517D01*
X132923064Y-118132359D01*
X132936478Y-118134393D01*
X132943184Y-118133534D01*
X132953262Y-118131392D01*
X133157255Y-118070191D01*
X133166842Y-118066433D01*
X133358095Y-117972739D01*
X133366945Y-117967464D01*
X133540328Y-117843792D01*
X133548200Y-117837139D01*
X133699052Y-117686812D01*
X133705730Y-117678965D01*
X133833022Y-117501819D01*
X133834279Y-117502722D01*
X133881373Y-117459362D01*
X133951311Y-117447145D01*
X134016751Y-117474678D01*
X134044579Y-117506511D01*
X134104987Y-117605088D01*
X134251250Y-117773938D01*
X134423126Y-117916632D01*
X134616000Y-118029338D01*
X134824692Y-118109030D01*
X134829760Y-118110061D01*
X134829763Y-118110062D01*
X134924862Y-118129410D01*
X135043597Y-118153567D01*
X135048772Y-118153757D01*
X135048774Y-118153757D01*
X135261673Y-118161564D01*
X135261677Y-118161564D01*
X135266837Y-118161753D01*
X135271957Y-118161097D01*
X135271959Y-118161097D01*
X135483288Y-118134025D01*
X135483289Y-118134025D01*
X135488416Y-118133368D01*
X135493366Y-118131883D01*
X135697429Y-118070661D01*
X135697434Y-118070659D01*
X135702384Y-118069174D01*
X135902994Y-117970896D01*
X136084860Y-117841173D01*
X136095570Y-117830501D01*
X136185268Y-117741115D01*
X136243096Y-117683489D01*
X136248621Y-117675801D01*
X136373453Y-117502077D01*
X136374776Y-117503028D01*
X136421645Y-117459857D01*
X136491580Y-117447625D01*
X136557026Y-117475144D01*
X136584875Y-117506994D01*
X136644987Y-117605088D01*
X136791250Y-117773938D01*
X136963126Y-117916632D01*
X137156000Y-118029338D01*
X137364692Y-118109030D01*
X137369760Y-118110061D01*
X137369763Y-118110062D01*
X137464862Y-118129410D01*
X137583597Y-118153567D01*
X137588772Y-118153757D01*
X137588774Y-118153757D01*
X137801673Y-118161564D01*
X137801677Y-118161564D01*
X137806837Y-118161753D01*
X137811957Y-118161097D01*
X137811959Y-118161097D01*
X138023288Y-118134025D01*
X138023289Y-118134025D01*
X138028416Y-118133368D01*
X138033366Y-118131883D01*
X138237429Y-118070661D01*
X138237434Y-118070659D01*
X138242384Y-118069174D01*
X138442994Y-117970896D01*
X138624860Y-117841173D01*
X138635570Y-117830501D01*
X138725268Y-117741115D01*
X138783096Y-117683489D01*
X138788621Y-117675801D01*
X138913453Y-117502077D01*
X138914776Y-117503028D01*
X138961645Y-117459857D01*
X139031580Y-117447625D01*
X139097026Y-117475144D01*
X139124875Y-117506994D01*
X139184987Y-117605088D01*
X139331250Y-117773938D01*
X139503126Y-117916632D01*
X139696000Y-118029338D01*
X139904692Y-118109030D01*
X139909760Y-118110061D01*
X139909763Y-118110062D01*
X140004862Y-118129410D01*
X140123597Y-118153567D01*
X140128772Y-118153757D01*
X140128774Y-118153757D01*
X140341673Y-118161564D01*
X140341677Y-118161564D01*
X140346837Y-118161753D01*
X140351957Y-118161097D01*
X140351959Y-118161097D01*
X140563288Y-118134025D01*
X140563289Y-118134025D01*
X140568416Y-118133368D01*
X140573366Y-118131883D01*
X140777429Y-118070661D01*
X140777434Y-118070659D01*
X140782384Y-118069174D01*
X140982994Y-117970896D01*
X141164860Y-117841173D01*
X141273091Y-117733319D01*
X141335462Y-117699404D01*
X141406268Y-117704592D01*
X141463030Y-117747238D01*
X141480012Y-117778341D01*
X141503567Y-117841173D01*
X141524385Y-117896705D01*
X141611739Y-118013261D01*
X141728295Y-118100615D01*
X141864684Y-118151745D01*
X141926866Y-118158500D01*
X143723134Y-118158500D01*
X143785316Y-118151745D01*
X143921705Y-118100615D01*
X144038261Y-118013261D01*
X144125615Y-117896705D01*
X144176745Y-117760316D01*
X144183500Y-117698134D01*
X144183500Y-115901866D01*
X144176745Y-115839684D01*
X144125615Y-115703295D01*
X144038261Y-115586739D01*
X143921705Y-115499385D01*
X143785316Y-115448255D01*
X143786522Y-115445038D01*
X143738415Y-115417526D01*
X143705624Y-115354555D01*
X143712082Y-115283853D01*
X143740153Y-115241107D01*
X145907600Y-113073659D01*
X145916381Y-113065669D01*
X145916390Y-113065661D01*
X145923080Y-113061416D01*
X145971621Y-113009725D01*
X145974375Y-113006884D01*
X145994926Y-112986333D01*
X145997638Y-112982837D01*
X146005349Y-112973808D01*
X146031544Y-112945913D01*
X146036972Y-112940133D01*
X146042634Y-112929834D01*
X146047301Y-112921345D01*
X146058158Y-112904816D01*
X146066447Y-112894131D01*
X146066448Y-112894129D01*
X146071304Y-112887869D01*
X146089657Y-112845456D01*
X146094864Y-112834827D01*
X146105088Y-112816230D01*
X146155433Y-112766174D01*
X146224850Y-112751282D01*
X146291298Y-112776284D01*
X146333682Y-112833242D01*
X146341500Y-112876935D01*
X146341500Y-114752944D01*
X146340941Y-114764800D01*
X146339212Y-114772537D01*
X146339461Y-114780459D01*
X146341438Y-114843369D01*
X146341500Y-114847327D01*
X146341500Y-114876432D01*
X146342056Y-114880832D01*
X146342988Y-114892664D01*
X146344438Y-114938831D01*
X146350153Y-114958500D01*
X146350419Y-114959416D01*
X146354430Y-114978782D01*
X146357118Y-115000064D01*
X146360034Y-115007429D01*
X146360035Y-115007433D01*
X146374126Y-115043021D01*
X146377965Y-115054231D01*
X146390855Y-115098600D01*
X146401775Y-115117065D01*
X146410466Y-115134805D01*
X146418365Y-115154756D01*
X146426005Y-115165271D01*
X146445516Y-115192126D01*
X146452033Y-115202048D01*
X146469925Y-115232300D01*
X146475262Y-115241324D01*
X146475263Y-115241328D01*
X146475547Y-115241808D01*
X146475470Y-115241854D01*
X146500011Y-115304360D01*
X146486110Y-115373982D01*
X146436775Y-115425037D01*
X146374504Y-115441500D01*
X145526866Y-115441500D01*
X145464684Y-115448255D01*
X145328295Y-115499385D01*
X145211739Y-115586739D01*
X145124385Y-115703295D01*
X145073255Y-115839684D01*
X145066500Y-115901866D01*
X145066500Y-117698134D01*
X145073255Y-117760316D01*
X145124385Y-117896705D01*
X145211739Y-118013261D01*
X145328295Y-118100615D01*
X145464684Y-118151745D01*
X145526866Y-118158500D01*
X147323134Y-118158500D01*
X147385316Y-118151745D01*
X147521705Y-118100615D01*
X147638261Y-118013261D01*
X147725615Y-117896705D01*
X147746433Y-117841173D01*
X147769598Y-117779382D01*
X147812240Y-117722618D01*
X147878802Y-117697918D01*
X147948150Y-117713126D01*
X147982817Y-117741114D01*
X148011250Y-117773938D01*
X148183126Y-117916632D01*
X148376000Y-118029338D01*
X148584692Y-118109030D01*
X148589760Y-118110061D01*
X148589763Y-118110062D01*
X148684862Y-118129410D01*
X148803597Y-118153567D01*
X148808772Y-118153757D01*
X148808774Y-118153757D01*
X149021673Y-118161564D01*
X149021677Y-118161564D01*
X149026837Y-118161753D01*
X149031957Y-118161097D01*
X149031959Y-118161097D01*
X149243288Y-118134025D01*
X149243289Y-118134025D01*
X149248416Y-118133368D01*
X149253366Y-118131883D01*
X149457429Y-118070661D01*
X149457434Y-118070659D01*
X149462384Y-118069174D01*
X149662994Y-117970896D01*
X149844860Y-117841173D01*
X149855570Y-117830501D01*
X149945268Y-117741115D01*
X150003096Y-117683489D01*
X150008621Y-117675801D01*
X150133453Y-117502077D01*
X150134776Y-117503028D01*
X150181645Y-117459857D01*
X150251580Y-117447625D01*
X150317026Y-117475144D01*
X150344875Y-117506994D01*
X150404987Y-117605088D01*
X150551250Y-117773938D01*
X150723126Y-117916632D01*
X150916000Y-118029338D01*
X151124692Y-118109030D01*
X151129760Y-118110061D01*
X151129763Y-118110062D01*
X151224862Y-118129410D01*
X151343597Y-118153567D01*
X151348772Y-118153757D01*
X151348774Y-118153757D01*
X151561673Y-118161564D01*
X151561677Y-118161564D01*
X151566837Y-118161753D01*
X151571957Y-118161097D01*
X151571959Y-118161097D01*
X151783288Y-118134025D01*
X151783289Y-118134025D01*
X151788416Y-118133368D01*
X151793366Y-118131883D01*
X151997429Y-118070661D01*
X151997434Y-118070659D01*
X152002384Y-118069174D01*
X152202994Y-117970896D01*
X152384860Y-117841173D01*
X152395570Y-117830501D01*
X152485268Y-117741115D01*
X152543096Y-117683489D01*
X152548621Y-117675801D01*
X152673453Y-117502077D01*
X152674776Y-117503028D01*
X152721645Y-117459857D01*
X152791580Y-117447625D01*
X152857026Y-117475144D01*
X152884875Y-117506994D01*
X152944987Y-117605088D01*
X153091250Y-117773938D01*
X153263126Y-117916632D01*
X153456000Y-118029338D01*
X153664692Y-118109030D01*
X153669760Y-118110061D01*
X153669763Y-118110062D01*
X153764862Y-118129410D01*
X153883597Y-118153567D01*
X153888772Y-118153757D01*
X153888774Y-118153757D01*
X154101673Y-118161564D01*
X154101677Y-118161564D01*
X154106837Y-118161753D01*
X154111957Y-118161097D01*
X154111959Y-118161097D01*
X154323288Y-118134025D01*
X154323289Y-118134025D01*
X154328416Y-118133368D01*
X154333366Y-118131883D01*
X154537429Y-118070661D01*
X154537434Y-118070659D01*
X154542384Y-118069174D01*
X154742994Y-117970896D01*
X154924860Y-117841173D01*
X154935570Y-117830501D01*
X155025268Y-117741115D01*
X155083096Y-117683489D01*
X155088621Y-117675801D01*
X155213453Y-117502077D01*
X155214640Y-117502930D01*
X155261960Y-117459362D01*
X155331897Y-117447145D01*
X155397338Y-117474678D01*
X155425166Y-117506511D01*
X155482694Y-117600388D01*
X155488777Y-117608699D01*
X155628213Y-117769667D01*
X155635580Y-117776883D01*
X155799434Y-117912916D01*
X155807881Y-117918831D01*
X155991756Y-118026279D01*
X156001042Y-118030729D01*
X156200001Y-118106703D01*
X156209899Y-118109579D01*
X156313250Y-118130606D01*
X156327299Y-118129410D01*
X156331000Y-118119065D01*
X156331000Y-118118517D01*
X156839000Y-118118517D01*
X156843064Y-118132359D01*
X156856478Y-118134393D01*
X156863184Y-118133534D01*
X156873262Y-118131392D01*
X157077255Y-118070191D01*
X157086842Y-118066433D01*
X157278095Y-117972739D01*
X157286945Y-117967464D01*
X157460328Y-117843792D01*
X157468200Y-117837139D01*
X157619052Y-117686812D01*
X157625730Y-117678965D01*
X157750003Y-117506020D01*
X157755313Y-117497183D01*
X157849670Y-117306267D01*
X157853469Y-117296672D01*
X157915377Y-117092910D01*
X157917555Y-117082837D01*
X157918986Y-117071962D01*
X157916775Y-117057778D01*
X157903617Y-117054000D01*
X156857115Y-117054000D01*
X156841876Y-117058475D01*
X156840671Y-117059865D01*
X156839000Y-117067548D01*
X156839000Y-118118517D01*
X156331000Y-118118517D01*
X156331000Y-116527885D01*
X156839000Y-116527885D01*
X156843475Y-116543124D01*
X156844865Y-116544329D01*
X156852548Y-116546000D01*
X157903344Y-116546000D01*
X157916875Y-116542027D01*
X157918180Y-116532947D01*
X157876214Y-116365875D01*
X157872894Y-116356124D01*
X157787972Y-116160814D01*
X157783105Y-116151739D01*
X157717287Y-116050000D01*
X165336496Y-116050000D01*
X165337186Y-116056565D01*
X165347348Y-116153247D01*
X165356458Y-116239928D01*
X165415473Y-116421556D01*
X165510960Y-116586944D01*
X165638747Y-116728866D01*
X165793248Y-116841118D01*
X165799276Y-116843802D01*
X165799278Y-116843803D01*
X165894385Y-116886147D01*
X165967712Y-116918794D01*
X166061112Y-116938647D01*
X166148056Y-116957128D01*
X166148061Y-116957128D01*
X166154513Y-116958500D01*
X166345487Y-116958500D01*
X166351939Y-116957128D01*
X166351944Y-116957128D01*
X166438888Y-116938647D01*
X166532288Y-116918794D01*
X166605615Y-116886147D01*
X166700722Y-116843803D01*
X166700724Y-116843802D01*
X166706752Y-116841118D01*
X166861253Y-116728866D01*
X166989040Y-116586944D01*
X167084527Y-116421556D01*
X167143542Y-116239928D01*
X167152653Y-116153247D01*
X167162814Y-116056565D01*
X167163504Y-116050000D01*
X167152649Y-115946722D01*
X167144232Y-115866635D01*
X167144232Y-115866633D01*
X167143542Y-115860072D01*
X167141754Y-115854568D01*
X174337382Y-115854568D01*
X174337963Y-115859588D01*
X174337963Y-115859592D01*
X174347514Y-115942138D01*
X174366208Y-116103699D01*
X174367587Y-116108573D01*
X174367588Y-116108577D01*
X174433116Y-116340148D01*
X174434494Y-116345017D01*
X174436628Y-116349592D01*
X174436630Y-116349599D01*
X174527547Y-116544570D01*
X174540484Y-116572313D01*
X174543326Y-116576494D01*
X174543326Y-116576495D01*
X174678605Y-116775552D01*
X174678608Y-116775556D01*
X174681451Y-116779739D01*
X174684928Y-116783416D01*
X174684929Y-116783417D01*
X174849199Y-116957128D01*
X174853767Y-116961959D01*
X174857793Y-116965037D01*
X174857794Y-116965038D01*
X175048981Y-117111212D01*
X175048985Y-117111215D01*
X175053001Y-117114285D01*
X175274026Y-117232797D01*
X175278807Y-117234443D01*
X175278811Y-117234445D01*
X175487397Y-117306267D01*
X175511156Y-117314448D01*
X175600128Y-117329816D01*
X175754380Y-117356460D01*
X175754386Y-117356461D01*
X175758290Y-117357135D01*
X175762251Y-117357315D01*
X175762252Y-117357315D01*
X175786931Y-117358436D01*
X175786950Y-117358436D01*
X175788350Y-117358500D01*
X175963015Y-117358500D01*
X175965523Y-117358298D01*
X175965528Y-117358298D01*
X176144944Y-117343863D01*
X176144949Y-117343862D01*
X176149985Y-117343457D01*
X176154893Y-117342252D01*
X176154896Y-117342251D01*
X176388625Y-117284841D01*
X176393539Y-117283634D01*
X176398191Y-117281659D01*
X176398195Y-117281658D01*
X176619741Y-117187617D01*
X176619742Y-117187617D01*
X176624396Y-117185641D01*
X176836615Y-117052000D01*
X177024738Y-116886147D01*
X177183924Y-116692351D01*
X177310078Y-116475596D01*
X177328626Y-116427279D01*
X177373105Y-116311406D01*
X177399955Y-116241461D01*
X177401647Y-116233365D01*
X177450206Y-116000921D01*
X177451241Y-115995967D01*
X177452288Y-115972926D01*
X177457697Y-115853794D01*
X177462618Y-115745432D01*
X177458716Y-115711703D01*
X177445087Y-115593919D01*
X177433792Y-115496301D01*
X177430391Y-115484280D01*
X177366884Y-115259852D01*
X177366883Y-115259850D01*
X177365506Y-115254983D01*
X177363372Y-115250408D01*
X177363370Y-115250401D01*
X177261653Y-115032269D01*
X177261651Y-115032265D01*
X177259516Y-115027687D01*
X177245751Y-115007433D01*
X177121395Y-114824448D01*
X177121392Y-114824444D01*
X177118549Y-114820261D01*
X177032122Y-114728866D01*
X176949713Y-114641721D01*
X176946233Y-114638041D01*
X176942206Y-114634962D01*
X176751019Y-114488788D01*
X176751015Y-114488785D01*
X176746999Y-114485715D01*
X176741468Y-114482749D01*
X176530435Y-114369595D01*
X176525974Y-114367203D01*
X176521193Y-114365557D01*
X176521189Y-114365555D01*
X176293633Y-114287201D01*
X176288844Y-114285552D01*
X176158605Y-114263056D01*
X176045620Y-114243540D01*
X176045614Y-114243539D01*
X176041710Y-114242865D01*
X176037749Y-114242685D01*
X176037748Y-114242685D01*
X176013069Y-114241564D01*
X176013050Y-114241564D01*
X176011650Y-114241500D01*
X175836985Y-114241500D01*
X175834477Y-114241702D01*
X175834472Y-114241702D01*
X175655056Y-114256137D01*
X175655051Y-114256138D01*
X175650015Y-114256543D01*
X175645107Y-114257748D01*
X175645104Y-114257749D01*
X175413326Y-114314680D01*
X175406461Y-114316366D01*
X175401809Y-114318341D01*
X175401805Y-114318342D01*
X175281061Y-114369595D01*
X175175604Y-114414359D01*
X174963385Y-114548000D01*
X174775262Y-114713853D01*
X174616076Y-114907649D01*
X174489922Y-115124404D01*
X174488109Y-115129127D01*
X174488108Y-115129129D01*
X174467087Y-115183891D01*
X174400045Y-115358539D01*
X174399012Y-115363485D01*
X174399010Y-115363491D01*
X174361674Y-115542212D01*
X174348759Y-115604033D01*
X174348530Y-115609082D01*
X174348529Y-115609088D01*
X174344578Y-115696109D01*
X174337382Y-115854568D01*
X167141754Y-115854568D01*
X167106293Y-115745432D01*
X167102519Y-115733817D01*
X167100491Y-115662850D01*
X167137154Y-115602052D01*
X167200866Y-115570726D01*
X167271400Y-115578819D01*
X167285355Y-115585764D01*
X167287906Y-115587237D01*
X167293248Y-115591118D01*
X167299275Y-115593801D01*
X167299276Y-115593802D01*
X167461681Y-115666109D01*
X167467712Y-115668794D01*
X167542680Y-115684729D01*
X167648056Y-115707128D01*
X167648061Y-115707128D01*
X167654513Y-115708500D01*
X167845487Y-115708500D01*
X167851939Y-115707128D01*
X167851944Y-115707128D01*
X167957320Y-115684729D01*
X168032288Y-115668794D01*
X168038319Y-115666109D01*
X168200722Y-115593803D01*
X168200724Y-115593802D01*
X168206752Y-115591118D01*
X168220186Y-115581358D01*
X168274701Y-115541750D01*
X168361253Y-115478866D01*
X168365675Y-115473955D01*
X168484621Y-115341852D01*
X168484622Y-115341851D01*
X168489040Y-115336944D01*
X168549456Y-115232300D01*
X168581223Y-115177279D01*
X168581224Y-115177278D01*
X168584527Y-115171556D01*
X168643542Y-114989928D01*
X168645748Y-114968945D01*
X168662814Y-114806565D01*
X168663504Y-114800000D01*
X168656028Y-114728866D01*
X168644232Y-114616635D01*
X168644232Y-114616633D01*
X168643542Y-114610072D01*
X168584527Y-114428444D01*
X168489040Y-114263056D01*
X168468216Y-114239928D01*
X168365675Y-114126045D01*
X168365674Y-114126044D01*
X168361253Y-114121134D01*
X168206752Y-114008882D01*
X168200724Y-114006198D01*
X168200722Y-114006197D01*
X168038319Y-113933891D01*
X168038318Y-113933891D01*
X168032288Y-113931206D01*
X167938888Y-113911353D01*
X167851944Y-113892872D01*
X167851939Y-113892872D01*
X167845487Y-113891500D01*
X167654513Y-113891500D01*
X167648061Y-113892872D01*
X167648056Y-113892872D01*
X167561112Y-113911353D01*
X167467712Y-113931206D01*
X167461682Y-113933891D01*
X167461681Y-113933891D01*
X167299278Y-114006197D01*
X167299276Y-114006198D01*
X167293248Y-114008882D01*
X167138747Y-114121134D01*
X167134326Y-114126044D01*
X167134325Y-114126045D01*
X167031785Y-114239928D01*
X167010960Y-114263056D01*
X166915473Y-114428444D01*
X166856458Y-114610072D01*
X166855768Y-114616633D01*
X166855768Y-114616635D01*
X166843972Y-114728866D01*
X166836496Y-114800000D01*
X166837186Y-114806565D01*
X166854253Y-114968945D01*
X166856458Y-114989928D01*
X166861946Y-115006818D01*
X166897481Y-115116183D01*
X166899509Y-115187150D01*
X166862846Y-115247948D01*
X166799134Y-115279274D01*
X166728600Y-115271181D01*
X166714645Y-115264236D01*
X166712093Y-115262762D01*
X166706752Y-115258882D01*
X166700722Y-115256197D01*
X166538319Y-115183891D01*
X166538318Y-115183891D01*
X166532288Y-115181206D01*
X166435049Y-115160537D01*
X166351944Y-115142872D01*
X166351939Y-115142872D01*
X166345487Y-115141500D01*
X166154513Y-115141500D01*
X166148061Y-115142872D01*
X166148056Y-115142872D01*
X166064951Y-115160537D01*
X165967712Y-115181206D01*
X165961682Y-115183891D01*
X165961681Y-115183891D01*
X165799278Y-115256197D01*
X165799276Y-115256198D01*
X165793248Y-115258882D01*
X165787907Y-115262762D01*
X165787906Y-115262763D01*
X165753358Y-115287864D01*
X165638747Y-115371134D01*
X165634326Y-115376044D01*
X165634325Y-115376045D01*
X165521515Y-115501334D01*
X165510960Y-115513056D01*
X165459578Y-115602052D01*
X165422595Y-115666109D01*
X165415473Y-115678444D01*
X165356458Y-115860072D01*
X165355768Y-115866633D01*
X165355768Y-115866635D01*
X165347351Y-115946722D01*
X165336496Y-116050000D01*
X157717287Y-116050000D01*
X157667426Y-115972926D01*
X157661136Y-115964757D01*
X157517806Y-115807240D01*
X157510273Y-115800215D01*
X157343139Y-115668222D01*
X157334552Y-115662517D01*
X157148117Y-115559599D01*
X157138705Y-115555369D01*
X156937959Y-115484280D01*
X156927988Y-115481646D01*
X156856837Y-115468972D01*
X156843540Y-115470432D01*
X156839000Y-115484989D01*
X156839000Y-116527885D01*
X156331000Y-116527885D01*
X156331000Y-115483102D01*
X156327082Y-115469758D01*
X156312806Y-115467771D01*
X156274324Y-115473660D01*
X156264288Y-115476051D01*
X156061868Y-115542212D01*
X156052359Y-115546209D01*
X155863463Y-115644542D01*
X155854738Y-115650036D01*
X155684433Y-115777905D01*
X155676726Y-115784748D01*
X155529590Y-115938717D01*
X155523109Y-115946722D01*
X155418498Y-116100074D01*
X155363587Y-116145076D01*
X155293062Y-116153247D01*
X155229315Y-116121993D01*
X155208618Y-116097509D01*
X155127822Y-115972617D01*
X155127820Y-115972614D01*
X155125014Y-115968277D01*
X154974670Y-115803051D01*
X154970619Y-115799852D01*
X154970615Y-115799848D01*
X154803414Y-115667800D01*
X154803410Y-115667798D01*
X154799359Y-115664598D01*
X154763028Y-115644542D01*
X154689645Y-115604033D01*
X154603789Y-115556638D01*
X154598920Y-115554914D01*
X154598916Y-115554912D01*
X154398087Y-115483795D01*
X154398083Y-115483794D01*
X154393212Y-115482069D01*
X154388119Y-115481162D01*
X154388116Y-115481161D01*
X154178373Y-115443800D01*
X154178367Y-115443799D01*
X154173284Y-115442894D01*
X154099452Y-115441992D01*
X153955081Y-115440228D01*
X153955079Y-115440228D01*
X153949911Y-115440165D01*
X153729091Y-115473955D01*
X153728928Y-115472891D01*
X153663329Y-115469488D01*
X153615948Y-115439688D01*
X152226260Y-114050000D01*
X154586496Y-114050000D01*
X154587186Y-114056565D01*
X154594489Y-114126045D01*
X154606458Y-114239928D01*
X154665473Y-114421556D01*
X154760960Y-114586944D01*
X154765378Y-114591851D01*
X154765379Y-114591852D01*
X154806968Y-114638041D01*
X154888747Y-114728866D01*
X154977618Y-114793435D01*
X155009479Y-114816583D01*
X155043248Y-114841118D01*
X155049276Y-114843802D01*
X155049278Y-114843803D01*
X155211681Y-114916109D01*
X155217712Y-114918794D01*
X155310990Y-114938621D01*
X155398056Y-114957128D01*
X155398061Y-114957128D01*
X155404513Y-114958500D01*
X155595487Y-114958500D01*
X155601939Y-114957128D01*
X155601944Y-114957128D01*
X155689010Y-114938621D01*
X155782288Y-114918794D01*
X155788319Y-114916109D01*
X155950722Y-114843803D01*
X155950724Y-114843802D01*
X155956752Y-114841118D01*
X155990522Y-114816583D01*
X156022382Y-114793435D01*
X156111253Y-114728866D01*
X156193032Y-114638041D01*
X156234621Y-114591852D01*
X156234622Y-114591851D01*
X156239040Y-114586944D01*
X156334527Y-114421556D01*
X156393542Y-114239928D01*
X156405512Y-114126045D01*
X156412814Y-114056565D01*
X156413504Y-114050000D01*
X156407190Y-113989928D01*
X156394232Y-113866635D01*
X156394232Y-113866633D01*
X156393542Y-113860072D01*
X156374023Y-113800000D01*
X163336496Y-113800000D01*
X163337186Y-113806565D01*
X163343500Y-113866635D01*
X163356458Y-113989928D01*
X163415473Y-114171556D01*
X163510960Y-114336944D01*
X163515378Y-114341851D01*
X163515379Y-114341852D01*
X163580665Y-114414359D01*
X163638747Y-114478866D01*
X163793248Y-114591118D01*
X163799276Y-114593802D01*
X163799278Y-114593803D01*
X163961681Y-114666109D01*
X163967712Y-114668794D01*
X164057989Y-114687983D01*
X164148056Y-114707128D01*
X164148061Y-114707128D01*
X164154513Y-114708500D01*
X164345487Y-114708500D01*
X164351939Y-114707128D01*
X164351944Y-114707128D01*
X164442011Y-114687983D01*
X164532288Y-114668794D01*
X164538319Y-114666109D01*
X164700722Y-114593803D01*
X164700724Y-114593802D01*
X164706752Y-114591118D01*
X164861253Y-114478866D01*
X164919335Y-114414359D01*
X164984621Y-114341852D01*
X164984622Y-114341851D01*
X164989040Y-114336944D01*
X165084527Y-114171556D01*
X165143542Y-113989928D01*
X165156501Y-113866635D01*
X165162814Y-113806565D01*
X165163504Y-113800000D01*
X171836496Y-113800000D01*
X171837186Y-113806565D01*
X171843500Y-113866635D01*
X171856458Y-113989928D01*
X171915473Y-114171556D01*
X172010960Y-114336944D01*
X172015378Y-114341851D01*
X172015379Y-114341852D01*
X172080665Y-114414359D01*
X172138747Y-114478866D01*
X172293248Y-114591118D01*
X172299276Y-114593802D01*
X172299278Y-114593803D01*
X172461681Y-114666109D01*
X172467712Y-114668794D01*
X172557989Y-114687983D01*
X172648056Y-114707128D01*
X172648061Y-114707128D01*
X172654513Y-114708500D01*
X172845487Y-114708500D01*
X172851939Y-114707128D01*
X172851944Y-114707128D01*
X172942011Y-114687983D01*
X173032288Y-114668794D01*
X173038319Y-114666109D01*
X173200722Y-114593803D01*
X173200724Y-114593802D01*
X173206752Y-114591118D01*
X173361253Y-114478866D01*
X173419335Y-114414359D01*
X173484621Y-114341852D01*
X173484622Y-114341851D01*
X173489040Y-114336944D01*
X173584527Y-114171556D01*
X173643542Y-113989928D01*
X173656501Y-113866635D01*
X173662814Y-113806565D01*
X173663504Y-113800000D01*
X173643542Y-113610072D01*
X173584527Y-113428444D01*
X173577406Y-113416109D01*
X173534109Y-113341118D01*
X173489040Y-113263056D01*
X173461752Y-113232749D01*
X173365675Y-113126045D01*
X173365674Y-113126044D01*
X173361253Y-113121134D01*
X173262157Y-113049136D01*
X173212094Y-113012763D01*
X173212093Y-113012762D01*
X173206752Y-113008882D01*
X173200724Y-113006198D01*
X173200722Y-113006197D01*
X173038319Y-112933891D01*
X173038318Y-112933891D01*
X173032288Y-112931206D01*
X172908134Y-112904816D01*
X172851944Y-112892872D01*
X172851939Y-112892872D01*
X172845487Y-112891500D01*
X172654513Y-112891500D01*
X172648061Y-112892872D01*
X172648056Y-112892872D01*
X172591866Y-112904816D01*
X172467712Y-112931206D01*
X172461682Y-112933891D01*
X172461681Y-112933891D01*
X172299278Y-113006197D01*
X172299276Y-113006198D01*
X172293248Y-113008882D01*
X172287907Y-113012762D01*
X172287906Y-113012763D01*
X172237843Y-113049136D01*
X172138747Y-113121134D01*
X172134326Y-113126044D01*
X172134325Y-113126045D01*
X172038249Y-113232749D01*
X172010960Y-113263056D01*
X171965891Y-113341118D01*
X171922595Y-113416109D01*
X171915473Y-113428444D01*
X171856458Y-113610072D01*
X171836496Y-113800000D01*
X165163504Y-113800000D01*
X165143542Y-113610072D01*
X165084527Y-113428444D01*
X165077406Y-113416109D01*
X165034109Y-113341118D01*
X164989040Y-113263056D01*
X164961752Y-113232749D01*
X164865675Y-113126045D01*
X164865674Y-113126044D01*
X164861253Y-113121134D01*
X164762157Y-113049136D01*
X164712094Y-113012763D01*
X164712093Y-113012762D01*
X164706752Y-113008882D01*
X164700724Y-113006198D01*
X164700722Y-113006197D01*
X164538319Y-112933891D01*
X164538318Y-112933891D01*
X164532288Y-112931206D01*
X164408134Y-112904816D01*
X164351944Y-112892872D01*
X164351939Y-112892872D01*
X164345487Y-112891500D01*
X164154513Y-112891500D01*
X164148061Y-112892872D01*
X164148056Y-112892872D01*
X164091866Y-112904816D01*
X163967712Y-112931206D01*
X163961682Y-112933891D01*
X163961681Y-112933891D01*
X163799278Y-113006197D01*
X163799276Y-113006198D01*
X163793248Y-113008882D01*
X163787907Y-113012762D01*
X163787906Y-113012763D01*
X163737843Y-113049136D01*
X163638747Y-113121134D01*
X163634326Y-113126044D01*
X163634325Y-113126045D01*
X163538249Y-113232749D01*
X163510960Y-113263056D01*
X163465891Y-113341118D01*
X163422595Y-113416109D01*
X163415473Y-113428444D01*
X163356458Y-113610072D01*
X163336496Y-113800000D01*
X156374023Y-113800000D01*
X156334527Y-113678444D01*
X156239040Y-113513056D01*
X156111253Y-113371134D01*
X155956752Y-113258882D01*
X155950724Y-113256198D01*
X155950722Y-113256197D01*
X155788319Y-113183891D01*
X155788318Y-113183891D01*
X155782288Y-113181206D01*
X155688887Y-113161353D01*
X155601944Y-113142872D01*
X155601939Y-113142872D01*
X155595487Y-113141500D01*
X155404513Y-113141500D01*
X155398061Y-113142872D01*
X155398056Y-113142872D01*
X155311113Y-113161353D01*
X155217712Y-113181206D01*
X155211682Y-113183891D01*
X155211681Y-113183891D01*
X155049278Y-113256197D01*
X155049276Y-113256198D01*
X155043248Y-113258882D01*
X154888747Y-113371134D01*
X154760960Y-113513056D01*
X154665473Y-113678444D01*
X154606458Y-113860072D01*
X154605768Y-113866633D01*
X154605768Y-113866635D01*
X154592810Y-113989928D01*
X154586496Y-114050000D01*
X152226260Y-114050000D01*
X149466588Y-111290328D01*
X149432562Y-111228016D01*
X149437627Y-111157201D01*
X149462044Y-111116926D01*
X149489040Y-111086944D01*
X149548841Y-110983365D01*
X149581223Y-110927279D01*
X149581224Y-110927278D01*
X149584527Y-110921556D01*
X149643542Y-110739928D01*
X149645137Y-110724759D01*
X149662814Y-110556565D01*
X149663504Y-110550000D01*
X149643542Y-110360072D01*
X149584527Y-110178444D01*
X149489040Y-110013056D01*
X149477284Y-109999999D01*
X149365675Y-109876045D01*
X149365674Y-109876044D01*
X149361253Y-109871134D01*
X149234651Y-109779152D01*
X149212094Y-109762763D01*
X149212093Y-109762762D01*
X149206752Y-109758882D01*
X149200724Y-109756198D01*
X149200722Y-109756197D01*
X149038319Y-109683891D01*
X149038318Y-109683891D01*
X149032288Y-109681206D01*
X148934630Y-109660448D01*
X148851944Y-109642872D01*
X148851939Y-109642872D01*
X148845487Y-109641500D01*
X148654513Y-109641500D01*
X148649599Y-109642544D01*
X148580338Y-109629878D01*
X148527887Y-109580341D01*
X148525630Y-109576432D01*
X148489040Y-109513056D01*
X148402329Y-109416753D01*
X148371612Y-109352746D01*
X148376133Y-109293508D01*
X148385332Y-109265195D01*
X148393542Y-109239928D01*
X148396464Y-109212132D01*
X148412814Y-109056565D01*
X148413504Y-109050000D01*
X148393542Y-108860072D01*
X148334527Y-108678444D01*
X148239040Y-108513056D01*
X148111253Y-108371134D01*
X147962935Y-108263374D01*
X147962094Y-108262763D01*
X147962093Y-108262762D01*
X147956752Y-108258882D01*
X147950724Y-108256198D01*
X147950722Y-108256197D01*
X147788319Y-108183891D01*
X147788318Y-108183891D01*
X147782288Y-108181206D01*
X147688887Y-108161353D01*
X147601944Y-108142872D01*
X147601939Y-108142872D01*
X147595487Y-108141500D01*
X147404513Y-108141500D01*
X147398061Y-108142872D01*
X147398056Y-108142872D01*
X147311112Y-108161353D01*
X147217712Y-108181206D01*
X147211682Y-108183891D01*
X147211681Y-108183891D01*
X147049278Y-108256197D01*
X147049276Y-108256198D01*
X147043248Y-108258882D01*
X147037907Y-108262762D01*
X147037906Y-108262763D01*
X147037065Y-108263374D01*
X146888747Y-108371134D01*
X146760960Y-108513056D01*
X146665473Y-108678444D01*
X146606458Y-108860072D01*
X146605768Y-108866635D01*
X146605768Y-108866636D01*
X146593486Y-108983492D01*
X146566473Y-109049148D01*
X146560027Y-109056573D01*
X146528397Y-109090256D01*
X146525641Y-109093099D01*
X146505073Y-109113667D01*
X146502356Y-109117170D01*
X146494648Y-109126195D01*
X146463028Y-109159867D01*
X146459207Y-109166818D01*
X146459206Y-109166819D01*
X146452697Y-109178658D01*
X146441843Y-109195182D01*
X146434018Y-109205271D01*
X146428696Y-109212132D01*
X146425549Y-109219404D01*
X146425548Y-109219406D01*
X146410346Y-109254535D01*
X146405124Y-109265195D01*
X146392266Y-109288584D01*
X146382876Y-109305663D01*
X146377541Y-109326441D01*
X146371142Y-109345131D01*
X146362620Y-109364824D01*
X146362357Y-109366485D01*
X146325641Y-109423977D01*
X146261146Y-109453656D01*
X146190843Y-109443753D01*
X146149220Y-109413301D01*
X146146128Y-109409867D01*
X146111253Y-109371134D01*
X145956752Y-109258882D01*
X145950724Y-109256198D01*
X145950722Y-109256197D01*
X145788319Y-109183891D01*
X145788318Y-109183891D01*
X145782288Y-109181206D01*
X145611577Y-109144920D01*
X145549106Y-109111193D01*
X145514784Y-109049043D01*
X145519512Y-108978204D01*
X145548681Y-108932579D01*
X148134939Y-106346321D01*
X148197251Y-106312295D01*
X148268066Y-106317360D01*
X148324902Y-106359907D01*
X148349344Y-106422245D01*
X148356458Y-106489928D01*
X148415473Y-106671556D01*
X148418776Y-106677278D01*
X148418777Y-106677279D01*
X148436803Y-106708500D01*
X148510960Y-106836944D01*
X148515378Y-106841851D01*
X148515379Y-106841852D01*
X148625586Y-106964249D01*
X148638747Y-106978866D01*
X148793248Y-107091118D01*
X148799276Y-107093802D01*
X148799278Y-107093803D01*
X148804799Y-107096261D01*
X148967712Y-107168794D01*
X149061113Y-107188647D01*
X149148056Y-107207128D01*
X149148061Y-107207128D01*
X149154513Y-107208500D01*
X149345487Y-107208500D01*
X149351939Y-107207128D01*
X149351944Y-107207128D01*
X149438888Y-107188647D01*
X149532288Y-107168794D01*
X149695201Y-107096261D01*
X149700722Y-107093803D01*
X149700724Y-107093802D01*
X149706752Y-107091118D01*
X149856163Y-106982564D01*
X149923031Y-106958706D01*
X149930224Y-106958500D01*
X150917944Y-106958500D01*
X150929800Y-106959059D01*
X150929803Y-106959059D01*
X150937537Y-106960788D01*
X151008369Y-106958562D01*
X151012327Y-106958500D01*
X151041432Y-106958500D01*
X151045832Y-106957944D01*
X151057664Y-106957012D01*
X151103831Y-106955562D01*
X151124421Y-106949580D01*
X151143782Y-106945570D01*
X151150770Y-106944688D01*
X151157204Y-106943875D01*
X151157205Y-106943875D01*
X151165064Y-106942882D01*
X151172429Y-106939966D01*
X151172433Y-106939965D01*
X151208021Y-106925874D01*
X151219231Y-106922035D01*
X151263600Y-106909145D01*
X151282065Y-106898225D01*
X151299805Y-106889534D01*
X151319756Y-106881635D01*
X151357129Y-106854482D01*
X151367048Y-106847967D01*
X151399977Y-106828493D01*
X151399981Y-106828490D01*
X151406807Y-106824453D01*
X151421971Y-106809289D01*
X151437005Y-106796448D01*
X151447943Y-106788501D01*
X151454357Y-106783841D01*
X151483803Y-106748247D01*
X151491792Y-106739468D01*
X153407605Y-104823655D01*
X153416385Y-104815665D01*
X153416387Y-104815663D01*
X153423080Y-104811416D01*
X153471605Y-104759742D01*
X153474359Y-104756901D01*
X153494927Y-104736333D01*
X153497647Y-104732826D01*
X153505353Y-104723804D01*
X153531544Y-104695913D01*
X153536972Y-104690133D01*
X153540794Y-104683181D01*
X153547303Y-104671342D01*
X153558157Y-104654818D01*
X153566443Y-104644135D01*
X153566444Y-104644134D01*
X153571304Y-104637868D01*
X153589654Y-104595464D01*
X153594869Y-104584819D01*
X153617124Y-104544337D01*
X153619094Y-104536663D01*
X153619097Y-104536656D01*
X153622455Y-104523574D01*
X153628861Y-104504862D01*
X153634233Y-104492448D01*
X153637380Y-104485177D01*
X153639282Y-104473171D01*
X153644607Y-104439544D01*
X153647012Y-104427930D01*
X153658500Y-104383188D01*
X153658500Y-104361742D01*
X153660051Y-104342032D01*
X153662166Y-104328678D01*
X153662166Y-104328677D01*
X153663406Y-104320848D01*
X153659059Y-104274859D01*
X153658500Y-104263004D01*
X153658500Y-98724759D01*
X153678502Y-98656638D01*
X153690864Y-98640449D01*
X153734621Y-98591852D01*
X153734622Y-98591851D01*
X153739040Y-98586944D01*
X153834527Y-98421556D01*
X153893542Y-98239928D01*
X153901460Y-98164598D01*
X153912814Y-98056565D01*
X153913504Y-98050000D01*
X153907128Y-97989338D01*
X153894232Y-97866635D01*
X153894232Y-97866633D01*
X153893542Y-97860072D01*
X153834527Y-97678444D01*
X153813990Y-97642872D01*
X153791428Y-97603794D01*
X153739040Y-97513056D01*
X153733315Y-97506697D01*
X153615675Y-97376045D01*
X153615674Y-97376044D01*
X153611253Y-97371134D01*
X153462497Y-97263056D01*
X153462094Y-97262763D01*
X153462093Y-97262762D01*
X153456752Y-97258882D01*
X153450724Y-97256198D01*
X153450722Y-97256197D01*
X153288319Y-97183891D01*
X153288318Y-97183891D01*
X153282288Y-97181206D01*
X153163337Y-97155922D01*
X153101944Y-97142872D01*
X153101939Y-97142872D01*
X153095487Y-97141500D01*
X152904513Y-97141500D01*
X152898061Y-97142872D01*
X152898056Y-97142872D01*
X152836663Y-97155922D01*
X152717712Y-97181206D01*
X152711682Y-97183891D01*
X152711681Y-97183891D01*
X152549278Y-97256197D01*
X152549276Y-97256198D01*
X152543248Y-97258882D01*
X152537907Y-97262762D01*
X152537906Y-97262763D01*
X152537503Y-97263056D01*
X152388747Y-97371134D01*
X152384326Y-97376044D01*
X152384325Y-97376045D01*
X152266686Y-97506697D01*
X152260960Y-97513056D01*
X152208572Y-97603794D01*
X152186011Y-97642872D01*
X152165473Y-97678444D01*
X152106458Y-97860072D01*
X152105768Y-97866633D01*
X152105768Y-97866635D01*
X152092872Y-97989338D01*
X152086496Y-98050000D01*
X152087186Y-98056565D01*
X152098541Y-98164598D01*
X152106458Y-98239928D01*
X152165473Y-98421556D01*
X152260960Y-98586944D01*
X152265378Y-98591851D01*
X152265379Y-98591852D01*
X152309136Y-98640449D01*
X152339854Y-98704456D01*
X152341500Y-98724759D01*
X152341500Y-103975051D01*
X152321498Y-104043172D01*
X152304595Y-104064146D01*
X152239353Y-104129388D01*
X152177041Y-104163414D01*
X152106226Y-104158349D01*
X152049390Y-104115802D01*
X152041139Y-104103294D01*
X152027469Y-104079617D01*
X151989040Y-104013056D01*
X151884827Y-103897315D01*
X151865675Y-103876045D01*
X151865674Y-103876044D01*
X151861253Y-103871134D01*
X151770745Y-103805376D01*
X151720439Y-103768826D01*
X151677085Y-103712603D01*
X151668500Y-103666890D01*
X151668500Y-93706983D01*
X151688502Y-93638862D01*
X151742158Y-93592369D01*
X151812432Y-93582265D01*
X151877012Y-93611759D01*
X151909008Y-93660017D01*
X151910747Y-93659243D01*
X151913431Y-93665271D01*
X151915473Y-93671556D01*
X152010960Y-93836944D01*
X152015378Y-93841851D01*
X152015379Y-93841852D01*
X152080184Y-93913825D01*
X152106952Y-93963746D01*
X152107118Y-93965064D01*
X152110037Y-93972436D01*
X152110037Y-93972437D01*
X152124126Y-94008021D01*
X152127965Y-94019231D01*
X152140855Y-94063600D01*
X152151775Y-94082065D01*
X152160466Y-94099805D01*
X152168365Y-94119756D01*
X152195516Y-94157126D01*
X152202033Y-94167048D01*
X152221507Y-94199977D01*
X152221510Y-94199981D01*
X152225547Y-94206807D01*
X152240711Y-94221971D01*
X152253551Y-94237004D01*
X152266159Y-94254357D01*
X152272265Y-94259408D01*
X152301759Y-94283808D01*
X152310538Y-94291798D01*
X152476341Y-94457601D01*
X152484329Y-94466379D01*
X152484338Y-94466389D01*
X152488584Y-94473080D01*
X152494360Y-94478504D01*
X152540273Y-94521619D01*
X152543115Y-94524374D01*
X152563667Y-94544926D01*
X152566801Y-94547357D01*
X152567163Y-94547638D01*
X152576191Y-94555348D01*
X152609867Y-94586972D01*
X152616818Y-94590793D01*
X152616819Y-94590794D01*
X152628655Y-94597301D01*
X152645184Y-94608158D01*
X152655869Y-94616447D01*
X152655871Y-94616448D01*
X152662131Y-94621304D01*
X152704544Y-94639657D01*
X152715181Y-94644868D01*
X152755663Y-94667124D01*
X152763342Y-94669096D01*
X152763343Y-94669096D01*
X152776434Y-94672457D01*
X152795136Y-94678859D01*
X152814823Y-94687379D01*
X152822652Y-94688619D01*
X152860448Y-94694605D01*
X152872074Y-94697013D01*
X152909135Y-94706529D01*
X152909136Y-94706529D01*
X152916812Y-94708500D01*
X152938258Y-94708500D01*
X152957968Y-94710051D01*
X152979151Y-94713406D01*
X153025135Y-94709059D01*
X153036994Y-94708500D01*
X153675050Y-94708500D01*
X153743171Y-94728502D01*
X153764145Y-94745405D01*
X155304595Y-96285855D01*
X155338621Y-96348167D01*
X155341500Y-96374950D01*
X155341500Y-105125241D01*
X155321498Y-105193362D01*
X155309136Y-105209551D01*
X155276957Y-105245290D01*
X155260960Y-105263056D01*
X155165473Y-105428444D01*
X155106458Y-105610072D01*
X155105768Y-105616633D01*
X155105768Y-105616635D01*
X155096458Y-105705213D01*
X155086496Y-105800000D01*
X155087186Y-105806565D01*
X155101645Y-105944131D01*
X155106458Y-105989928D01*
X155165473Y-106171556D01*
X155168776Y-106177278D01*
X155168777Y-106177279D01*
X155200331Y-106231931D01*
X155260960Y-106336944D01*
X155265378Y-106341851D01*
X155265379Y-106341852D01*
X155309553Y-106390912D01*
X155388747Y-106478866D01*
X155543248Y-106591118D01*
X155549276Y-106593802D01*
X155549278Y-106593803D01*
X155666922Y-106646181D01*
X155717712Y-106668794D01*
X155792680Y-106684729D01*
X155898056Y-106707128D01*
X155898061Y-106707128D01*
X155904513Y-106708500D01*
X156095487Y-106708500D01*
X156101939Y-106707128D01*
X156101944Y-106707128D01*
X156207320Y-106684729D01*
X156282288Y-106668794D01*
X156333078Y-106646181D01*
X156450722Y-106593803D01*
X156450724Y-106593802D01*
X156456752Y-106591118D01*
X156611253Y-106478866D01*
X156690447Y-106390912D01*
X156734621Y-106341852D01*
X156734622Y-106341851D01*
X156739040Y-106336944D01*
X156799669Y-106231931D01*
X156831223Y-106177279D01*
X156831224Y-106177278D01*
X156834527Y-106171556D01*
X156893542Y-105989928D01*
X156898356Y-105944131D01*
X156912814Y-105806565D01*
X156913504Y-105800000D01*
X156903542Y-105705213D01*
X156894232Y-105616635D01*
X156894232Y-105616633D01*
X156893542Y-105610072D01*
X156834527Y-105428444D01*
X156739040Y-105263056D01*
X156723044Y-105245290D01*
X156690864Y-105209551D01*
X156660146Y-105145544D01*
X156658500Y-105125241D01*
X156658500Y-104800000D01*
X158086496Y-104800000D01*
X158087186Y-104806565D01*
X158098352Y-104912799D01*
X158106458Y-104989928D01*
X158165473Y-105171556D01*
X158260960Y-105336944D01*
X158388747Y-105478866D01*
X158543248Y-105591118D01*
X158549276Y-105593802D01*
X158549278Y-105593803D01*
X158711681Y-105666109D01*
X158717712Y-105668794D01*
X158811112Y-105688647D01*
X158898056Y-105707128D01*
X158898061Y-105707128D01*
X158904513Y-105708500D01*
X159095487Y-105708500D01*
X159101939Y-105707128D01*
X159101944Y-105707128D01*
X159188888Y-105688647D01*
X159282288Y-105668794D01*
X159288319Y-105666109D01*
X159450722Y-105593803D01*
X159450724Y-105593802D01*
X159456752Y-105591118D01*
X159611253Y-105478866D01*
X159739040Y-105336944D01*
X159834527Y-105171556D01*
X159893542Y-104989928D01*
X159901649Y-104912799D01*
X159912814Y-104806565D01*
X159913504Y-104800000D01*
X159901957Y-104690133D01*
X159894232Y-104616635D01*
X159894232Y-104616633D01*
X159893542Y-104610072D01*
X159834527Y-104428444D01*
X159821021Y-104405050D01*
X159797314Y-104363990D01*
X159739040Y-104263056D01*
X159673746Y-104190539D01*
X159615675Y-104126045D01*
X159615674Y-104126044D01*
X159611253Y-104121134D01*
X159510538Y-104047960D01*
X159462094Y-104012763D01*
X159462093Y-104012762D01*
X159456752Y-104008882D01*
X159450724Y-104006198D01*
X159450722Y-104006197D01*
X159288319Y-103933891D01*
X159288318Y-103933891D01*
X159282288Y-103931206D01*
X159179168Y-103909287D01*
X159101944Y-103892872D01*
X159101939Y-103892872D01*
X159095487Y-103891500D01*
X158904513Y-103891500D01*
X158898061Y-103892872D01*
X158898056Y-103892872D01*
X158820832Y-103909287D01*
X158717712Y-103931206D01*
X158711682Y-103933891D01*
X158711681Y-103933891D01*
X158549278Y-104006197D01*
X158549276Y-104006198D01*
X158543248Y-104008882D01*
X158537907Y-104012762D01*
X158537906Y-104012763D01*
X158489462Y-104047960D01*
X158388747Y-104121134D01*
X158384326Y-104126044D01*
X158384325Y-104126045D01*
X158326255Y-104190539D01*
X158260960Y-104263056D01*
X158202686Y-104363990D01*
X158178980Y-104405050D01*
X158165473Y-104428444D01*
X158106458Y-104610072D01*
X158105768Y-104616633D01*
X158105768Y-104616635D01*
X158098043Y-104690133D01*
X158086496Y-104800000D01*
X156658500Y-104800000D01*
X156658500Y-96132059D01*
X156659059Y-96120203D01*
X156660789Y-96112463D01*
X156660203Y-96093803D01*
X156658562Y-96041611D01*
X156658500Y-96037653D01*
X156658500Y-96008568D01*
X156657946Y-96004179D01*
X156657013Y-95992337D01*
X156655811Y-95954094D01*
X156655562Y-95946169D01*
X156649580Y-95925579D01*
X156645570Y-95906216D01*
X156643875Y-95892796D01*
X156643875Y-95892795D01*
X156642882Y-95884936D01*
X156639966Y-95877571D01*
X156639965Y-95877567D01*
X156625874Y-95841979D01*
X156622035Y-95830769D01*
X156609145Y-95786400D01*
X156598225Y-95767935D01*
X156589534Y-95750195D01*
X156581635Y-95730244D01*
X156554482Y-95692871D01*
X156547967Y-95682952D01*
X156528493Y-95650023D01*
X156528490Y-95650019D01*
X156524453Y-95643193D01*
X156509289Y-95628029D01*
X156496448Y-95612995D01*
X156488501Y-95602057D01*
X156483841Y-95595643D01*
X156448247Y-95566197D01*
X156439468Y-95558208D01*
X154523657Y-93642397D01*
X154515668Y-93633618D01*
X154515663Y-93633612D01*
X154511416Y-93626920D01*
X154459741Y-93578394D01*
X154456900Y-93575640D01*
X154436333Y-93555073D01*
X154432826Y-93552353D01*
X154423804Y-93544647D01*
X154395913Y-93518456D01*
X154390133Y-93513028D01*
X154383181Y-93509206D01*
X154371342Y-93502697D01*
X154354818Y-93491843D01*
X154344132Y-93483555D01*
X154337868Y-93478696D01*
X154330596Y-93475549D01*
X154330594Y-93475548D01*
X154295465Y-93460346D01*
X154284805Y-93455124D01*
X154251284Y-93436695D01*
X154251282Y-93436694D01*
X154244337Y-93432876D01*
X154223559Y-93427541D01*
X154204869Y-93421142D01*
X154185176Y-93412620D01*
X154139552Y-93405394D01*
X154127929Y-93402987D01*
X154099928Y-93395798D01*
X154083188Y-93391500D01*
X154061741Y-93391500D01*
X154042031Y-93389949D01*
X154028677Y-93387834D01*
X154020848Y-93386594D01*
X153974859Y-93390941D01*
X153963004Y-93391500D01*
X153786572Y-93391500D01*
X153718451Y-93371498D01*
X153671958Y-93317842D01*
X153661262Y-93278670D01*
X153644232Y-93116635D01*
X153644232Y-93116633D01*
X153643542Y-93110072D01*
X153624023Y-93050000D01*
X163336496Y-93050000D01*
X163337186Y-93056565D01*
X163353011Y-93207128D01*
X163356458Y-93239928D01*
X163415473Y-93421556D01*
X163418776Y-93427278D01*
X163418777Y-93427279D01*
X163436508Y-93457990D01*
X163510960Y-93586944D01*
X163515378Y-93591851D01*
X163515379Y-93591852D01*
X163552985Y-93633618D01*
X163638747Y-93728866D01*
X163793248Y-93841118D01*
X163799276Y-93843802D01*
X163799278Y-93843803D01*
X163850560Y-93866635D01*
X163967712Y-93918794D01*
X164061113Y-93938647D01*
X164148056Y-93957128D01*
X164148061Y-93957128D01*
X164154513Y-93958500D01*
X164345487Y-93958500D01*
X164351939Y-93957128D01*
X164351944Y-93957128D01*
X164438887Y-93938647D01*
X164532288Y-93918794D01*
X164649440Y-93866635D01*
X164700722Y-93843803D01*
X164700724Y-93843802D01*
X164706752Y-93841118D01*
X164861253Y-93728866D01*
X164947015Y-93633618D01*
X164984621Y-93591852D01*
X164984622Y-93591851D01*
X164989040Y-93586944D01*
X165063492Y-93457990D01*
X165081223Y-93427279D01*
X165081224Y-93427278D01*
X165084527Y-93421556D01*
X165143542Y-93239928D01*
X165146990Y-93207128D01*
X165162814Y-93056565D01*
X165163504Y-93050000D01*
X165156028Y-92978866D01*
X165144232Y-92866635D01*
X165144232Y-92866633D01*
X165143542Y-92860072D01*
X165084527Y-92678444D01*
X164989040Y-92513056D01*
X164968216Y-92489928D01*
X164865675Y-92376045D01*
X164865674Y-92376044D01*
X164861253Y-92371134D01*
X164706752Y-92258882D01*
X164700724Y-92256198D01*
X164700722Y-92256197D01*
X164538319Y-92183891D01*
X164538318Y-92183891D01*
X164532288Y-92181206D01*
X164438887Y-92161353D01*
X164351944Y-92142872D01*
X164351939Y-92142872D01*
X164345487Y-92141500D01*
X164154513Y-92141500D01*
X164148061Y-92142872D01*
X164148056Y-92142872D01*
X164061112Y-92161353D01*
X163967712Y-92181206D01*
X163961682Y-92183891D01*
X163961681Y-92183891D01*
X163799278Y-92256197D01*
X163799276Y-92256198D01*
X163793248Y-92258882D01*
X163638747Y-92371134D01*
X163634326Y-92376044D01*
X163634325Y-92376045D01*
X163531785Y-92489928D01*
X163510960Y-92513056D01*
X163415473Y-92678444D01*
X163356458Y-92860072D01*
X163355768Y-92866633D01*
X163355768Y-92866635D01*
X163343972Y-92978866D01*
X163336496Y-93050000D01*
X153624023Y-93050000D01*
X153584527Y-92928444D01*
X153489040Y-92763056D01*
X153361253Y-92621134D01*
X153206752Y-92508882D01*
X153200724Y-92506198D01*
X153200722Y-92506197D01*
X153038319Y-92433891D01*
X153038318Y-92433891D01*
X153032288Y-92431206D01*
X152938887Y-92411353D01*
X152851944Y-92392872D01*
X152851939Y-92392872D01*
X152845487Y-92391500D01*
X152654513Y-92391500D01*
X152648061Y-92392872D01*
X152648056Y-92392872D01*
X152561113Y-92411353D01*
X152467712Y-92431206D01*
X152461682Y-92433891D01*
X152461681Y-92433891D01*
X152299278Y-92506197D01*
X152299276Y-92506198D01*
X152293248Y-92508882D01*
X152138747Y-92621134D01*
X152010960Y-92763056D01*
X151915473Y-92928444D01*
X151913431Y-92934728D01*
X151910747Y-92940757D01*
X151908881Y-92939926D01*
X151874263Y-92990556D01*
X151808868Y-93018195D01*
X151738910Y-93006091D01*
X151686602Y-92958087D01*
X151668500Y-92893017D01*
X151668500Y-90813961D01*
X151688502Y-90745840D01*
X151721332Y-90711382D01*
X151734142Y-90702245D01*
X151889860Y-90591173D01*
X151998091Y-90483319D01*
X152060462Y-90449404D01*
X152131268Y-90454592D01*
X152188030Y-90497238D01*
X152205012Y-90528341D01*
X152249385Y-90646705D01*
X152336739Y-90763261D01*
X152453295Y-90850615D01*
X152589684Y-90901745D01*
X152651866Y-90908500D01*
X154448134Y-90908500D01*
X154510316Y-90901745D01*
X154646705Y-90850615D01*
X154763261Y-90763261D01*
X154850615Y-90646705D01*
X154901745Y-90510316D01*
X154908500Y-90448134D01*
X154908500Y-89554568D01*
X167537382Y-89554568D01*
X167537963Y-89559588D01*
X167537963Y-89559592D01*
X167543859Y-89610547D01*
X167566208Y-89803699D01*
X167567587Y-89808573D01*
X167567588Y-89808577D01*
X167627316Y-90019651D01*
X167634494Y-90045017D01*
X167636628Y-90049592D01*
X167636630Y-90049599D01*
X167733115Y-90256511D01*
X167740484Y-90272313D01*
X167743326Y-90276494D01*
X167743326Y-90276495D01*
X167878605Y-90475552D01*
X167878608Y-90475556D01*
X167881451Y-90479739D01*
X167884928Y-90483416D01*
X167884929Y-90483417D01*
X168050287Y-90658279D01*
X168053767Y-90661959D01*
X168057793Y-90665037D01*
X168057794Y-90665038D01*
X168248981Y-90811212D01*
X168248985Y-90811215D01*
X168253001Y-90814285D01*
X168257459Y-90816675D01*
X168257460Y-90816676D01*
X168336450Y-90859030D01*
X168474026Y-90932797D01*
X168478807Y-90934443D01*
X168478811Y-90934445D01*
X168704538Y-91012169D01*
X168711156Y-91014448D01*
X168814689Y-91032331D01*
X168954380Y-91056460D01*
X168954386Y-91056461D01*
X168958290Y-91057135D01*
X168962251Y-91057315D01*
X168962252Y-91057315D01*
X168986931Y-91058436D01*
X168986950Y-91058436D01*
X168988350Y-91058500D01*
X169163015Y-91058500D01*
X169165523Y-91058298D01*
X169165528Y-91058298D01*
X169344944Y-91043863D01*
X169344949Y-91043862D01*
X169349985Y-91043457D01*
X169354893Y-91042252D01*
X169354896Y-91042251D01*
X169588625Y-90984841D01*
X169593539Y-90983634D01*
X169598191Y-90981659D01*
X169598195Y-90981658D01*
X169819741Y-90887617D01*
X169819742Y-90887617D01*
X169824396Y-90885641D01*
X169997343Y-90776731D01*
X170032334Y-90754696D01*
X170032335Y-90754695D01*
X170036615Y-90752000D01*
X170224738Y-90586147D01*
X170383924Y-90392351D01*
X170510078Y-90175596D01*
X170599955Y-89941461D01*
X170609824Y-89894223D01*
X170650206Y-89700921D01*
X170651241Y-89695967D01*
X170651857Y-89682418D01*
X170657662Y-89554568D01*
X170662618Y-89445432D01*
X170633792Y-89196301D01*
X170619860Y-89147064D01*
X170566884Y-88959852D01*
X170566883Y-88959850D01*
X170565506Y-88954983D01*
X170563372Y-88950408D01*
X170563370Y-88950401D01*
X170461653Y-88732269D01*
X170461651Y-88732265D01*
X170459516Y-88727687D01*
X170456674Y-88723505D01*
X170321395Y-88524448D01*
X170321392Y-88524444D01*
X170318549Y-88520261D01*
X170217925Y-88413853D01*
X170149713Y-88341721D01*
X170146233Y-88338041D01*
X170139801Y-88333123D01*
X169951019Y-88188788D01*
X169951015Y-88188785D01*
X169946999Y-88185715D01*
X169936992Y-88180349D01*
X169730435Y-88069595D01*
X169725974Y-88067203D01*
X169721193Y-88065557D01*
X169721189Y-88065555D01*
X169493633Y-87987201D01*
X169488844Y-87985552D01*
X169385311Y-87967669D01*
X169245620Y-87943540D01*
X169245614Y-87943539D01*
X169241710Y-87942865D01*
X169237749Y-87942685D01*
X169237748Y-87942685D01*
X169213069Y-87941564D01*
X169213050Y-87941564D01*
X169211650Y-87941500D01*
X169036985Y-87941500D01*
X169034477Y-87941702D01*
X169034472Y-87941702D01*
X168855056Y-87956137D01*
X168855051Y-87956138D01*
X168850015Y-87956543D01*
X168845107Y-87957748D01*
X168845104Y-87957749D01*
X168674190Y-87999730D01*
X168606461Y-88016366D01*
X168601809Y-88018341D01*
X168601805Y-88018342D01*
X168481061Y-88069595D01*
X168375604Y-88114359D01*
X168266089Y-88183324D01*
X168198240Y-88226051D01*
X168163385Y-88248000D01*
X167975262Y-88413853D01*
X167816076Y-88607649D01*
X167689922Y-88824404D01*
X167600045Y-89058539D01*
X167599012Y-89063485D01*
X167599010Y-89063491D01*
X167582884Y-89140683D01*
X167548759Y-89304033D01*
X167548530Y-89309082D01*
X167548529Y-89309088D01*
X167547144Y-89339599D01*
X167537382Y-89554568D01*
X154908500Y-89554568D01*
X154908500Y-88651866D01*
X154901745Y-88589684D01*
X154850615Y-88453295D01*
X154763261Y-88336739D01*
X154646705Y-88249385D01*
X154510316Y-88198255D01*
X154448134Y-88191500D01*
X152651866Y-88191500D01*
X152589684Y-88198255D01*
X152453295Y-88249385D01*
X152336739Y-88336739D01*
X152249385Y-88453295D01*
X152246233Y-88461703D01*
X152204919Y-88571907D01*
X152162277Y-88628671D01*
X152095716Y-88653371D01*
X152026367Y-88638163D01*
X151993743Y-88612476D01*
X151943151Y-88556875D01*
X151943142Y-88556866D01*
X151939670Y-88553051D01*
X151935619Y-88549852D01*
X151935615Y-88549848D01*
X151768414Y-88417800D01*
X151768410Y-88417798D01*
X151764359Y-88414598D01*
X151728028Y-88394542D01*
X151678162Y-88367015D01*
X151568789Y-88306638D01*
X151563920Y-88304914D01*
X151563916Y-88304912D01*
X151363087Y-88233795D01*
X151363083Y-88233794D01*
X151358212Y-88232069D01*
X151353119Y-88231162D01*
X151353116Y-88231161D01*
X151143373Y-88193800D01*
X151143367Y-88193799D01*
X151138284Y-88192894D01*
X151064452Y-88191992D01*
X150920081Y-88190228D01*
X150920079Y-88190228D01*
X150914911Y-88190165D01*
X150694091Y-88223955D01*
X150481756Y-88293357D01*
X150443980Y-88313022D01*
X150340261Y-88367015D01*
X150283607Y-88396507D01*
X150279474Y-88399610D01*
X150279471Y-88399612D01*
X150113205Y-88524448D01*
X150104965Y-88530635D01*
X150079541Y-88557240D01*
X149963086Y-88679103D01*
X149950629Y-88692138D01*
X149843201Y-88849621D01*
X149788293Y-88894621D01*
X149717768Y-88902792D01*
X149654021Y-88871538D01*
X149633324Y-88847054D01*
X149552822Y-88722617D01*
X149552820Y-88722614D01*
X149550014Y-88718277D01*
X149399670Y-88553051D01*
X149395619Y-88549852D01*
X149395615Y-88549848D01*
X149228414Y-88417800D01*
X149228410Y-88417798D01*
X149224359Y-88414598D01*
X149188028Y-88394542D01*
X149138162Y-88367015D01*
X149028789Y-88306638D01*
X149023920Y-88304914D01*
X149023916Y-88304912D01*
X148823087Y-88233795D01*
X148823083Y-88233794D01*
X148818212Y-88232069D01*
X148813119Y-88231162D01*
X148813116Y-88231161D01*
X148603373Y-88193800D01*
X148603367Y-88193799D01*
X148598284Y-88192894D01*
X148524452Y-88191992D01*
X148380081Y-88190228D01*
X148380079Y-88190228D01*
X148374911Y-88190165D01*
X148154091Y-88223955D01*
X147941756Y-88293357D01*
X147903980Y-88313022D01*
X147800261Y-88367015D01*
X147743607Y-88396507D01*
X147739474Y-88399610D01*
X147739471Y-88399612D01*
X147573205Y-88524448D01*
X147564965Y-88530635D01*
X147539541Y-88557240D01*
X147423086Y-88679103D01*
X147410629Y-88692138D01*
X147407720Y-88696403D01*
X147407714Y-88696411D01*
X147371722Y-88749174D01*
X147303204Y-88849618D01*
X147302898Y-88850066D01*
X147247987Y-88895069D01*
X147177462Y-88903240D01*
X147113715Y-88871986D01*
X147093018Y-88847502D01*
X147012426Y-88722926D01*
X147006136Y-88714757D01*
X146862806Y-88557240D01*
X146855273Y-88550215D01*
X146688139Y-88418222D01*
X146679552Y-88412517D01*
X146493117Y-88309599D01*
X146483705Y-88305369D01*
X146282959Y-88234280D01*
X146272988Y-88231646D01*
X146201837Y-88218972D01*
X146188540Y-88220432D01*
X146184000Y-88234989D01*
X146184000Y-90868517D01*
X146188064Y-90882359D01*
X146201478Y-90884393D01*
X146208184Y-90883534D01*
X146218262Y-90881392D01*
X146422255Y-90820191D01*
X146431842Y-90816433D01*
X146623095Y-90722739D01*
X146631945Y-90717464D01*
X146805328Y-90593792D01*
X146813200Y-90587139D01*
X146964052Y-90436812D01*
X146970730Y-90428965D01*
X147098022Y-90251819D01*
X147099279Y-90252722D01*
X147146373Y-90209362D01*
X147216311Y-90197145D01*
X147281751Y-90224678D01*
X147309579Y-90256511D01*
X147369987Y-90355088D01*
X147516250Y-90523938D01*
X147688126Y-90666632D01*
X147881000Y-90779338D01*
X148089692Y-90859030D01*
X148094760Y-90860061D01*
X148094763Y-90860062D01*
X148189862Y-90879410D01*
X148308597Y-90903567D01*
X148313772Y-90903757D01*
X148313774Y-90903757D01*
X148366883Y-90905704D01*
X148531011Y-90911723D01*
X148531012Y-90911723D01*
X148531837Y-90911753D01*
X148531831Y-90911923D01*
X148598742Y-90928313D01*
X148647621Y-90979804D01*
X148661500Y-91037292D01*
X148661500Y-100406051D01*
X148641498Y-100474172D01*
X148587842Y-100520665D01*
X148517568Y-100530769D01*
X148452988Y-100501275D01*
X148446405Y-100495146D01*
X147843655Y-99892396D01*
X147835663Y-99883613D01*
X147835663Y-99883612D01*
X147831416Y-99876920D01*
X147779741Y-99828394D01*
X147776900Y-99825640D01*
X147756333Y-99805073D01*
X147752826Y-99802353D01*
X147743804Y-99794647D01*
X147715913Y-99768456D01*
X147710133Y-99763028D01*
X147703181Y-99759206D01*
X147691342Y-99752697D01*
X147674818Y-99741843D01*
X147664132Y-99733555D01*
X147657868Y-99728696D01*
X147650596Y-99725549D01*
X147650594Y-99725548D01*
X147615465Y-99710346D01*
X147604805Y-99705124D01*
X147571284Y-99686695D01*
X147571282Y-99686694D01*
X147564337Y-99682876D01*
X147543559Y-99677541D01*
X147524869Y-99671142D01*
X147505176Y-99662620D01*
X147459552Y-99655394D01*
X147447929Y-99652987D01*
X147419928Y-99645798D01*
X147403188Y-99641500D01*
X147381741Y-99641500D01*
X147362031Y-99639949D01*
X147348677Y-99637834D01*
X147340848Y-99636594D01*
X147294859Y-99640941D01*
X147283004Y-99641500D01*
X145074950Y-99641500D01*
X145006829Y-99621498D01*
X144985855Y-99604595D01*
X144445504Y-99064244D01*
X144411478Y-99001932D01*
X144416543Y-98931117D01*
X144440963Y-98890839D01*
X144446194Y-98885030D01*
X144465954Y-98863084D01*
X144484621Y-98842352D01*
X144484622Y-98842351D01*
X144489040Y-98837444D01*
X144558092Y-98717842D01*
X144581223Y-98677779D01*
X144581224Y-98677778D01*
X144584527Y-98672056D01*
X144643542Y-98490428D01*
X144645274Y-98473955D01*
X144662814Y-98307065D01*
X144663504Y-98300500D01*
X144643542Y-98110572D01*
X144584527Y-97928944D01*
X144555832Y-97879242D01*
X144508654Y-97797529D01*
X144489040Y-97763556D01*
X144418060Y-97684724D01*
X144365675Y-97626545D01*
X144365674Y-97626544D01*
X144361253Y-97621634D01*
X144234004Y-97529182D01*
X144212094Y-97513263D01*
X144212093Y-97513262D01*
X144206752Y-97509382D01*
X144200724Y-97506698D01*
X144200722Y-97506697D01*
X144038319Y-97434391D01*
X144038318Y-97434391D01*
X144032288Y-97431706D01*
X143938888Y-97411853D01*
X143851944Y-97393372D01*
X143851939Y-97393372D01*
X143845487Y-97392000D01*
X143654513Y-97392000D01*
X143648061Y-97393372D01*
X143648056Y-97393372D01*
X143561112Y-97411853D01*
X143467712Y-97431706D01*
X143461682Y-97434391D01*
X143461681Y-97434391D01*
X143299278Y-97506697D01*
X143299276Y-97506698D01*
X143293248Y-97509382D01*
X143287907Y-97513262D01*
X143287906Y-97513263D01*
X143265996Y-97529182D01*
X143138747Y-97621634D01*
X143134326Y-97626544D01*
X143134325Y-97626545D01*
X143081941Y-97684724D01*
X143010960Y-97763556D01*
X142991346Y-97797529D01*
X142944169Y-97879242D01*
X142915473Y-97928944D01*
X142856458Y-98110572D01*
X142855769Y-98117131D01*
X142855768Y-98117134D01*
X142838320Y-98283143D01*
X142811307Y-98348799D01*
X142753085Y-98389429D01*
X142682140Y-98392132D01*
X142620996Y-98356050D01*
X142608930Y-98340134D01*
X142608830Y-98340208D01*
X142605509Y-98335694D01*
X142602595Y-98330893D01*
X142595197Y-98322516D01*
X142595224Y-98322492D01*
X142592571Y-98319500D01*
X142589868Y-98316267D01*
X142585856Y-98310148D01*
X142529617Y-98256872D01*
X142527175Y-98254494D01*
X141833770Y-97561089D01*
X141821384Y-97546677D01*
X141812851Y-97535082D01*
X141812846Y-97535077D01*
X141808508Y-97529182D01*
X141802930Y-97524443D01*
X141802927Y-97524440D01*
X141768232Y-97494965D01*
X141760716Y-97488035D01*
X141755021Y-97482340D01*
X141734718Y-97466277D01*
X141732749Y-97464719D01*
X141729345Y-97461928D01*
X141679297Y-97419409D01*
X141679295Y-97419408D01*
X141673715Y-97414667D01*
X141667199Y-97411339D01*
X141662150Y-97407972D01*
X141657021Y-97404805D01*
X141651284Y-97400266D01*
X141585125Y-97369345D01*
X141581225Y-97367439D01*
X141580857Y-97367251D01*
X141516192Y-97334231D01*
X141509084Y-97332492D01*
X141503441Y-97330393D01*
X141497678Y-97328476D01*
X141491050Y-97325378D01*
X141419583Y-97310513D01*
X141415299Y-97309543D01*
X141344390Y-97292192D01*
X141338788Y-97291844D01*
X141338785Y-97291844D01*
X141333236Y-97291500D01*
X141333238Y-97291464D01*
X141329245Y-97291225D01*
X141325053Y-97290851D01*
X141317885Y-97289360D01*
X141251675Y-97291151D01*
X141240479Y-97291454D01*
X141237072Y-97291500D01*
X138042587Y-97291500D01*
X137968528Y-97267437D01*
X137962098Y-97262765D01*
X137962091Y-97262761D01*
X137956752Y-97258882D01*
X137950724Y-97256198D01*
X137950722Y-97256197D01*
X137788319Y-97183891D01*
X137788318Y-97183891D01*
X137782288Y-97181206D01*
X137663337Y-97155922D01*
X137601944Y-97142872D01*
X137601939Y-97142872D01*
X137595487Y-97141500D01*
X137404513Y-97141500D01*
X137398061Y-97142872D01*
X137398056Y-97142872D01*
X137336663Y-97155922D01*
X137217712Y-97181206D01*
X137211682Y-97183891D01*
X137211681Y-97183891D01*
X137049278Y-97256197D01*
X137049276Y-97256198D01*
X137043248Y-97258882D01*
X137037907Y-97262762D01*
X137037906Y-97262763D01*
X137037503Y-97263056D01*
X136888747Y-97371134D01*
X136884326Y-97376044D01*
X136884325Y-97376045D01*
X136766686Y-97506697D01*
X136760960Y-97513056D01*
X136708572Y-97603794D01*
X136686011Y-97642872D01*
X136665473Y-97678444D01*
X136663431Y-97684729D01*
X136658057Y-97701269D01*
X136617982Y-97759874D01*
X136552585Y-97787510D01*
X136482629Y-97775402D01*
X136464158Y-97764263D01*
X136463185Y-97763556D01*
X136456752Y-97758882D01*
X136450724Y-97756198D01*
X136450722Y-97756197D01*
X136288319Y-97683891D01*
X136288318Y-97683891D01*
X136282288Y-97681206D01*
X136188888Y-97661353D01*
X136101944Y-97642872D01*
X136101939Y-97642872D01*
X136095487Y-97641500D01*
X135904513Y-97641500D01*
X135898061Y-97642872D01*
X135898056Y-97642872D01*
X135811113Y-97661353D01*
X135717712Y-97681206D01*
X135711682Y-97683891D01*
X135711681Y-97683891D01*
X135549278Y-97756197D01*
X135549276Y-97756198D01*
X135543248Y-97758882D01*
X135537907Y-97762762D01*
X135537906Y-97762763D01*
X135520510Y-97775402D01*
X135388747Y-97871134D01*
X135384326Y-97876044D01*
X135384325Y-97876045D01*
X135281785Y-97989928D01*
X135260960Y-98013056D01*
X135165473Y-98178444D01*
X135106458Y-98360072D01*
X135105768Y-98366633D01*
X135105768Y-98366635D01*
X135093972Y-98478866D01*
X135086496Y-98550000D01*
X135087186Y-98556565D01*
X135104864Y-98724759D01*
X135106458Y-98739928D01*
X135165473Y-98921556D01*
X135168776Y-98927278D01*
X135168777Y-98927279D01*
X135202686Y-98986010D01*
X135260960Y-99086944D01*
X135265378Y-99091851D01*
X135265379Y-99091852D01*
X135378913Y-99217944D01*
X135388747Y-99228866D01*
X135543248Y-99341118D01*
X135549276Y-99343802D01*
X135549278Y-99343803D01*
X135711681Y-99416109D01*
X135717712Y-99418794D01*
X135811113Y-99438647D01*
X135898056Y-99457128D01*
X135898061Y-99457128D01*
X135904513Y-99458500D01*
X136095487Y-99458500D01*
X136101939Y-99457128D01*
X136101944Y-99457128D01*
X136188888Y-99438647D01*
X136282288Y-99418794D01*
X136288319Y-99416109D01*
X136450722Y-99343803D01*
X136450724Y-99343802D01*
X136456752Y-99341118D01*
X136611253Y-99228866D01*
X136621087Y-99217944D01*
X136734621Y-99091852D01*
X136734622Y-99091851D01*
X136739040Y-99086944D01*
X136797314Y-98986010D01*
X136831223Y-98927279D01*
X136831224Y-98927278D01*
X136834527Y-98921556D01*
X136841944Y-98898730D01*
X136882018Y-98840126D01*
X136947415Y-98812490D01*
X137017371Y-98824598D01*
X137035841Y-98835736D01*
X137043248Y-98841118D01*
X137049276Y-98843802D01*
X137049278Y-98843803D01*
X137207418Y-98914211D01*
X137217712Y-98918794D01*
X137311113Y-98938647D01*
X137398056Y-98957128D01*
X137398061Y-98957128D01*
X137404513Y-98958500D01*
X137595487Y-98958500D01*
X137601939Y-98957128D01*
X137601944Y-98957128D01*
X137688887Y-98938647D01*
X137782288Y-98918794D01*
X137792582Y-98914211D01*
X137950722Y-98843803D01*
X137950724Y-98843802D01*
X137956752Y-98841118D01*
X137962091Y-98837239D01*
X137962098Y-98837235D01*
X137968528Y-98832563D01*
X138042587Y-98808500D01*
X139531021Y-98808500D01*
X139599142Y-98828502D01*
X139645635Y-98882158D01*
X139655739Y-98952432D01*
X139650854Y-98973436D01*
X139606458Y-99110072D01*
X139605768Y-99116633D01*
X139605768Y-99116635D01*
X139594137Y-99227301D01*
X139586496Y-99300000D01*
X139587186Y-99306565D01*
X139603019Y-99457204D01*
X139606458Y-99489928D01*
X139665473Y-99671556D01*
X139668776Y-99677278D01*
X139668777Y-99677279D01*
X139686508Y-99707990D01*
X139760960Y-99836944D01*
X139765378Y-99841851D01*
X139765379Y-99841852D01*
X139826586Y-99909829D01*
X139888747Y-99978866D01*
X140043248Y-100091118D01*
X140049276Y-100093802D01*
X140049278Y-100093803D01*
X140211681Y-100166109D01*
X140217712Y-100168794D01*
X140224167Y-100170166D01*
X140224176Y-100170169D01*
X140280772Y-100182199D01*
X140343669Y-100216350D01*
X140368022Y-100240703D01*
X140402048Y-100303015D01*
X140396983Y-100373830D01*
X140372563Y-100414108D01*
X140278060Y-100519065D01*
X140260960Y-100538056D01*
X140165473Y-100703444D01*
X140106458Y-100885072D01*
X140105768Y-100891633D01*
X140105768Y-100891635D01*
X140100201Y-100944606D01*
X140086496Y-101075000D01*
X140087186Y-101081565D01*
X140098766Y-101191739D01*
X140106458Y-101264928D01*
X140165473Y-101446556D01*
X140168776Y-101452278D01*
X140168777Y-101452279D01*
X140188939Y-101487201D01*
X140260960Y-101611944D01*
X140265378Y-101616851D01*
X140265379Y-101616852D01*
X140315079Y-101672049D01*
X140388747Y-101753866D01*
X140425510Y-101780576D01*
X140511973Y-101843395D01*
X140543248Y-101866118D01*
X140549276Y-101868802D01*
X140549278Y-101868803D01*
X140711681Y-101941109D01*
X140717712Y-101943794D01*
X140811112Y-101963647D01*
X140898056Y-101982128D01*
X140898061Y-101982128D01*
X140904513Y-101983500D01*
X141095487Y-101983500D01*
X141101939Y-101982128D01*
X141101944Y-101982128D01*
X141188888Y-101963647D01*
X141282288Y-101943794D01*
X141288319Y-101941109D01*
X141450722Y-101868803D01*
X141450724Y-101868802D01*
X141456752Y-101866118D01*
X141488028Y-101843395D01*
X141574490Y-101780576D01*
X141611253Y-101753866D01*
X141650304Y-101710496D01*
X141710746Y-101673258D01*
X141781729Y-101674609D01*
X141833032Y-101705713D01*
X144166230Y-104038911D01*
X144178616Y-104053323D01*
X144187149Y-104064918D01*
X144187154Y-104064923D01*
X144191492Y-104070818D01*
X144197070Y-104075557D01*
X144197073Y-104075560D01*
X144231768Y-104105035D01*
X144239284Y-104111965D01*
X144244980Y-104117661D01*
X144247841Y-104119924D01*
X144247846Y-104119929D01*
X144267256Y-104135285D01*
X144270658Y-104138074D01*
X144291176Y-104155505D01*
X144326285Y-104185333D01*
X144332802Y-104188661D01*
X144337850Y-104192027D01*
X144342972Y-104195190D01*
X144348716Y-104199735D01*
X144414895Y-104230664D01*
X144418779Y-104232563D01*
X144483808Y-104265769D01*
X144490923Y-104267510D01*
X144496578Y-104269613D01*
X144502317Y-104271522D01*
X144508950Y-104274622D01*
X144580435Y-104289491D01*
X144584701Y-104290457D01*
X144655610Y-104307808D01*
X144661212Y-104308156D01*
X144661215Y-104308156D01*
X144666764Y-104308500D01*
X144666762Y-104308535D01*
X144670734Y-104308775D01*
X144674955Y-104309152D01*
X144682115Y-104310641D01*
X144759542Y-104308546D01*
X144762950Y-104308500D01*
X147182930Y-104308500D01*
X147201880Y-104309933D01*
X147216115Y-104312099D01*
X147216119Y-104312099D01*
X147223349Y-104313199D01*
X147230641Y-104312606D01*
X147230644Y-104312606D01*
X147276018Y-104308915D01*
X147286233Y-104308500D01*
X147294293Y-104308500D01*
X147311680Y-104306473D01*
X147322507Y-104305211D01*
X147326882Y-104304778D01*
X147392339Y-104299454D01*
X147392342Y-104299453D01*
X147399637Y-104298860D01*
X147406601Y-104296604D01*
X147412560Y-104295413D01*
X147418415Y-104294029D01*
X147425681Y-104293182D01*
X147494327Y-104268265D01*
X147498455Y-104266848D01*
X147560936Y-104246607D01*
X147560938Y-104246606D01*
X147567899Y-104244351D01*
X147574154Y-104240555D01*
X147579628Y-104238049D01*
X147585058Y-104235330D01*
X147591937Y-104232833D01*
X147621646Y-104213355D01*
X147652976Y-104192814D01*
X147656680Y-104190477D01*
X147719107Y-104152595D01*
X147727484Y-104145197D01*
X147727508Y-104145224D01*
X147730500Y-104142571D01*
X147733733Y-104139868D01*
X147739852Y-104135856D01*
X147793128Y-104079617D01*
X147795506Y-104077175D01*
X147946405Y-103926276D01*
X148008717Y-103892250D01*
X148079532Y-103897315D01*
X148136368Y-103939862D01*
X148161179Y-104006382D01*
X148161500Y-104015371D01*
X148161500Y-104405050D01*
X148141498Y-104473171D01*
X148124595Y-104494145D01*
X145817165Y-106801575D01*
X145754853Y-106835601D01*
X145684038Y-106830536D01*
X145627202Y-106787989D01*
X145608237Y-106751416D01*
X145605722Y-106743674D01*
X145584527Y-106678444D01*
X145577406Y-106666109D01*
X145534109Y-106591118D01*
X145489040Y-106513056D01*
X145468216Y-106489928D01*
X145365675Y-106376045D01*
X145365674Y-106376044D01*
X145361253Y-106371134D01*
X145206752Y-106258882D01*
X145200724Y-106256198D01*
X145200722Y-106256197D01*
X145038319Y-106183891D01*
X145038318Y-106183891D01*
X145032288Y-106181206D01*
X144938887Y-106161353D01*
X144851944Y-106142872D01*
X144851939Y-106142872D01*
X144845487Y-106141500D01*
X144654513Y-106141500D01*
X144648061Y-106142872D01*
X144648056Y-106142872D01*
X144561113Y-106161353D01*
X144467712Y-106181206D01*
X144461682Y-106183891D01*
X144461681Y-106183891D01*
X144299278Y-106256197D01*
X144299276Y-106256198D01*
X144293248Y-106258882D01*
X144138747Y-106371134D01*
X144134326Y-106376044D01*
X144134325Y-106376045D01*
X144031785Y-106489928D01*
X144010960Y-106513056D01*
X143965891Y-106591118D01*
X143922595Y-106666109D01*
X143915473Y-106678444D01*
X143913431Y-106684729D01*
X143859409Y-106850991D01*
X143856458Y-106860072D01*
X143844222Y-106976495D01*
X143843245Y-106985786D01*
X143816232Y-107051443D01*
X143807030Y-107061711D01*
X141592395Y-109276345D01*
X141583615Y-109284335D01*
X141583613Y-109284337D01*
X141576920Y-109288584D01*
X141571494Y-109294362D01*
X141571493Y-109294363D01*
X141528396Y-109340257D01*
X141525641Y-109343099D01*
X141505073Y-109363667D01*
X141502356Y-109367170D01*
X141494648Y-109376195D01*
X141463028Y-109409867D01*
X141459207Y-109416818D01*
X141459206Y-109416819D01*
X141452697Y-109428658D01*
X141441843Y-109445182D01*
X141435271Y-109453656D01*
X141428696Y-109462132D01*
X141425549Y-109469404D01*
X141425548Y-109469406D01*
X141410346Y-109504535D01*
X141405124Y-109515195D01*
X141382876Y-109555663D01*
X141377541Y-109576441D01*
X141371142Y-109595131D01*
X141362620Y-109614824D01*
X141360236Y-109629878D01*
X141355394Y-109660448D01*
X141352987Y-109672071D01*
X141346432Y-109697604D01*
X141341500Y-109716812D01*
X141341500Y-109738259D01*
X141339949Y-109757969D01*
X141336594Y-109779152D01*
X141337340Y-109787043D01*
X141340941Y-109825138D01*
X141341500Y-109836996D01*
X141341500Y-110423793D01*
X141321498Y-110491914D01*
X141267842Y-110538407D01*
X141197568Y-110548511D01*
X141132988Y-110519017D01*
X141095667Y-110462730D01*
X141086568Y-110434726D01*
X141084527Y-110428444D01*
X140989040Y-110263056D01*
X140968216Y-110239928D01*
X140865675Y-110126045D01*
X140865674Y-110126044D01*
X140861253Y-110121134D01*
X140749950Y-110040267D01*
X140712094Y-110012763D01*
X140712093Y-110012762D01*
X140706752Y-110008882D01*
X140700724Y-110006198D01*
X140700722Y-110006197D01*
X140538319Y-109933891D01*
X140538318Y-109933891D01*
X140532288Y-109931206D01*
X140438888Y-109911353D01*
X140351944Y-109892872D01*
X140351939Y-109892872D01*
X140345487Y-109891500D01*
X140154513Y-109891500D01*
X140148061Y-109892872D01*
X140148056Y-109892872D01*
X140061113Y-109911353D01*
X139967712Y-109931206D01*
X139961682Y-109933891D01*
X139961681Y-109933891D01*
X139799278Y-110006197D01*
X139799276Y-110006198D01*
X139793248Y-110008882D01*
X139787907Y-110012762D01*
X139787906Y-110012763D01*
X139750050Y-110040267D01*
X139638747Y-110121134D01*
X139634326Y-110126044D01*
X139634325Y-110126045D01*
X139531785Y-110239928D01*
X139510960Y-110263056D01*
X139415473Y-110428444D01*
X139356458Y-110610072D01*
X139355768Y-110616633D01*
X139355768Y-110616635D01*
X139342810Y-110739928D01*
X139336496Y-110800000D01*
X139337186Y-110806565D01*
X139343908Y-110870517D01*
X139356458Y-110989928D01*
X139415473Y-111171556D01*
X139418776Y-111177278D01*
X139418777Y-111177279D01*
X139438069Y-111210694D01*
X139510960Y-111336944D01*
X139537955Y-111366925D01*
X139568671Y-111430931D01*
X139559906Y-111501384D01*
X139533412Y-111540329D01*
X139122792Y-111950948D01*
X139060480Y-111984973D01*
X138989664Y-111979908D01*
X138932829Y-111937361D01*
X138908018Y-111870841D01*
X138908387Y-111848681D01*
X138912814Y-111806564D01*
X138913504Y-111800000D01*
X138893542Y-111610072D01*
X138834527Y-111428444D01*
X138817651Y-111399213D01*
X138794167Y-111358539D01*
X138739040Y-111263056D01*
X138697179Y-111216564D01*
X138615675Y-111126045D01*
X138615674Y-111126044D01*
X138611253Y-111121134D01*
X138456752Y-111008882D01*
X138450724Y-111006198D01*
X138450722Y-111006197D01*
X138288319Y-110933891D01*
X138288318Y-110933891D01*
X138282288Y-110931206D01*
X138188887Y-110911353D01*
X138101944Y-110892872D01*
X138101939Y-110892872D01*
X138095487Y-110891500D01*
X137904513Y-110891500D01*
X137898061Y-110892872D01*
X137898056Y-110892872D01*
X137811113Y-110911353D01*
X137717712Y-110931206D01*
X137711682Y-110933891D01*
X137711681Y-110933891D01*
X137549278Y-111006197D01*
X137549276Y-111006198D01*
X137543248Y-111008882D01*
X137388747Y-111121134D01*
X137384326Y-111126044D01*
X137384325Y-111126045D01*
X137302822Y-111216564D01*
X137260960Y-111263056D01*
X137234119Y-111309546D01*
X137182737Y-111358539D01*
X137113023Y-111371975D01*
X137047112Y-111345589D01*
X137015881Y-111309546D01*
X136989040Y-111263056D01*
X136947179Y-111216564D01*
X136865675Y-111126045D01*
X136865674Y-111126044D01*
X136861253Y-111121134D01*
X136706752Y-111008882D01*
X136700724Y-111006198D01*
X136700722Y-111006197D01*
X136538319Y-110933891D01*
X136538318Y-110933891D01*
X136532288Y-110931206D01*
X136438887Y-110911353D01*
X136351944Y-110892872D01*
X136351939Y-110892872D01*
X136345487Y-110891500D01*
X136154513Y-110891500D01*
X136148061Y-110892872D01*
X136148056Y-110892872D01*
X136061113Y-110911353D01*
X135967712Y-110931206D01*
X135961682Y-110933891D01*
X135961681Y-110933891D01*
X135799278Y-111006197D01*
X135799276Y-111006198D01*
X135793248Y-111008882D01*
X135638747Y-111121134D01*
X135634326Y-111126044D01*
X135634325Y-111126045D01*
X135552822Y-111216564D01*
X135510960Y-111263056D01*
X135455833Y-111358539D01*
X135432350Y-111399213D01*
X135415473Y-111428444D01*
X135356458Y-111610072D01*
X135336496Y-111800000D01*
X135337186Y-111806564D01*
X135337186Y-111806565D01*
X135350601Y-111934198D01*
X135356458Y-111989928D01*
X135415473Y-112171556D01*
X135510960Y-112336944D01*
X135515378Y-112341851D01*
X135515379Y-112341852D01*
X135556812Y-112387868D01*
X135638747Y-112478866D01*
X135793248Y-112591118D01*
X135799276Y-112593802D01*
X135799278Y-112593803D01*
X135817294Y-112601824D01*
X135967712Y-112668794D01*
X136061112Y-112688647D01*
X136148056Y-112707128D01*
X136148061Y-112707128D01*
X136154513Y-112708500D01*
X136345487Y-112708500D01*
X136351939Y-112707128D01*
X136351944Y-112707128D01*
X136438888Y-112688647D01*
X136532288Y-112668794D01*
X136682706Y-112601824D01*
X136700722Y-112593803D01*
X136700724Y-112593802D01*
X136706752Y-112591118D01*
X136861253Y-112478866D01*
X136943188Y-112387868D01*
X136984621Y-112341852D01*
X136984622Y-112341851D01*
X136989040Y-112336944D01*
X137015881Y-112290454D01*
X137067263Y-112241461D01*
X137136977Y-112228025D01*
X137202888Y-112254411D01*
X137234119Y-112290454D01*
X137260960Y-112336944D01*
X137265378Y-112341851D01*
X137265379Y-112341852D01*
X137306812Y-112387868D01*
X137388747Y-112478866D01*
X137543248Y-112591118D01*
X137549276Y-112593802D01*
X137549278Y-112593803D01*
X137567294Y-112601824D01*
X137717712Y-112668794D01*
X137811112Y-112688647D01*
X137898056Y-112707128D01*
X137898061Y-112707128D01*
X137904513Y-112708500D01*
X138061051Y-112708500D01*
X138129172Y-112728502D01*
X138175665Y-112782158D01*
X138185769Y-112852432D01*
X138156275Y-112917012D01*
X138150146Y-112923595D01*
X135632336Y-115441405D01*
X135570024Y-115475431D01*
X135521145Y-115476357D01*
X135338373Y-115443800D01*
X135338367Y-115443799D01*
X135333284Y-115442894D01*
X135259452Y-115441992D01*
X135115081Y-115440228D01*
X135115079Y-115440228D01*
X135109911Y-115440165D01*
X134889091Y-115473955D01*
X134676756Y-115543357D01*
X134478607Y-115646507D01*
X134474474Y-115649610D01*
X134474471Y-115649612D01*
X134331237Y-115757155D01*
X134299965Y-115780635D01*
X134145629Y-115942138D01*
X134142720Y-115946403D01*
X134142714Y-115946411D01*
X134130404Y-115964457D01*
X134038204Y-116099618D01*
X134037898Y-116100066D01*
X133982987Y-116145069D01*
X133912462Y-116153240D01*
X133848715Y-116121986D01*
X133828018Y-116097502D01*
X133747426Y-115972926D01*
X133741136Y-115964757D01*
X133597806Y-115807240D01*
X133590273Y-115800215D01*
X133423139Y-115668222D01*
X133414552Y-115662517D01*
X133228117Y-115559599D01*
X133218705Y-115555369D01*
X133017959Y-115484280D01*
X133007988Y-115481646D01*
X132936837Y-115468972D01*
X132923540Y-115470432D01*
X132919000Y-115484989D01*
X132919000Y-118118517D01*
X132411000Y-118118517D01*
X132411000Y-117072115D01*
X132406525Y-117056876D01*
X132405135Y-117055671D01*
X132397452Y-117054000D01*
X131348225Y-117054000D01*
X131334694Y-117057973D01*
X131333257Y-117067966D01*
X129708486Y-117067966D01*
X129708452Y-116534183D01*
X131329389Y-116534183D01*
X131330912Y-116542607D01*
X131343292Y-116546000D01*
X132392885Y-116546000D01*
X132408124Y-116541525D01*
X132409329Y-116540135D01*
X132411000Y-116532452D01*
X132411000Y-115483102D01*
X132407082Y-115469758D01*
X132392806Y-115467771D01*
X132354324Y-115473660D01*
X132344288Y-115476051D01*
X132141868Y-115542212D01*
X132132359Y-115546209D01*
X131943463Y-115644542D01*
X131934738Y-115650036D01*
X131764433Y-115777905D01*
X131756726Y-115784748D01*
X131609590Y-115938717D01*
X131603104Y-115946727D01*
X131483098Y-116122649D01*
X131478000Y-116131623D01*
X131388338Y-116324783D01*
X131384775Y-116334470D01*
X131329389Y-116534183D01*
X129708452Y-116534183D01*
X129707792Y-106254568D01*
X130137382Y-106254568D01*
X130166208Y-106503699D01*
X130167587Y-106508573D01*
X130167588Y-106508577D01*
X130224161Y-106708500D01*
X130234494Y-106745017D01*
X130236628Y-106749592D01*
X130236630Y-106749599D01*
X130338347Y-106967731D01*
X130340484Y-106972313D01*
X130343326Y-106976494D01*
X130343326Y-106976495D01*
X130478605Y-107175552D01*
X130478608Y-107175556D01*
X130481451Y-107179739D01*
X130484928Y-107183416D01*
X130484929Y-107183417D01*
X130585238Y-107289491D01*
X130653767Y-107361959D01*
X130657793Y-107365037D01*
X130657794Y-107365038D01*
X130848981Y-107511212D01*
X130848985Y-107511215D01*
X130853001Y-107514285D01*
X131074026Y-107632797D01*
X131078807Y-107634443D01*
X131078811Y-107634445D01*
X131279015Y-107703381D01*
X131311156Y-107714448D01*
X131414689Y-107732331D01*
X131554380Y-107756460D01*
X131554386Y-107756461D01*
X131558290Y-107757135D01*
X131562251Y-107757315D01*
X131562252Y-107757315D01*
X131586931Y-107758436D01*
X131586950Y-107758436D01*
X131588350Y-107758500D01*
X131763015Y-107758500D01*
X131765523Y-107758298D01*
X131765528Y-107758298D01*
X131944944Y-107743863D01*
X131944949Y-107743862D01*
X131949985Y-107743457D01*
X131954893Y-107742252D01*
X131954896Y-107742251D01*
X132188625Y-107684841D01*
X132193539Y-107683634D01*
X132198191Y-107681659D01*
X132198195Y-107681658D01*
X132419741Y-107587617D01*
X132419742Y-107587617D01*
X132424396Y-107585641D01*
X132636615Y-107452000D01*
X132824738Y-107286147D01*
X132983924Y-107092351D01*
X133110078Y-106875596D01*
X133118448Y-106853793D01*
X133174221Y-106708500D01*
X133199955Y-106641461D01*
X133209912Y-106593803D01*
X133250206Y-106400921D01*
X133251241Y-106395967D01*
X133253496Y-106346321D01*
X133257662Y-106254568D01*
X133262618Y-106145432D01*
X133259428Y-106117856D01*
X133238783Y-105939437D01*
X133233792Y-105896301D01*
X133208400Y-105806565D01*
X133166884Y-105659852D01*
X133166883Y-105659850D01*
X133165506Y-105654983D01*
X133163372Y-105650408D01*
X133163370Y-105650401D01*
X133061653Y-105432269D01*
X133061651Y-105432265D01*
X133059516Y-105427687D01*
X133049753Y-105413321D01*
X132921395Y-105224448D01*
X132921392Y-105224444D01*
X132918549Y-105220261D01*
X132817925Y-105113853D01*
X132749713Y-105041721D01*
X132746233Y-105038041D01*
X132742206Y-105034962D01*
X132551019Y-104888788D01*
X132551015Y-104888785D01*
X132546999Y-104885715D01*
X132325974Y-104767203D01*
X132321193Y-104765557D01*
X132321189Y-104765555D01*
X132093633Y-104687201D01*
X132088844Y-104685552D01*
X131956260Y-104662651D01*
X131845620Y-104643540D01*
X131845614Y-104643539D01*
X131841710Y-104642865D01*
X131837749Y-104642685D01*
X131837748Y-104642685D01*
X131813069Y-104641564D01*
X131813050Y-104641564D01*
X131811650Y-104641500D01*
X131636985Y-104641500D01*
X131634477Y-104641702D01*
X131634472Y-104641702D01*
X131455056Y-104656137D01*
X131455051Y-104656138D01*
X131450015Y-104656543D01*
X131445107Y-104657748D01*
X131445104Y-104657749D01*
X131289730Y-104695913D01*
X131206461Y-104716366D01*
X131201809Y-104718341D01*
X131201805Y-104718342D01*
X130982537Y-104811416D01*
X130975604Y-104814359D01*
X130971320Y-104817057D01*
X130811660Y-104917600D01*
X130763385Y-104948000D01*
X130575262Y-105113853D01*
X130416076Y-105307649D01*
X130289922Y-105524404D01*
X130288109Y-105529127D01*
X130288108Y-105529129D01*
X130263282Y-105593803D01*
X130200045Y-105758539D01*
X130199012Y-105763485D01*
X130199010Y-105763491D01*
X130172284Y-105891423D01*
X130148759Y-106004033D01*
X130148530Y-106009082D01*
X130148529Y-106009088D01*
X130146371Y-106056613D01*
X130137382Y-106254568D01*
X129707792Y-106254568D01*
X129707526Y-102107966D01*
X130418257Y-102107966D01*
X130448565Y-102242446D01*
X130451645Y-102252275D01*
X130531770Y-102449603D01*
X130536413Y-102458794D01*
X130647694Y-102640388D01*
X130653777Y-102648699D01*
X130793213Y-102809667D01*
X130800580Y-102816883D01*
X130964434Y-102952916D01*
X130972881Y-102958831D01*
X131156756Y-103066279D01*
X131166042Y-103070729D01*
X131365001Y-103146703D01*
X131374899Y-103149579D01*
X131478250Y-103170606D01*
X131492299Y-103169410D01*
X131496000Y-103159065D01*
X131496000Y-103158517D01*
X132004000Y-103158517D01*
X132008064Y-103172359D01*
X132021478Y-103174393D01*
X132028184Y-103173534D01*
X132038262Y-103171392D01*
X132242255Y-103110191D01*
X132251842Y-103106433D01*
X132443095Y-103012739D01*
X132451945Y-103007464D01*
X132625328Y-102883792D01*
X132633200Y-102877139D01*
X132784052Y-102726812D01*
X132790730Y-102718965D01*
X132915003Y-102546020D01*
X132920313Y-102537183D01*
X133014670Y-102346267D01*
X133018469Y-102336672D01*
X133080377Y-102132910D01*
X133082555Y-102122837D01*
X133083986Y-102111962D01*
X133081775Y-102097778D01*
X133068617Y-102094000D01*
X132022115Y-102094000D01*
X132006876Y-102098475D01*
X132005671Y-102099865D01*
X132004000Y-102107548D01*
X132004000Y-103158517D01*
X131496000Y-103158517D01*
X131496000Y-102112115D01*
X131491525Y-102096876D01*
X131490135Y-102095671D01*
X131482452Y-102094000D01*
X130433225Y-102094000D01*
X130419694Y-102097973D01*
X130418257Y-102107966D01*
X129707526Y-102107966D01*
X129707343Y-99266695D01*
X130387251Y-99266695D01*
X130387548Y-99271848D01*
X130387548Y-99271851D01*
X130393011Y-99366590D01*
X130400110Y-99489715D01*
X130401247Y-99494761D01*
X130401248Y-99494767D01*
X130407549Y-99522724D01*
X130449222Y-99707639D01*
X130501727Y-99836944D01*
X130516494Y-99873310D01*
X130533266Y-99914616D01*
X130535965Y-99919020D01*
X130643072Y-100093803D01*
X130649987Y-100105088D01*
X130796250Y-100273938D01*
X130968126Y-100416632D01*
X131041955Y-100459774D01*
X131090679Y-100511412D01*
X131103750Y-100581195D01*
X131077019Y-100646967D01*
X131036562Y-100680327D01*
X131028457Y-100684546D01*
X131019738Y-100690036D01*
X130849433Y-100817905D01*
X130841726Y-100824748D01*
X130694590Y-100978717D01*
X130688104Y-100986727D01*
X130568098Y-101162649D01*
X130563000Y-101171623D01*
X130473338Y-101364783D01*
X130469775Y-101374470D01*
X130414389Y-101574183D01*
X130415912Y-101582607D01*
X130428292Y-101586000D01*
X133068344Y-101586000D01*
X133081875Y-101582027D01*
X133083180Y-101572947D01*
X133041214Y-101405875D01*
X133037894Y-101396124D01*
X132952972Y-101200814D01*
X132948105Y-101191739D01*
X132832426Y-101012926D01*
X132826136Y-101004757D01*
X132682806Y-100847240D01*
X132675273Y-100840215D01*
X132508139Y-100708222D01*
X132499556Y-100702520D01*
X132462602Y-100682120D01*
X132412631Y-100631687D01*
X132397859Y-100562245D01*
X132422975Y-100495839D01*
X132450327Y-100469232D01*
X132498281Y-100435027D01*
X132629860Y-100341173D01*
X132666946Y-100304217D01*
X132784435Y-100187137D01*
X132788096Y-100183489D01*
X132798656Y-100168794D01*
X132915435Y-100006277D01*
X132918453Y-100002077D01*
X132928006Y-99982749D01*
X133015136Y-99806453D01*
X133015137Y-99806451D01*
X133017430Y-99801811D01*
X133067627Y-99636594D01*
X133080865Y-99593023D01*
X133080865Y-99593021D01*
X133082370Y-99588069D01*
X133111529Y-99366590D01*
X133111892Y-99351727D01*
X133113074Y-99303365D01*
X133113074Y-99303361D01*
X133113156Y-99300000D01*
X133094852Y-99077361D01*
X133040431Y-98860702D01*
X132951354Y-98655840D01*
X132844344Y-98490428D01*
X132832822Y-98472617D01*
X132832820Y-98472614D01*
X132830014Y-98468277D01*
X132679670Y-98303051D01*
X132675619Y-98299852D01*
X132675615Y-98299848D01*
X132508414Y-98167800D01*
X132508410Y-98167798D01*
X132504359Y-98164598D01*
X132463053Y-98141796D01*
X132413084Y-98091364D01*
X132398312Y-98021921D01*
X132423428Y-97955516D01*
X132450780Y-97928909D01*
X132494603Y-97897650D01*
X132629860Y-97801173D01*
X132668405Y-97762763D01*
X132746717Y-97684724D01*
X132788096Y-97643489D01*
X132792237Y-97637727D01*
X132915435Y-97466277D01*
X132918453Y-97462077D01*
X132934142Y-97430334D01*
X133015136Y-97266453D01*
X133015137Y-97266451D01*
X133017430Y-97261811D01*
X133082370Y-97048069D01*
X133111529Y-96826590D01*
X133111611Y-96823240D01*
X133113074Y-96763365D01*
X133113074Y-96763361D01*
X133113156Y-96760000D01*
X133094852Y-96537361D01*
X133040431Y-96320702D01*
X133031429Y-96300000D01*
X141836496Y-96300000D01*
X141837186Y-96306565D01*
X141844970Y-96380621D01*
X141856458Y-96489928D01*
X141915473Y-96671556D01*
X142010960Y-96836944D01*
X142015378Y-96841851D01*
X142015379Y-96841852D01*
X142080688Y-96914385D01*
X142138747Y-96978866D01*
X142293248Y-97091118D01*
X142299276Y-97093802D01*
X142299278Y-97093803D01*
X142449840Y-97160837D01*
X142467712Y-97168794D01*
X142561113Y-97188647D01*
X142648056Y-97207128D01*
X142648061Y-97207128D01*
X142654513Y-97208500D01*
X142845487Y-97208500D01*
X142851939Y-97207128D01*
X142851944Y-97207128D01*
X142938887Y-97188647D01*
X143032288Y-97168794D01*
X143050160Y-97160837D01*
X143200722Y-97093803D01*
X143200724Y-97093802D01*
X143206752Y-97091118D01*
X143361253Y-96978866D01*
X143419312Y-96914385D01*
X143484621Y-96841852D01*
X143484622Y-96841851D01*
X143489040Y-96836944D01*
X143584527Y-96671556D01*
X143643542Y-96489928D01*
X143655031Y-96380621D01*
X143662814Y-96306565D01*
X143663504Y-96300000D01*
X143649432Y-96166109D01*
X143644232Y-96116635D01*
X143644232Y-96116633D01*
X143643542Y-96110072D01*
X143584527Y-95928444D01*
X143489040Y-95763056D01*
X143361253Y-95621134D01*
X143227241Y-95523768D01*
X143212094Y-95512763D01*
X143212093Y-95512762D01*
X143206752Y-95508882D01*
X143200724Y-95506198D01*
X143200722Y-95506197D01*
X143038319Y-95433891D01*
X143038318Y-95433891D01*
X143032288Y-95431206D01*
X142938887Y-95411353D01*
X142851944Y-95392872D01*
X142851939Y-95392872D01*
X142845487Y-95391500D01*
X142654513Y-95391500D01*
X142648061Y-95392872D01*
X142648056Y-95392872D01*
X142561112Y-95411353D01*
X142467712Y-95431206D01*
X142461682Y-95433891D01*
X142461681Y-95433891D01*
X142299278Y-95506197D01*
X142299276Y-95506198D01*
X142293248Y-95508882D01*
X142287907Y-95512762D01*
X142287906Y-95512763D01*
X142272759Y-95523768D01*
X142138747Y-95621134D01*
X142010960Y-95763056D01*
X141915473Y-95928444D01*
X141856458Y-96110072D01*
X141855768Y-96116633D01*
X141855768Y-96116635D01*
X141850568Y-96166109D01*
X141836496Y-96300000D01*
X133031429Y-96300000D01*
X132951354Y-96115840D01*
X132879117Y-96004179D01*
X132832822Y-95932617D01*
X132832820Y-95932614D01*
X132830014Y-95928277D01*
X132826532Y-95924450D01*
X132682798Y-95766488D01*
X132651746Y-95702642D01*
X132660141Y-95632143D01*
X132705317Y-95577375D01*
X132731761Y-95563706D01*
X132838297Y-95523767D01*
X132846705Y-95520615D01*
X132963261Y-95433261D01*
X133050615Y-95316705D01*
X133101745Y-95180316D01*
X133108500Y-95118134D01*
X133108500Y-93321866D01*
X133106125Y-93300000D01*
X135086496Y-93300000D01*
X135087186Y-93306565D01*
X135104947Y-93475548D01*
X135106458Y-93489928D01*
X135165473Y-93671556D01*
X135260960Y-93836944D01*
X135265378Y-93841851D01*
X135265379Y-93841852D01*
X135382958Y-93972437D01*
X135388747Y-93978866D01*
X135543248Y-94091118D01*
X135549276Y-94093802D01*
X135549278Y-94093803D01*
X135691505Y-94157126D01*
X135717712Y-94168794D01*
X135811112Y-94188647D01*
X135898056Y-94207128D01*
X135898061Y-94207128D01*
X135904513Y-94208500D01*
X136095487Y-94208500D01*
X136101939Y-94207128D01*
X136101944Y-94207128D01*
X136188887Y-94188647D01*
X136282288Y-94168794D01*
X136308495Y-94157126D01*
X136450722Y-94093803D01*
X136450724Y-94093802D01*
X136456752Y-94091118D01*
X136513346Y-94050000D01*
X143086496Y-94050000D01*
X143087186Y-94056565D01*
X143104571Y-94221971D01*
X143106458Y-94239928D01*
X143165473Y-94421556D01*
X143168776Y-94427278D01*
X143168777Y-94427279D01*
X143186284Y-94457601D01*
X143260960Y-94586944D01*
X143265378Y-94591851D01*
X143265379Y-94591852D01*
X143343723Y-94678862D01*
X143388747Y-94728866D01*
X143543248Y-94841118D01*
X143549276Y-94843802D01*
X143549278Y-94843803D01*
X143711681Y-94916109D01*
X143717712Y-94918794D01*
X143792680Y-94934729D01*
X143898056Y-94957128D01*
X143898061Y-94957128D01*
X143904513Y-94958500D01*
X143983784Y-94958500D01*
X144051905Y-94978502D01*
X144098398Y-95032158D01*
X144108502Y-95102432D01*
X144107971Y-95105416D01*
X144106458Y-95110072D01*
X144086496Y-95300000D01*
X144106458Y-95489928D01*
X144165473Y-95671556D01*
X144168776Y-95677278D01*
X144168777Y-95677279D01*
X144195652Y-95723828D01*
X144260960Y-95836944D01*
X144265378Y-95841851D01*
X144265379Y-95841852D01*
X144366442Y-95954094D01*
X144388747Y-95978866D01*
X144482632Y-96047078D01*
X144537140Y-96086680D01*
X144543248Y-96091118D01*
X144549276Y-96093802D01*
X144549278Y-96093803D01*
X144635203Y-96132059D01*
X144717712Y-96168794D01*
X144811112Y-96188647D01*
X144898056Y-96207128D01*
X144898061Y-96207128D01*
X144904513Y-96208500D01*
X145095487Y-96208500D01*
X145101939Y-96207128D01*
X145101944Y-96207128D01*
X145188887Y-96188647D01*
X145282288Y-96168794D01*
X145364797Y-96132059D01*
X145450722Y-96093803D01*
X145450724Y-96093802D01*
X145456752Y-96091118D01*
X145462861Y-96086680D01*
X145517368Y-96047078D01*
X145611253Y-95978866D01*
X145633558Y-95954094D01*
X145734621Y-95841852D01*
X145734622Y-95841851D01*
X145739040Y-95836944D01*
X145804348Y-95723828D01*
X145831223Y-95677279D01*
X145831224Y-95677278D01*
X145834527Y-95671556D01*
X145893542Y-95489928D01*
X145913504Y-95300000D01*
X145900099Y-95172460D01*
X145894232Y-95116635D01*
X145894232Y-95116633D01*
X145893542Y-95110072D01*
X145834527Y-94928444D01*
X145827406Y-94916109D01*
X145784109Y-94841118D01*
X145739040Y-94763056D01*
X145711752Y-94732749D01*
X145615675Y-94626045D01*
X145615674Y-94626044D01*
X145611253Y-94621134D01*
X145456752Y-94508882D01*
X145450724Y-94506198D01*
X145450722Y-94506197D01*
X145288319Y-94433891D01*
X145288318Y-94433891D01*
X145282288Y-94431206D01*
X145188887Y-94411353D01*
X145101944Y-94392872D01*
X145101939Y-94392872D01*
X145095487Y-94391500D01*
X145016216Y-94391500D01*
X144948095Y-94371498D01*
X144901602Y-94317842D01*
X144891498Y-94247568D01*
X144892029Y-94244584D01*
X144893542Y-94239928D01*
X144913504Y-94050000D01*
X144906028Y-93978866D01*
X144894232Y-93866635D01*
X144894232Y-93866633D01*
X144893542Y-93860072D01*
X144834527Y-93678444D01*
X144739040Y-93513056D01*
X144725412Y-93497920D01*
X144615675Y-93376045D01*
X144615674Y-93376044D01*
X144611253Y-93371134D01*
X144456752Y-93258882D01*
X144450724Y-93256198D01*
X144450722Y-93256197D01*
X144288319Y-93183891D01*
X144288318Y-93183891D01*
X144282288Y-93181206D01*
X144188888Y-93161353D01*
X144101944Y-93142872D01*
X144101939Y-93142872D01*
X144095487Y-93141500D01*
X143904513Y-93141500D01*
X143898061Y-93142872D01*
X143898056Y-93142872D01*
X143811112Y-93161353D01*
X143717712Y-93181206D01*
X143711682Y-93183891D01*
X143711681Y-93183891D01*
X143549278Y-93256197D01*
X143549276Y-93256198D01*
X143543248Y-93258882D01*
X143388747Y-93371134D01*
X143384326Y-93376044D01*
X143384325Y-93376045D01*
X143274589Y-93497920D01*
X143260960Y-93513056D01*
X143165473Y-93678444D01*
X143106458Y-93860072D01*
X143105768Y-93866633D01*
X143105768Y-93866635D01*
X143093972Y-93978866D01*
X143086496Y-94050000D01*
X136513346Y-94050000D01*
X136611253Y-93978866D01*
X136617042Y-93972437D01*
X136734621Y-93841852D01*
X136734622Y-93841851D01*
X136739040Y-93836944D01*
X136834527Y-93671556D01*
X136893542Y-93489928D01*
X136895054Y-93475548D01*
X136912814Y-93306565D01*
X136913504Y-93300000D01*
X136907190Y-93239928D01*
X136894232Y-93116635D01*
X136894232Y-93116633D01*
X136893542Y-93110072D01*
X136834527Y-92928444D01*
X136739040Y-92763056D01*
X136611253Y-92621134D01*
X136456752Y-92508882D01*
X136450724Y-92506198D01*
X136450722Y-92506197D01*
X136288319Y-92433891D01*
X136288318Y-92433891D01*
X136282288Y-92431206D01*
X136188887Y-92411353D01*
X136101944Y-92392872D01*
X136101939Y-92392872D01*
X136095487Y-92391500D01*
X135904513Y-92391500D01*
X135898061Y-92392872D01*
X135898056Y-92392872D01*
X135811113Y-92411353D01*
X135717712Y-92431206D01*
X135711682Y-92433891D01*
X135711681Y-92433891D01*
X135549278Y-92506197D01*
X135549276Y-92506198D01*
X135543248Y-92508882D01*
X135388747Y-92621134D01*
X135260960Y-92763056D01*
X135165473Y-92928444D01*
X135106458Y-93110072D01*
X135105768Y-93116633D01*
X135105768Y-93116635D01*
X135092810Y-93239928D01*
X135086496Y-93300000D01*
X133106125Y-93300000D01*
X133101745Y-93259684D01*
X133050615Y-93123295D01*
X132963261Y-93006739D01*
X132846705Y-92919385D01*
X132710316Y-92868255D01*
X132648134Y-92861500D01*
X130851866Y-92861500D01*
X130789684Y-92868255D01*
X130653295Y-92919385D01*
X130536739Y-93006739D01*
X130449385Y-93123295D01*
X130398255Y-93259684D01*
X130391500Y-93321866D01*
X130391500Y-95118134D01*
X130398255Y-95180316D01*
X130449385Y-95316705D01*
X130536739Y-95433261D01*
X130653295Y-95520615D01*
X130661704Y-95523767D01*
X130661705Y-95523768D01*
X130770451Y-95564535D01*
X130827216Y-95607176D01*
X130851916Y-95673738D01*
X130836709Y-95743087D01*
X130817316Y-95769568D01*
X130707068Y-95884936D01*
X130690629Y-95902138D01*
X130564743Y-96086680D01*
X130470688Y-96289305D01*
X130410989Y-96504570D01*
X130387251Y-96726695D01*
X130387548Y-96731848D01*
X130387548Y-96731851D01*
X130397248Y-96900078D01*
X130400110Y-96949715D01*
X130401247Y-96954761D01*
X130401248Y-96954767D01*
X130417591Y-97027285D01*
X130449222Y-97167639D01*
X130533266Y-97374616D01*
X130535965Y-97379020D01*
X130643404Y-97554345D01*
X130649987Y-97565088D01*
X130796250Y-97733938D01*
X130877235Y-97801173D01*
X130956827Y-97867251D01*
X130968126Y-97876632D01*
X131038595Y-97917811D01*
X131041445Y-97919476D01*
X131090169Y-97971114D01*
X131103240Y-98040897D01*
X131076509Y-98106669D01*
X131036055Y-98140027D01*
X131023607Y-98146507D01*
X131019474Y-98149610D01*
X131019471Y-98149612D01*
X130878147Y-98255721D01*
X130844965Y-98280635D01*
X130804943Y-98322516D01*
X130704829Y-98427279D01*
X130690629Y-98442138D01*
X130687715Y-98446410D01*
X130687714Y-98446411D01*
X130650079Y-98501582D01*
X130564743Y-98626680D01*
X130544558Y-98670166D01*
X130472922Y-98824493D01*
X130470688Y-98829305D01*
X130410989Y-99044570D01*
X130387251Y-99266695D01*
X129707343Y-99266695D01*
X129706896Y-92300000D01*
X140086496Y-92300000D01*
X140087186Y-92306565D01*
X140094489Y-92376045D01*
X140106458Y-92489928D01*
X140165473Y-92671556D01*
X140260960Y-92836944D01*
X140265378Y-92841851D01*
X140265379Y-92841852D01*
X140384325Y-92973955D01*
X140388747Y-92978866D01*
X140543248Y-93091118D01*
X140549276Y-93093802D01*
X140549278Y-93093803D01*
X140656408Y-93141500D01*
X140717712Y-93168794D01*
X140811113Y-93188647D01*
X140898056Y-93207128D01*
X140898061Y-93207128D01*
X140904513Y-93208500D01*
X141095487Y-93208500D01*
X141101939Y-93207128D01*
X141101944Y-93207128D01*
X141188888Y-93188647D01*
X141282288Y-93168794D01*
X141343592Y-93141500D01*
X141450722Y-93093803D01*
X141450724Y-93093802D01*
X141456752Y-93091118D01*
X141611253Y-92978866D01*
X141615675Y-92973955D01*
X141734621Y-92841852D01*
X141734622Y-92841851D01*
X141739040Y-92836944D01*
X141834527Y-92671556D01*
X141893542Y-92489928D01*
X141905512Y-92376045D01*
X141912814Y-92306565D01*
X141913504Y-92300000D01*
X141901301Y-92183891D01*
X141894232Y-92116635D01*
X141894232Y-92116633D01*
X141893542Y-92110072D01*
X141834527Y-91928444D01*
X141739040Y-91763056D01*
X141611253Y-91621134D01*
X141456752Y-91508882D01*
X141450724Y-91506198D01*
X141450722Y-91506197D01*
X141288319Y-91433891D01*
X141288318Y-91433891D01*
X141282288Y-91431206D01*
X141188887Y-91411353D01*
X141101944Y-91392872D01*
X141101939Y-91392872D01*
X141095487Y-91391500D01*
X140904513Y-91391500D01*
X140898061Y-91392872D01*
X140898056Y-91392872D01*
X140811113Y-91411353D01*
X140717712Y-91431206D01*
X140711682Y-91433891D01*
X140711681Y-91433891D01*
X140549278Y-91506197D01*
X140549276Y-91506198D01*
X140543248Y-91508882D01*
X140388747Y-91621134D01*
X140260960Y-91763056D01*
X140165473Y-91928444D01*
X140106458Y-92110072D01*
X140105768Y-92116633D01*
X140105768Y-92116635D01*
X140098699Y-92183891D01*
X140086496Y-92300000D01*
X129706896Y-92300000D01*
X129706694Y-89147064D01*
X136137707Y-89147064D01*
X136166825Y-89339599D01*
X136169028Y-89345585D01*
X136169029Y-89345591D01*
X136231860Y-89516360D01*
X136231862Y-89516365D01*
X136234063Y-89522346D01*
X136336674Y-89687840D01*
X136341055Y-89692473D01*
X136341056Y-89692474D01*
X136449240Y-89806876D01*
X136470466Y-89829322D01*
X136629975Y-89941011D01*
X136635838Y-89943548D01*
X136802825Y-90015810D01*
X136802829Y-90015811D01*
X136808684Y-90018345D01*
X136814931Y-90019650D01*
X136814934Y-90019651D01*
X136994557Y-90057176D01*
X136994562Y-90057177D01*
X136999293Y-90058165D01*
X137005685Y-90058500D01*
X137148663Y-90058500D01*
X137236292Y-90049599D01*
X137287378Y-90044410D01*
X137287379Y-90044410D01*
X137293727Y-90043765D01*
X137374843Y-90018345D01*
X137473451Y-89987444D01*
X137473456Y-89987442D01*
X137479541Y-89985535D01*
X137567985Y-89936509D01*
X137644271Y-89894223D01*
X137644274Y-89894221D01*
X137649850Y-89891130D01*
X137654691Y-89886981D01*
X137654695Y-89886978D01*
X137792855Y-89768560D01*
X137797698Y-89764409D01*
X137917046Y-89610547D01*
X137957779Y-89527768D01*
X138000200Y-89441556D01*
X138003018Y-89435829D01*
X138004628Y-89429649D01*
X138050492Y-89253575D01*
X138050492Y-89253572D01*
X138052102Y-89247393D01*
X138057360Y-89147064D01*
X139137707Y-89147064D01*
X139166825Y-89339599D01*
X139169028Y-89345585D01*
X139169029Y-89345591D01*
X139231860Y-89516360D01*
X139231862Y-89516365D01*
X139234063Y-89522346D01*
X139336674Y-89687840D01*
X139341055Y-89692473D01*
X139341056Y-89692474D01*
X139449240Y-89806876D01*
X139470466Y-89829322D01*
X139629975Y-89941011D01*
X139635838Y-89943548D01*
X139802825Y-90015810D01*
X139802829Y-90015811D01*
X139808684Y-90018345D01*
X139814931Y-90019650D01*
X139814934Y-90019651D01*
X139994557Y-90057176D01*
X139994562Y-90057177D01*
X139999293Y-90058165D01*
X140005685Y-90058500D01*
X140148663Y-90058500D01*
X140236292Y-90049599D01*
X140287378Y-90044410D01*
X140287379Y-90044410D01*
X140293727Y-90043765D01*
X140374843Y-90018345D01*
X140473451Y-89987444D01*
X140473456Y-89987442D01*
X140479541Y-89985535D01*
X140567985Y-89936509D01*
X140644271Y-89894223D01*
X140644274Y-89894221D01*
X140649850Y-89891130D01*
X140654691Y-89886981D01*
X140654695Y-89886978D01*
X140735212Y-89817966D01*
X144598257Y-89817966D01*
X144628565Y-89952446D01*
X144631645Y-89962275D01*
X144711770Y-90159603D01*
X144716413Y-90168794D01*
X144827694Y-90350388D01*
X144833777Y-90358699D01*
X144973213Y-90519667D01*
X144980580Y-90526883D01*
X145144434Y-90662916D01*
X145152881Y-90668831D01*
X145336756Y-90776279D01*
X145346042Y-90780729D01*
X145545001Y-90856703D01*
X145554899Y-90859579D01*
X145658250Y-90880606D01*
X145672299Y-90879410D01*
X145676000Y-90869065D01*
X145676000Y-89822115D01*
X145671525Y-89806876D01*
X145670135Y-89805671D01*
X145662452Y-89804000D01*
X144613225Y-89804000D01*
X144599694Y-89807973D01*
X144598257Y-89817966D01*
X140735212Y-89817966D01*
X140792855Y-89768560D01*
X140797698Y-89764409D01*
X140917046Y-89610547D01*
X140957779Y-89527768D01*
X141000200Y-89441556D01*
X141003018Y-89435829D01*
X141004628Y-89429649D01*
X141042519Y-89284183D01*
X144594389Y-89284183D01*
X144595912Y-89292607D01*
X144608292Y-89296000D01*
X145657885Y-89296000D01*
X145673124Y-89291525D01*
X145674329Y-89290135D01*
X145676000Y-89282452D01*
X145676000Y-88233102D01*
X145672082Y-88219758D01*
X145657806Y-88217771D01*
X145619324Y-88223660D01*
X145609288Y-88226051D01*
X145406868Y-88292212D01*
X145397359Y-88296209D01*
X145208463Y-88394542D01*
X145199738Y-88400036D01*
X145029433Y-88527905D01*
X145021726Y-88534748D01*
X144874590Y-88688717D01*
X144868104Y-88696727D01*
X144748098Y-88872649D01*
X144743000Y-88881623D01*
X144653338Y-89074783D01*
X144649775Y-89084470D01*
X144594389Y-89284183D01*
X141042519Y-89284183D01*
X141050492Y-89253575D01*
X141050492Y-89253572D01*
X141052102Y-89247393D01*
X141057694Y-89140683D01*
X141061959Y-89059317D01*
X141061959Y-89059313D01*
X141062293Y-89052936D01*
X141033175Y-88860401D01*
X141030972Y-88854415D01*
X141030971Y-88854409D01*
X140968140Y-88683640D01*
X140968138Y-88683635D01*
X140965937Y-88677654D01*
X140891051Y-88556875D01*
X140866688Y-88517582D01*
X140866687Y-88517581D01*
X140863326Y-88512160D01*
X140855681Y-88504075D01*
X140733919Y-88375315D01*
X140729534Y-88370678D01*
X140682924Y-88338041D01*
X140619108Y-88293357D01*
X140570025Y-88258989D01*
X140511805Y-88233795D01*
X140397175Y-88184190D01*
X140397171Y-88184189D01*
X140391316Y-88181655D01*
X140385069Y-88180350D01*
X140385066Y-88180349D01*
X140205443Y-88142824D01*
X140205438Y-88142823D01*
X140200707Y-88141835D01*
X140194315Y-88141500D01*
X140051337Y-88141500D01*
X139982049Y-88148538D01*
X139912622Y-88155590D01*
X139912621Y-88155590D01*
X139906273Y-88156235D01*
X139896193Y-88159394D01*
X139726549Y-88212556D01*
X139726544Y-88212558D01*
X139720459Y-88214465D01*
X139653927Y-88251345D01*
X139555729Y-88305777D01*
X139555726Y-88305779D01*
X139550150Y-88308870D01*
X139545309Y-88313019D01*
X139545305Y-88313022D01*
X139423059Y-88417800D01*
X139402302Y-88435591D01*
X139398391Y-88440633D01*
X139398390Y-88440634D01*
X139394143Y-88446109D01*
X139282954Y-88589453D01*
X139280138Y-88595176D01*
X139280136Y-88595179D01*
X139212680Y-88732269D01*
X139196982Y-88764171D01*
X139195373Y-88770349D01*
X139195372Y-88770351D01*
X139162886Y-88895069D01*
X139147898Y-88952607D01*
X139137707Y-89147064D01*
X138057360Y-89147064D01*
X138057694Y-89140683D01*
X138061959Y-89059317D01*
X138061959Y-89059313D01*
X138062293Y-89052936D01*
X138033175Y-88860401D01*
X138030972Y-88854415D01*
X138030971Y-88854409D01*
X137968140Y-88683640D01*
X137968138Y-88683635D01*
X137965937Y-88677654D01*
X137891051Y-88556875D01*
X137866688Y-88517582D01*
X137866687Y-88517581D01*
X137863326Y-88512160D01*
X137855681Y-88504075D01*
X137733919Y-88375315D01*
X137729534Y-88370678D01*
X137682924Y-88338041D01*
X137619108Y-88293357D01*
X137570025Y-88258989D01*
X137511805Y-88233795D01*
X137397175Y-88184190D01*
X137397171Y-88184189D01*
X137391316Y-88181655D01*
X137385069Y-88180350D01*
X137385066Y-88180349D01*
X137205443Y-88142824D01*
X137205438Y-88142823D01*
X137200707Y-88141835D01*
X137194315Y-88141500D01*
X137051337Y-88141500D01*
X136982049Y-88148538D01*
X136912622Y-88155590D01*
X136912621Y-88155590D01*
X136906273Y-88156235D01*
X136896193Y-88159394D01*
X136726549Y-88212556D01*
X136726544Y-88212558D01*
X136720459Y-88214465D01*
X136653927Y-88251345D01*
X136555729Y-88305777D01*
X136555726Y-88305779D01*
X136550150Y-88308870D01*
X136545309Y-88313019D01*
X136545305Y-88313022D01*
X136423059Y-88417800D01*
X136402302Y-88435591D01*
X136398391Y-88440633D01*
X136398390Y-88440634D01*
X136394143Y-88446109D01*
X136282954Y-88589453D01*
X136280138Y-88595176D01*
X136280136Y-88595179D01*
X136212680Y-88732269D01*
X136196982Y-88764171D01*
X136195373Y-88770349D01*
X136195372Y-88770351D01*
X136162886Y-88895069D01*
X136147898Y-88952607D01*
X136137707Y-89147064D01*
X129706694Y-89147064D01*
X129706668Y-88749174D01*
X129708176Y-88729731D01*
X129710467Y-88715054D01*
X129710467Y-88715053D01*
X129711852Y-88706182D01*
X129710032Y-88692215D01*
X129709374Y-88665920D01*
X129720680Y-88524148D01*
X129723829Y-88504474D01*
X129763020Y-88342835D01*
X129769232Y-88323902D01*
X129833414Y-88170467D01*
X129842532Y-88152751D01*
X129930102Y-88011347D01*
X129941900Y-87995289D01*
X130050662Y-87869463D01*
X130064843Y-87855466D01*
X130192085Y-87748356D01*
X130208295Y-87736770D01*
X130350831Y-87651057D01*
X130368663Y-87642173D01*
X130522929Y-87580002D01*
X130541932Y-87574041D01*
X130611855Y-87558052D01*
X130704075Y-87536965D01*
X130723788Y-87534073D01*
X130723910Y-87534065D01*
X130858679Y-87525090D01*
X130875541Y-87525940D01*
X130875546Y-87525756D01*
X130884521Y-87525979D01*
X130893373Y-87527473D01*
X130902287Y-87526422D01*
X130902291Y-87526422D01*
X130929132Y-87523257D01*
X130943843Y-87522390D01*
X159246912Y-87512809D01*
X177251101Y-87506715D01*
X177270572Y-87508223D01*
G37*
%TD.AperFunction*%
%TD*%
M02*
