%TF.GenerationSoftware,KiCad,Pcbnew,(6.0.6)*%
%TF.CreationDate,2022-08-05T13:26:10+02:00*%
%TF.ProjectId,stm32_basic,73746d33-325f-4626-9173-69632e6b6963,rev?*%
%TF.SameCoordinates,Original*%
%TF.FileFunction,Copper,L3,Inr*%
%TF.FilePolarity,Positive*%
%FSLAX46Y46*%
G04 Gerber Fmt 4.6, Leading zero omitted, Abs format (unit mm)*
G04 Created by KiCad (PCBNEW (6.0.6)) date 2022-08-05 13:26:10*
%MOMM*%
%LPD*%
G01*
G04 APERTURE LIST*
%TA.AperFunction,ComponentPad*%
%ADD10R,1.700000X1.700000*%
%TD*%
%TA.AperFunction,ComponentPad*%
%ADD11O,1.700000X1.700000*%
%TD*%
%TA.AperFunction,ComponentPad*%
%ADD12O,3.500000X1.900000*%
%TD*%
%TA.AperFunction,ViaPad*%
%ADD13C,0.800000*%
%TD*%
G04 APERTURE END LIST*
D10*
%TO.N,I2C1_SCL*%
%TO.C,J3*%
X131750000Y-94220000D03*
D11*
%TO.N,I2C1_SDA*%
X131750000Y-96760000D03*
%TO.N,+3.3V*%
X131750000Y-99300000D03*
%TO.N,GND*%
X131750000Y-101840000D03*
%TD*%
D12*
%TO.N,Net-(J1-Pad5)*%
%TO.C,J1*%
X175350000Y-108900000D03*
X175350000Y-97500000D03*
%TD*%
D10*
%TO.N,+3.3V*%
%TO.C,J6*%
X142825000Y-116800000D03*
D11*
%TO.N,USART2_CK*%
X140285000Y-116800000D03*
%TO.N,USART2_RX*%
X137745000Y-116800000D03*
%TO.N,USART2_TX*%
X135205000Y-116800000D03*
%TO.N,GND*%
X132665000Y-116800000D03*
%TD*%
D10*
%TO.N,+3.3V*%
%TO.C,J5*%
X146425000Y-116800000D03*
D11*
%TO.N,SPI1_SCK*%
X148965000Y-116800000D03*
%TO.N,SPI1_MISO*%
X151505000Y-116800000D03*
%TO.N,SPI1_MOSI*%
X154045000Y-116800000D03*
%TO.N,GND*%
X156585000Y-116800000D03*
%TD*%
D10*
%TO.N,+3.3V*%
%TO.C,J4*%
X153550000Y-89550000D03*
D11*
%TO.N,UART1_RX*%
X151010000Y-89550000D03*
%TO.N,UART1_TX*%
X148470000Y-89550000D03*
%TO.N,GND*%
X145930000Y-89550000D03*
%TD*%
D13*
%TO.N,GND*%
X140250000Y-97050000D03*
X141500000Y-97050000D03*
X141500000Y-96050000D03*
X169462500Y-103200000D03*
X146750500Y-97800000D03*
X140250000Y-96050000D03*
%TO.N,BUCK_IN*%
X166500000Y-97800000D03*
X162000000Y-107050000D03*
X171000000Y-111000000D03*
X171300000Y-110100000D03*
X167500000Y-97050000D03*
X163000000Y-107050000D03*
%TO.N,+3.3V*%
X136000000Y-98550000D03*
X148000000Y-114050000D03*
X142750000Y-96300000D03*
X136250000Y-111800000D03*
X164250000Y-113800000D03*
X166250000Y-116050000D03*
X167750000Y-114800000D03*
X155500000Y-114050000D03*
X141000000Y-92300000D03*
X159000000Y-104800000D03*
X138000000Y-111800000D03*
X145000000Y-95300000D03*
X141000000Y-101075000D03*
X136000000Y-93300000D03*
X144000000Y-94050000D03*
X164250000Y-93050000D03*
X172750000Y-113800000D03*
%TO.N,NRST*%
X149250000Y-106300000D03*
X153000000Y-98050000D03*
%TO.N,+3.3VA*%
X142750000Y-112550000D03*
X143750000Y-98300500D03*
%TO.N,+5V*%
X169000000Y-99800000D03*
X170000000Y-99800000D03*
X164392866Y-103200000D03*
%TO.N,I2C1_SCL*%
X148000000Y-102550000D03*
X140500000Y-99300000D03*
%TO.N,I2C1_SDA*%
X145500000Y-102300000D03*
X137500000Y-98050000D03*
%TO.N,SPI1_SCK*%
X147500000Y-109050000D03*
%TO.N,SPI1_MISO*%
X147750000Y-110050000D03*
%TO.N,SPI1_MOSI*%
X148750000Y-110550000D03*
%TO.N,USART2_CK*%
X145500000Y-110050000D03*
%TO.N,USART2_TX*%
X140250000Y-110800000D03*
%TO.N,SWDIO*%
X152750000Y-93300000D03*
X156000000Y-105800000D03*
%TO.N,Temperature_ADC*%
X141250000Y-112300000D03*
X144750000Y-107050000D03*
%TO.N,UART1_TX*%
X149750000Y-105050000D03*
%TO.N,UART1_RX*%
X151250000Y-104550000D03*
%TD*%
%TA.AperFunction,Conductor*%
%TO.N,+3.3V*%
G36*
X177270572Y-87508223D02*
G01*
X177293819Y-87511852D01*
X177307786Y-87510032D01*
X177334079Y-87509374D01*
X177382570Y-87513241D01*
X177475853Y-87520680D01*
X177495527Y-87523829D01*
X177607774Y-87551044D01*
X177657168Y-87563021D01*
X177676094Y-87569230D01*
X177829532Y-87633413D01*
X177847248Y-87642531D01*
X177988656Y-87730104D01*
X178004713Y-87741902D01*
X178130537Y-87850663D01*
X178144534Y-87864844D01*
X178251644Y-87992085D01*
X178263230Y-88008295D01*
X178348943Y-88150831D01*
X178357827Y-88168663D01*
X178416006Y-88313022D01*
X178419996Y-88322923D01*
X178425960Y-88341935D01*
X178463035Y-88504075D01*
X178465927Y-88523789D01*
X178474233Y-88648510D01*
X178474910Y-88658683D01*
X178474060Y-88675542D01*
X178474245Y-88675547D01*
X178474022Y-88684520D01*
X178472528Y-88693373D01*
X178476751Y-88729186D01*
X178477617Y-88743862D01*
X178486271Y-106543966D01*
X178491476Y-117250595D01*
X178489968Y-117270092D01*
X178486312Y-117293511D01*
X178488132Y-117307477D01*
X178488790Y-117333773D01*
X178477485Y-117475552D01*
X178474336Y-117495226D01*
X178435145Y-117656869D01*
X178428934Y-117675801D01*
X178364750Y-117829248D01*
X178355634Y-117846960D01*
X178268064Y-117988371D01*
X178256267Y-118004428D01*
X178147499Y-118130266D01*
X178133322Y-118144260D01*
X178006073Y-118251382D01*
X177989870Y-118262963D01*
X177847326Y-118348685D01*
X177829493Y-118357571D01*
X177675227Y-118419747D01*
X177656217Y-118425711D01*
X177494064Y-118462794D01*
X177474364Y-118465684D01*
X177376340Y-118472215D01*
X177339790Y-118474650D01*
X177322599Y-118473785D01*
X177322595Y-118473931D01*
X177313623Y-118473708D01*
X177304772Y-118472215D01*
X177268969Y-118476438D01*
X177254288Y-118477304D01*
X149261552Y-118490696D01*
X130935194Y-118499463D01*
X130915699Y-118497955D01*
X130901150Y-118495684D01*
X130892279Y-118494299D01*
X130878312Y-118496119D01*
X130852019Y-118496777D01*
X130805654Y-118493080D01*
X130710241Y-118485471D01*
X130690567Y-118482322D01*
X130528926Y-118443130D01*
X130509994Y-118436919D01*
X130433271Y-118404827D01*
X130356546Y-118372734D01*
X130338831Y-118363616D01*
X130323036Y-118353834D01*
X130278090Y-118326000D01*
X130197428Y-118276047D01*
X130181371Y-118264250D01*
X130055541Y-118155487D01*
X130041544Y-118141307D01*
X129934425Y-118014059D01*
X129922843Y-117997856D01*
X129837119Y-117855309D01*
X129828237Y-117837482D01*
X129825424Y-117830501D01*
X129774523Y-117704205D01*
X129766062Y-117683212D01*
X129760099Y-117664201D01*
X129723020Y-117502062D01*
X129720128Y-117482349D01*
X129711155Y-117347669D01*
X129712014Y-117330592D01*
X129711855Y-117330588D01*
X129712078Y-117321613D01*
X129713571Y-117312763D01*
X129712520Y-117303848D01*
X129709366Y-117277102D01*
X129708499Y-117262354D01*
X129708467Y-116766695D01*
X131302251Y-116766695D01*
X131302548Y-116771848D01*
X131302548Y-116771851D01*
X131308011Y-116866590D01*
X131315110Y-116989715D01*
X131316247Y-116994761D01*
X131316248Y-116994767D01*
X131330606Y-117058475D01*
X131364222Y-117207639D01*
X131448266Y-117414616D01*
X131485608Y-117475552D01*
X131562291Y-117600688D01*
X131564987Y-117605088D01*
X131711250Y-117773938D01*
X131883126Y-117916632D01*
X132076000Y-118029338D01*
X132284692Y-118109030D01*
X132289760Y-118110061D01*
X132289763Y-118110062D01*
X132389070Y-118130266D01*
X132503597Y-118153567D01*
X132508772Y-118153757D01*
X132508774Y-118153757D01*
X132721673Y-118161564D01*
X132721677Y-118161564D01*
X132726837Y-118161753D01*
X132731957Y-118161097D01*
X132731959Y-118161097D01*
X132943288Y-118134025D01*
X132943289Y-118134025D01*
X132948416Y-118133368D01*
X132953366Y-118131883D01*
X133157429Y-118070661D01*
X133157434Y-118070659D01*
X133162384Y-118069174D01*
X133362994Y-117970896D01*
X133544860Y-117841173D01*
X133555570Y-117830501D01*
X133653479Y-117732933D01*
X133703096Y-117683489D01*
X133708621Y-117675801D01*
X133833453Y-117502077D01*
X133834776Y-117503028D01*
X133881645Y-117459857D01*
X133951580Y-117447625D01*
X134017026Y-117475144D01*
X134044875Y-117506994D01*
X134104987Y-117605088D01*
X134251250Y-117773938D01*
X134423126Y-117916632D01*
X134616000Y-118029338D01*
X134824692Y-118109030D01*
X134829760Y-118110061D01*
X134829763Y-118110062D01*
X134929070Y-118130266D01*
X135043597Y-118153567D01*
X135048772Y-118153757D01*
X135048774Y-118153757D01*
X135261673Y-118161564D01*
X135261677Y-118161564D01*
X135266837Y-118161753D01*
X135271957Y-118161097D01*
X135271959Y-118161097D01*
X135483288Y-118134025D01*
X135483289Y-118134025D01*
X135488416Y-118133368D01*
X135493366Y-118131883D01*
X135697429Y-118070661D01*
X135697434Y-118070659D01*
X135702384Y-118069174D01*
X135902994Y-117970896D01*
X136084860Y-117841173D01*
X136095570Y-117830501D01*
X136193479Y-117732933D01*
X136243096Y-117683489D01*
X136248621Y-117675801D01*
X136373453Y-117502077D01*
X136374776Y-117503028D01*
X136421645Y-117459857D01*
X136491580Y-117447625D01*
X136557026Y-117475144D01*
X136584875Y-117506994D01*
X136644987Y-117605088D01*
X136791250Y-117773938D01*
X136963126Y-117916632D01*
X137156000Y-118029338D01*
X137364692Y-118109030D01*
X137369760Y-118110061D01*
X137369763Y-118110062D01*
X137469070Y-118130266D01*
X137583597Y-118153567D01*
X137588772Y-118153757D01*
X137588774Y-118153757D01*
X137801673Y-118161564D01*
X137801677Y-118161564D01*
X137806837Y-118161753D01*
X137811957Y-118161097D01*
X137811959Y-118161097D01*
X138023288Y-118134025D01*
X138023289Y-118134025D01*
X138028416Y-118133368D01*
X138033366Y-118131883D01*
X138237429Y-118070661D01*
X138237434Y-118070659D01*
X138242384Y-118069174D01*
X138442994Y-117970896D01*
X138624860Y-117841173D01*
X138635570Y-117830501D01*
X138733479Y-117732933D01*
X138783096Y-117683489D01*
X138788621Y-117675801D01*
X138913453Y-117502077D01*
X138914776Y-117503028D01*
X138961645Y-117459857D01*
X139031580Y-117447625D01*
X139097026Y-117475144D01*
X139124875Y-117506994D01*
X139184987Y-117605088D01*
X139331250Y-117773938D01*
X139503126Y-117916632D01*
X139696000Y-118029338D01*
X139904692Y-118109030D01*
X139909760Y-118110061D01*
X139909763Y-118110062D01*
X140009070Y-118130266D01*
X140123597Y-118153567D01*
X140128772Y-118153757D01*
X140128774Y-118153757D01*
X140341673Y-118161564D01*
X140341677Y-118161564D01*
X140346837Y-118161753D01*
X140351957Y-118161097D01*
X140351959Y-118161097D01*
X140563288Y-118134025D01*
X140563289Y-118134025D01*
X140568416Y-118133368D01*
X140573366Y-118131883D01*
X140777429Y-118070661D01*
X140777434Y-118070659D01*
X140782384Y-118069174D01*
X140982994Y-117970896D01*
X141164860Y-117841173D01*
X141175570Y-117830501D01*
X141273479Y-117732933D01*
X141335851Y-117699017D01*
X141406658Y-117704205D01*
X141463419Y-117746851D01*
X141480401Y-117777954D01*
X141521676Y-117888054D01*
X141530214Y-117903649D01*
X141606715Y-118005724D01*
X141619276Y-118018285D01*
X141721351Y-118094786D01*
X141736946Y-118103324D01*
X141857394Y-118148478D01*
X141872649Y-118152105D01*
X141923514Y-118157631D01*
X141930328Y-118158000D01*
X142552885Y-118158000D01*
X142568124Y-118153525D01*
X142569329Y-118152135D01*
X142571000Y-118144452D01*
X142571000Y-118139884D01*
X143079000Y-118139884D01*
X143083475Y-118155123D01*
X143084865Y-118156328D01*
X143092548Y-118157999D01*
X143719669Y-118157999D01*
X143726490Y-118157629D01*
X143777352Y-118152105D01*
X143792604Y-118148479D01*
X143913054Y-118103324D01*
X143928649Y-118094786D01*
X144030724Y-118018285D01*
X144043285Y-118005724D01*
X144119786Y-117903649D01*
X144128324Y-117888054D01*
X144173478Y-117767606D01*
X144177105Y-117752351D01*
X144182631Y-117701486D01*
X144183000Y-117694672D01*
X144183000Y-117694669D01*
X145067001Y-117694669D01*
X145067371Y-117701490D01*
X145072895Y-117752352D01*
X145076521Y-117767604D01*
X145121676Y-117888054D01*
X145130214Y-117903649D01*
X145206715Y-118005724D01*
X145219276Y-118018285D01*
X145321351Y-118094786D01*
X145336946Y-118103324D01*
X145457394Y-118148478D01*
X145472649Y-118152105D01*
X145523514Y-118157631D01*
X145530328Y-118158000D01*
X146152885Y-118158000D01*
X146168124Y-118153525D01*
X146169329Y-118152135D01*
X146171000Y-118144452D01*
X146171000Y-118139884D01*
X146679000Y-118139884D01*
X146683475Y-118155123D01*
X146684865Y-118156328D01*
X146692548Y-118157999D01*
X147319669Y-118157999D01*
X147326490Y-118157629D01*
X147377352Y-118152105D01*
X147392604Y-118148479D01*
X147513054Y-118103324D01*
X147528649Y-118094786D01*
X147630724Y-118018285D01*
X147643285Y-118005724D01*
X147719786Y-117903649D01*
X147728324Y-117888054D01*
X147769225Y-117778952D01*
X147811867Y-117722188D01*
X147878428Y-117697488D01*
X147947777Y-117712696D01*
X147982444Y-117740684D01*
X148007865Y-117770031D01*
X148007869Y-117770035D01*
X148011250Y-117773938D01*
X148183126Y-117916632D01*
X148376000Y-118029338D01*
X148584692Y-118109030D01*
X148589760Y-118110061D01*
X148589763Y-118110062D01*
X148689070Y-118130266D01*
X148803597Y-118153567D01*
X148808772Y-118153757D01*
X148808774Y-118153757D01*
X149021673Y-118161564D01*
X149021677Y-118161564D01*
X149026837Y-118161753D01*
X149031957Y-118161097D01*
X149031959Y-118161097D01*
X149243288Y-118134025D01*
X149243289Y-118134025D01*
X149248416Y-118133368D01*
X149253366Y-118131883D01*
X149457429Y-118070661D01*
X149457434Y-118070659D01*
X149462384Y-118069174D01*
X149662994Y-117970896D01*
X149844860Y-117841173D01*
X149855570Y-117830501D01*
X149953479Y-117732933D01*
X150003096Y-117683489D01*
X150008621Y-117675801D01*
X150133453Y-117502077D01*
X150134776Y-117503028D01*
X150181645Y-117459857D01*
X150251580Y-117447625D01*
X150317026Y-117475144D01*
X150344875Y-117506994D01*
X150404987Y-117605088D01*
X150551250Y-117773938D01*
X150723126Y-117916632D01*
X150916000Y-118029338D01*
X151124692Y-118109030D01*
X151129760Y-118110061D01*
X151129763Y-118110062D01*
X151229070Y-118130266D01*
X151343597Y-118153567D01*
X151348772Y-118153757D01*
X151348774Y-118153757D01*
X151561673Y-118161564D01*
X151561677Y-118161564D01*
X151566837Y-118161753D01*
X151571957Y-118161097D01*
X151571959Y-118161097D01*
X151783288Y-118134025D01*
X151783289Y-118134025D01*
X151788416Y-118133368D01*
X151793366Y-118131883D01*
X151997429Y-118070661D01*
X151997434Y-118070659D01*
X152002384Y-118069174D01*
X152202994Y-117970896D01*
X152384860Y-117841173D01*
X152395570Y-117830501D01*
X152493479Y-117732933D01*
X152543096Y-117683489D01*
X152548621Y-117675801D01*
X152673453Y-117502077D01*
X152674776Y-117503028D01*
X152721645Y-117459857D01*
X152791580Y-117447625D01*
X152857026Y-117475144D01*
X152884875Y-117506994D01*
X152944987Y-117605088D01*
X153091250Y-117773938D01*
X153263126Y-117916632D01*
X153456000Y-118029338D01*
X153664692Y-118109030D01*
X153669760Y-118110061D01*
X153669763Y-118110062D01*
X153769070Y-118130266D01*
X153883597Y-118153567D01*
X153888772Y-118153757D01*
X153888774Y-118153757D01*
X154101673Y-118161564D01*
X154101677Y-118161564D01*
X154106837Y-118161753D01*
X154111957Y-118161097D01*
X154111959Y-118161097D01*
X154323288Y-118134025D01*
X154323289Y-118134025D01*
X154328416Y-118133368D01*
X154333366Y-118131883D01*
X154537429Y-118070661D01*
X154537434Y-118070659D01*
X154542384Y-118069174D01*
X154742994Y-117970896D01*
X154924860Y-117841173D01*
X154935570Y-117830501D01*
X155033479Y-117732933D01*
X155083096Y-117683489D01*
X155088621Y-117675801D01*
X155213453Y-117502077D01*
X155214776Y-117503028D01*
X155261645Y-117459857D01*
X155331580Y-117447625D01*
X155397026Y-117475144D01*
X155424875Y-117506994D01*
X155484987Y-117605088D01*
X155631250Y-117773938D01*
X155803126Y-117916632D01*
X155996000Y-118029338D01*
X156204692Y-118109030D01*
X156209760Y-118110061D01*
X156209763Y-118110062D01*
X156309070Y-118130266D01*
X156423597Y-118153567D01*
X156428772Y-118153757D01*
X156428774Y-118153757D01*
X156641673Y-118161564D01*
X156641677Y-118161564D01*
X156646837Y-118161753D01*
X156651957Y-118161097D01*
X156651959Y-118161097D01*
X156863288Y-118134025D01*
X156863289Y-118134025D01*
X156868416Y-118133368D01*
X156873366Y-118131883D01*
X157077429Y-118070661D01*
X157077434Y-118070659D01*
X157082384Y-118069174D01*
X157282994Y-117970896D01*
X157464860Y-117841173D01*
X157475570Y-117830501D01*
X157573479Y-117732933D01*
X157623096Y-117683489D01*
X157628621Y-117675801D01*
X157750435Y-117506277D01*
X157753453Y-117502077D01*
X157766563Y-117475552D01*
X157850136Y-117306453D01*
X157850137Y-117306451D01*
X157852430Y-117301811D01*
X157917370Y-117088069D01*
X157946529Y-116866590D01*
X157948156Y-116800000D01*
X157929852Y-116577361D01*
X157875431Y-116360702D01*
X157786354Y-116155840D01*
X157746906Y-116094862D01*
X157667822Y-115972617D01*
X157667820Y-115972614D01*
X157665014Y-115968277D01*
X157561547Y-115854568D01*
X174337382Y-115854568D01*
X174337963Y-115859588D01*
X174337963Y-115859592D01*
X174347082Y-115938401D01*
X174366208Y-116103699D01*
X174367587Y-116108573D01*
X174367588Y-116108577D01*
X174433116Y-116340148D01*
X174434494Y-116345017D01*
X174436628Y-116349592D01*
X174436630Y-116349599D01*
X174538347Y-116567731D01*
X174540484Y-116572313D01*
X174543326Y-116576494D01*
X174543326Y-116576495D01*
X174678605Y-116775552D01*
X174678608Y-116775556D01*
X174681451Y-116779739D01*
X174684928Y-116783416D01*
X174684929Y-116783417D01*
X174785238Y-116889491D01*
X174853767Y-116961959D01*
X174857793Y-116965037D01*
X174857794Y-116965038D01*
X175048981Y-117111212D01*
X175048985Y-117111215D01*
X175053001Y-117114285D01*
X175274026Y-117232797D01*
X175278807Y-117234443D01*
X175278811Y-117234445D01*
X175487937Y-117306453D01*
X175511156Y-117314448D01*
X175600128Y-117329816D01*
X175754380Y-117356460D01*
X175754386Y-117356461D01*
X175758290Y-117357135D01*
X175762251Y-117357315D01*
X175762252Y-117357315D01*
X175786931Y-117358436D01*
X175786950Y-117358436D01*
X175788350Y-117358500D01*
X175963015Y-117358500D01*
X175965523Y-117358298D01*
X175965528Y-117358298D01*
X176144944Y-117343863D01*
X176144949Y-117343862D01*
X176149985Y-117343457D01*
X176154893Y-117342252D01*
X176154896Y-117342251D01*
X176388625Y-117284841D01*
X176393539Y-117283634D01*
X176398191Y-117281659D01*
X176398195Y-117281658D01*
X176619741Y-117187617D01*
X176619742Y-117187617D01*
X176624396Y-117185641D01*
X176836615Y-117052000D01*
X177024738Y-116886147D01*
X177183924Y-116692351D01*
X177310078Y-116475596D01*
X177399955Y-116241461D01*
X177418751Y-116151492D01*
X177450206Y-116000921D01*
X177451241Y-115995967D01*
X177452302Y-115972617D01*
X177457662Y-115854568D01*
X177462618Y-115745432D01*
X177458744Y-115711946D01*
X177443675Y-115581715D01*
X177433792Y-115496301D01*
X177427924Y-115475562D01*
X177366884Y-115259852D01*
X177366883Y-115259850D01*
X177365506Y-115254983D01*
X177363372Y-115250408D01*
X177363370Y-115250401D01*
X177261653Y-115032269D01*
X177261651Y-115032265D01*
X177259516Y-115027687D01*
X177256674Y-115023505D01*
X177121395Y-114824448D01*
X177121392Y-114824444D01*
X177118549Y-114820261D01*
X177017925Y-114713853D01*
X176949713Y-114641721D01*
X176946233Y-114638041D01*
X176942206Y-114634962D01*
X176751019Y-114488788D01*
X176751015Y-114488785D01*
X176746999Y-114485715D01*
X176525974Y-114367203D01*
X176521193Y-114365557D01*
X176521189Y-114365555D01*
X176293633Y-114287201D01*
X176288844Y-114285552D01*
X176185311Y-114267669D01*
X176045620Y-114243540D01*
X176045614Y-114243539D01*
X176041710Y-114242865D01*
X176037749Y-114242685D01*
X176037748Y-114242685D01*
X176013069Y-114241564D01*
X176013050Y-114241564D01*
X176011650Y-114241500D01*
X175836985Y-114241500D01*
X175834477Y-114241702D01*
X175834472Y-114241702D01*
X175655056Y-114256137D01*
X175655051Y-114256138D01*
X175650015Y-114256543D01*
X175645107Y-114257748D01*
X175645104Y-114257749D01*
X175413326Y-114314680D01*
X175406461Y-114316366D01*
X175401809Y-114318341D01*
X175401805Y-114318342D01*
X175281061Y-114369595D01*
X175175604Y-114414359D01*
X174963385Y-114548000D01*
X174775262Y-114713853D01*
X174616076Y-114907649D01*
X174489922Y-115124404D01*
X174400045Y-115358539D01*
X174399012Y-115363485D01*
X174399010Y-115363491D01*
X174361435Y-115543357D01*
X174348759Y-115604033D01*
X174348530Y-115609082D01*
X174348529Y-115609088D01*
X174345863Y-115667800D01*
X174337382Y-115854568D01*
X157561547Y-115854568D01*
X157514670Y-115803051D01*
X157510619Y-115799852D01*
X157510615Y-115799848D01*
X157343414Y-115667800D01*
X157343410Y-115667798D01*
X157339359Y-115664598D01*
X157143789Y-115556638D01*
X157138920Y-115554914D01*
X157138916Y-115554912D01*
X156938087Y-115483795D01*
X156938083Y-115483794D01*
X156933212Y-115482069D01*
X156928119Y-115481162D01*
X156928116Y-115481161D01*
X156718373Y-115443800D01*
X156718367Y-115443799D01*
X156713284Y-115442894D01*
X156639452Y-115441992D01*
X156495081Y-115440228D01*
X156495079Y-115440228D01*
X156489911Y-115440165D01*
X156269091Y-115473955D01*
X156056756Y-115543357D01*
X155858607Y-115646507D01*
X155854474Y-115649610D01*
X155854471Y-115649612D01*
X155684100Y-115777530D01*
X155679965Y-115780635D01*
X155525629Y-115942138D01*
X155418201Y-116099621D01*
X155363293Y-116144621D01*
X155292768Y-116152792D01*
X155229021Y-116121538D01*
X155208324Y-116097054D01*
X155127822Y-115972617D01*
X155127820Y-115972614D01*
X155125014Y-115968277D01*
X154974670Y-115803051D01*
X154970619Y-115799852D01*
X154970615Y-115799848D01*
X154803414Y-115667800D01*
X154803410Y-115667798D01*
X154799359Y-115664598D01*
X154603789Y-115556638D01*
X154598920Y-115554914D01*
X154598916Y-115554912D01*
X154398087Y-115483795D01*
X154398083Y-115483794D01*
X154393212Y-115482069D01*
X154388119Y-115481162D01*
X154388116Y-115481161D01*
X154178373Y-115443800D01*
X154178367Y-115443799D01*
X154173284Y-115442894D01*
X154099452Y-115441992D01*
X153955081Y-115440228D01*
X153955079Y-115440228D01*
X153949911Y-115440165D01*
X153729091Y-115473955D01*
X153516756Y-115543357D01*
X153318607Y-115646507D01*
X153314474Y-115649610D01*
X153314471Y-115649612D01*
X153144100Y-115777530D01*
X153139965Y-115780635D01*
X152985629Y-115942138D01*
X152878201Y-116099621D01*
X152823293Y-116144621D01*
X152752768Y-116152792D01*
X152689021Y-116121538D01*
X152668324Y-116097054D01*
X152587822Y-115972617D01*
X152587820Y-115972614D01*
X152585014Y-115968277D01*
X152434670Y-115803051D01*
X152430619Y-115799852D01*
X152430615Y-115799848D01*
X152263414Y-115667800D01*
X152263410Y-115667798D01*
X152259359Y-115664598D01*
X152063789Y-115556638D01*
X152058920Y-115554914D01*
X152058916Y-115554912D01*
X151858087Y-115483795D01*
X151858083Y-115483794D01*
X151853212Y-115482069D01*
X151848119Y-115481162D01*
X151848116Y-115481161D01*
X151638373Y-115443800D01*
X151638367Y-115443799D01*
X151633284Y-115442894D01*
X151559452Y-115441992D01*
X151415081Y-115440228D01*
X151415079Y-115440228D01*
X151409911Y-115440165D01*
X151189091Y-115473955D01*
X150976756Y-115543357D01*
X150778607Y-115646507D01*
X150774474Y-115649610D01*
X150774471Y-115649612D01*
X150604100Y-115777530D01*
X150599965Y-115780635D01*
X150445629Y-115942138D01*
X150338201Y-116099621D01*
X150283293Y-116144621D01*
X150212768Y-116152792D01*
X150149021Y-116121538D01*
X150128324Y-116097054D01*
X150047822Y-115972617D01*
X150047820Y-115972614D01*
X150045014Y-115968277D01*
X149894670Y-115803051D01*
X149890619Y-115799852D01*
X149890615Y-115799848D01*
X149723414Y-115667800D01*
X149723410Y-115667798D01*
X149719359Y-115664598D01*
X149523789Y-115556638D01*
X149518920Y-115554914D01*
X149518916Y-115554912D01*
X149318087Y-115483795D01*
X149318083Y-115483794D01*
X149313212Y-115482069D01*
X149308119Y-115481162D01*
X149308116Y-115481161D01*
X149098373Y-115443800D01*
X149098367Y-115443799D01*
X149093284Y-115442894D01*
X149019452Y-115441992D01*
X148875081Y-115440228D01*
X148875079Y-115440228D01*
X148869911Y-115440165D01*
X148649091Y-115473955D01*
X148436756Y-115543357D01*
X148238607Y-115646507D01*
X148234474Y-115649610D01*
X148234471Y-115649612D01*
X148064100Y-115777530D01*
X148059965Y-115780635D01*
X148056393Y-115784373D01*
X147978898Y-115865466D01*
X147917374Y-115900895D01*
X147846462Y-115897438D01*
X147788676Y-115856192D01*
X147769823Y-115822644D01*
X147728324Y-115711946D01*
X147719786Y-115696351D01*
X147643285Y-115594276D01*
X147630724Y-115581715D01*
X147528649Y-115505214D01*
X147513054Y-115496676D01*
X147392606Y-115451522D01*
X147377351Y-115447895D01*
X147326486Y-115442369D01*
X147319672Y-115442000D01*
X146697115Y-115442000D01*
X146681876Y-115446475D01*
X146680671Y-115447865D01*
X146679000Y-115455548D01*
X146679000Y-118139884D01*
X146171000Y-118139884D01*
X146171000Y-117072115D01*
X146166525Y-117056876D01*
X146165135Y-117055671D01*
X146157452Y-117054000D01*
X145085116Y-117054000D01*
X145069877Y-117058475D01*
X145068672Y-117059865D01*
X145067001Y-117067548D01*
X145067001Y-117694669D01*
X144183000Y-117694669D01*
X144183000Y-117072115D01*
X144178525Y-117056876D01*
X144177135Y-117055671D01*
X144169452Y-117054000D01*
X143097115Y-117054000D01*
X143081876Y-117058475D01*
X143080671Y-117059865D01*
X143079000Y-117067548D01*
X143079000Y-118139884D01*
X142571000Y-118139884D01*
X142571000Y-116527885D01*
X143079000Y-116527885D01*
X143083475Y-116543124D01*
X143084865Y-116544329D01*
X143092548Y-116546000D01*
X144164884Y-116546000D01*
X144180123Y-116541525D01*
X144181328Y-116540135D01*
X144182999Y-116532452D01*
X144182999Y-116527885D01*
X145067000Y-116527885D01*
X145071475Y-116543124D01*
X145072865Y-116544329D01*
X145080548Y-116546000D01*
X146152885Y-116546000D01*
X146168124Y-116541525D01*
X146169329Y-116540135D01*
X146171000Y-116532452D01*
X146171000Y-115460116D01*
X146166525Y-115444877D01*
X146165135Y-115443672D01*
X146157452Y-115442001D01*
X145530331Y-115442001D01*
X145523510Y-115442371D01*
X145472648Y-115447895D01*
X145457396Y-115451521D01*
X145336946Y-115496676D01*
X145321351Y-115505214D01*
X145219276Y-115581715D01*
X145206715Y-115594276D01*
X145130214Y-115696351D01*
X145121676Y-115711946D01*
X145076522Y-115832394D01*
X145072895Y-115847649D01*
X145067369Y-115898514D01*
X145067000Y-115905328D01*
X145067000Y-116527885D01*
X144182999Y-116527885D01*
X144182999Y-115905331D01*
X144182629Y-115898510D01*
X144177105Y-115847648D01*
X144173479Y-115832396D01*
X144128324Y-115711946D01*
X144119786Y-115696351D01*
X144043285Y-115594276D01*
X144030724Y-115581715D01*
X143928649Y-115505214D01*
X143913054Y-115496676D01*
X143792606Y-115451522D01*
X143777351Y-115447895D01*
X143726486Y-115442369D01*
X143719672Y-115442000D01*
X143097115Y-115442000D01*
X143081876Y-115446475D01*
X143080671Y-115447865D01*
X143079000Y-115455548D01*
X143079000Y-116527885D01*
X142571000Y-116527885D01*
X142571000Y-115460116D01*
X142566525Y-115444877D01*
X142565135Y-115443672D01*
X142557452Y-115442001D01*
X141930331Y-115442001D01*
X141923510Y-115442371D01*
X141872648Y-115447895D01*
X141857396Y-115451521D01*
X141736946Y-115496676D01*
X141721351Y-115505214D01*
X141619276Y-115581715D01*
X141606715Y-115594276D01*
X141530214Y-115696351D01*
X141521676Y-115711946D01*
X141480297Y-115822322D01*
X141437655Y-115879087D01*
X141371093Y-115903786D01*
X141301744Y-115888578D01*
X141269121Y-115862891D01*
X141218151Y-115806876D01*
X141218145Y-115806870D01*
X141214670Y-115803051D01*
X141210619Y-115799852D01*
X141210615Y-115799848D01*
X141043414Y-115667800D01*
X141043410Y-115667798D01*
X141039359Y-115664598D01*
X140843789Y-115556638D01*
X140838920Y-115554914D01*
X140838916Y-115554912D01*
X140638087Y-115483795D01*
X140638083Y-115483794D01*
X140633212Y-115482069D01*
X140628119Y-115481162D01*
X140628116Y-115481161D01*
X140418373Y-115443800D01*
X140418367Y-115443799D01*
X140413284Y-115442894D01*
X140339452Y-115441992D01*
X140195081Y-115440228D01*
X140195079Y-115440228D01*
X140189911Y-115440165D01*
X139969091Y-115473955D01*
X139756756Y-115543357D01*
X139558607Y-115646507D01*
X139554474Y-115649610D01*
X139554471Y-115649612D01*
X139384100Y-115777530D01*
X139379965Y-115780635D01*
X139225629Y-115942138D01*
X139118201Y-116099621D01*
X139063293Y-116144621D01*
X138992768Y-116152792D01*
X138929021Y-116121538D01*
X138908324Y-116097054D01*
X138827822Y-115972617D01*
X138827820Y-115972614D01*
X138825014Y-115968277D01*
X138674670Y-115803051D01*
X138670619Y-115799852D01*
X138670615Y-115799848D01*
X138503414Y-115667800D01*
X138503410Y-115667798D01*
X138499359Y-115664598D01*
X138303789Y-115556638D01*
X138298920Y-115554914D01*
X138298916Y-115554912D01*
X138098087Y-115483795D01*
X138098083Y-115483794D01*
X138093212Y-115482069D01*
X138088119Y-115481162D01*
X138088116Y-115481161D01*
X137878373Y-115443800D01*
X137878367Y-115443799D01*
X137873284Y-115442894D01*
X137799452Y-115441992D01*
X137655081Y-115440228D01*
X137655079Y-115440228D01*
X137649911Y-115440165D01*
X137429091Y-115473955D01*
X137216756Y-115543357D01*
X137018607Y-115646507D01*
X137014474Y-115649610D01*
X137014471Y-115649612D01*
X136844100Y-115777530D01*
X136839965Y-115780635D01*
X136685629Y-115942138D01*
X136578201Y-116099621D01*
X136523293Y-116144621D01*
X136452768Y-116152792D01*
X136389021Y-116121538D01*
X136368324Y-116097054D01*
X136287822Y-115972617D01*
X136287820Y-115972614D01*
X136285014Y-115968277D01*
X136134670Y-115803051D01*
X136130619Y-115799852D01*
X136130615Y-115799848D01*
X135963414Y-115667800D01*
X135963410Y-115667798D01*
X135959359Y-115664598D01*
X135763789Y-115556638D01*
X135758920Y-115554914D01*
X135758916Y-115554912D01*
X135558087Y-115483795D01*
X135558083Y-115483794D01*
X135553212Y-115482069D01*
X135548119Y-115481162D01*
X135548116Y-115481161D01*
X135338373Y-115443800D01*
X135338367Y-115443799D01*
X135333284Y-115442894D01*
X135259452Y-115441992D01*
X135115081Y-115440228D01*
X135115079Y-115440228D01*
X135109911Y-115440165D01*
X134889091Y-115473955D01*
X134676756Y-115543357D01*
X134478607Y-115646507D01*
X134474474Y-115649610D01*
X134474471Y-115649612D01*
X134304100Y-115777530D01*
X134299965Y-115780635D01*
X134145629Y-115942138D01*
X134038201Y-116099621D01*
X133983293Y-116144621D01*
X133912768Y-116152792D01*
X133849021Y-116121538D01*
X133828324Y-116097054D01*
X133747822Y-115972617D01*
X133747820Y-115972614D01*
X133745014Y-115968277D01*
X133594670Y-115803051D01*
X133590619Y-115799852D01*
X133590615Y-115799848D01*
X133423414Y-115667800D01*
X133423410Y-115667798D01*
X133419359Y-115664598D01*
X133223789Y-115556638D01*
X133218920Y-115554914D01*
X133218916Y-115554912D01*
X133018087Y-115483795D01*
X133018083Y-115483794D01*
X133013212Y-115482069D01*
X133008119Y-115481162D01*
X133008116Y-115481161D01*
X132798373Y-115443800D01*
X132798367Y-115443799D01*
X132793284Y-115442894D01*
X132719452Y-115441992D01*
X132575081Y-115440228D01*
X132575079Y-115440228D01*
X132569911Y-115440165D01*
X132349091Y-115473955D01*
X132136756Y-115543357D01*
X131938607Y-115646507D01*
X131934474Y-115649610D01*
X131934471Y-115649612D01*
X131764100Y-115777530D01*
X131759965Y-115780635D01*
X131605629Y-115942138D01*
X131479743Y-116126680D01*
X131385688Y-116329305D01*
X131325989Y-116544570D01*
X131302251Y-116766695D01*
X129708467Y-116766695D01*
X129708084Y-110800000D01*
X139336496Y-110800000D01*
X139337186Y-110806565D01*
X139353011Y-110957128D01*
X139356458Y-110989928D01*
X139415473Y-111171556D01*
X139510960Y-111336944D01*
X139515378Y-111341851D01*
X139515379Y-111341852D01*
X139542125Y-111371556D01*
X139638747Y-111478866D01*
X139793248Y-111591118D01*
X139799276Y-111593802D01*
X139799278Y-111593803D01*
X139906408Y-111641500D01*
X139967712Y-111668794D01*
X140061112Y-111688647D01*
X140148056Y-111707128D01*
X140148061Y-111707128D01*
X140154513Y-111708500D01*
X140324220Y-111708500D01*
X140392341Y-111728502D01*
X140438834Y-111782158D01*
X140448938Y-111852432D01*
X140433338Y-111897501D01*
X140415473Y-111928444D01*
X140356458Y-112110072D01*
X140336496Y-112300000D01*
X140337186Y-112306565D01*
X140343500Y-112366635D01*
X140356458Y-112489928D01*
X140415473Y-112671556D01*
X140510960Y-112836944D01*
X140515378Y-112841851D01*
X140515379Y-112841852D01*
X140587145Y-112921556D01*
X140638747Y-112978866D01*
X140793248Y-113091118D01*
X140799276Y-113093802D01*
X140799278Y-113093803D01*
X140961681Y-113166109D01*
X140967712Y-113168794D01*
X141061112Y-113188647D01*
X141148056Y-113207128D01*
X141148061Y-113207128D01*
X141154513Y-113208500D01*
X141345487Y-113208500D01*
X141351939Y-113207128D01*
X141351944Y-113207128D01*
X141438887Y-113188647D01*
X141532288Y-113168794D01*
X141538319Y-113166109D01*
X141700722Y-113093803D01*
X141700724Y-113093802D01*
X141706752Y-113091118D01*
X141809550Y-113016431D01*
X141876416Y-112992573D01*
X141945568Y-113008653D01*
X141992729Y-113055367D01*
X142010960Y-113086944D01*
X142138747Y-113228866D01*
X142293248Y-113341118D01*
X142299276Y-113343802D01*
X142299278Y-113343803D01*
X142461681Y-113416109D01*
X142467712Y-113418794D01*
X142561113Y-113438647D01*
X142648056Y-113457128D01*
X142648061Y-113457128D01*
X142654513Y-113458500D01*
X142845487Y-113458500D01*
X142851939Y-113457128D01*
X142851944Y-113457128D01*
X142938887Y-113438647D01*
X143032288Y-113418794D01*
X143038319Y-113416109D01*
X143200722Y-113343803D01*
X143200724Y-113343802D01*
X143206752Y-113341118D01*
X143361253Y-113228866D01*
X143489040Y-113086944D01*
X143584527Y-112921556D01*
X143643542Y-112739928D01*
X143663504Y-112550000D01*
X143657190Y-112489928D01*
X143644232Y-112366635D01*
X143644232Y-112366633D01*
X143643542Y-112360072D01*
X143584527Y-112178444D01*
X143489040Y-112013056D01*
X143414779Y-111930580D01*
X143365675Y-111876045D01*
X143365674Y-111876044D01*
X143361253Y-111871134D01*
X143206752Y-111758882D01*
X143200724Y-111756198D01*
X143200722Y-111756197D01*
X143038319Y-111683891D01*
X143038318Y-111683891D01*
X143032288Y-111681206D01*
X142938888Y-111661353D01*
X142851944Y-111642872D01*
X142851939Y-111642872D01*
X142845487Y-111641500D01*
X142654513Y-111641500D01*
X142648061Y-111642872D01*
X142648056Y-111642872D01*
X142561112Y-111661353D01*
X142467712Y-111681206D01*
X142461682Y-111683891D01*
X142461681Y-111683891D01*
X142299278Y-111756197D01*
X142299276Y-111756198D01*
X142293248Y-111758882D01*
X142287907Y-111762762D01*
X142287906Y-111762763D01*
X142190451Y-111833569D01*
X142123584Y-111857427D01*
X142054432Y-111841347D01*
X142007271Y-111794633D01*
X142003001Y-111787237D01*
X141989040Y-111763056D01*
X141957928Y-111728502D01*
X141865675Y-111626045D01*
X141865674Y-111626044D01*
X141861253Y-111621134D01*
X141706752Y-111508882D01*
X141700724Y-111506198D01*
X141700722Y-111506197D01*
X141538319Y-111433891D01*
X141538318Y-111433891D01*
X141532288Y-111431206D01*
X141438887Y-111411353D01*
X141351944Y-111392872D01*
X141351939Y-111392872D01*
X141345487Y-111391500D01*
X141175780Y-111391500D01*
X141107659Y-111371498D01*
X141061166Y-111317842D01*
X141051062Y-111247568D01*
X141066662Y-111202499D01*
X141081222Y-111177281D01*
X141081223Y-111177278D01*
X141084527Y-111171556D01*
X141143542Y-110989928D01*
X141146990Y-110957128D01*
X141162814Y-110806565D01*
X141163504Y-110800000D01*
X141157190Y-110739928D01*
X141144232Y-110616635D01*
X141144232Y-110616633D01*
X141143542Y-110610072D01*
X141084527Y-110428444D01*
X140989040Y-110263056D01*
X140968216Y-110239928D01*
X140865675Y-110126045D01*
X140865674Y-110126044D01*
X140861253Y-110121134D01*
X140763346Y-110050000D01*
X144586496Y-110050000D01*
X144587186Y-110056565D01*
X144601405Y-110191847D01*
X144606458Y-110239928D01*
X144665473Y-110421556D01*
X144760960Y-110586944D01*
X144765378Y-110591851D01*
X144765379Y-110591852D01*
X144803986Y-110634729D01*
X144888747Y-110728866D01*
X145043248Y-110841118D01*
X145049276Y-110843802D01*
X145049278Y-110843803D01*
X145209799Y-110915271D01*
X145217712Y-110918794D01*
X145311113Y-110938647D01*
X145398056Y-110957128D01*
X145398061Y-110957128D01*
X145404513Y-110958500D01*
X145595487Y-110958500D01*
X145601939Y-110957128D01*
X145601944Y-110957128D01*
X145688887Y-110938647D01*
X145782288Y-110918794D01*
X145790201Y-110915271D01*
X145950722Y-110843803D01*
X145950724Y-110843802D01*
X145956752Y-110841118D01*
X146111253Y-110728866D01*
X146196014Y-110634729D01*
X146234621Y-110591852D01*
X146234622Y-110591851D01*
X146239040Y-110586944D01*
X146334527Y-110421556D01*
X146393542Y-110239928D01*
X146398596Y-110191847D01*
X146412814Y-110056565D01*
X146413504Y-110050000D01*
X146401301Y-109933891D01*
X146394232Y-109866635D01*
X146394232Y-109866633D01*
X146393542Y-109860072D01*
X146334527Y-109678444D01*
X146313990Y-109642872D01*
X146297314Y-109613990D01*
X146239040Y-109513056D01*
X146152330Y-109416754D01*
X146115675Y-109376045D01*
X146115674Y-109376044D01*
X146111253Y-109371134D01*
X145956752Y-109258882D01*
X145950724Y-109256198D01*
X145950722Y-109256197D01*
X145788319Y-109183891D01*
X145788318Y-109183891D01*
X145782288Y-109181206D01*
X145688887Y-109161353D01*
X145601944Y-109142872D01*
X145601939Y-109142872D01*
X145595487Y-109141500D01*
X145404513Y-109141500D01*
X145398061Y-109142872D01*
X145398056Y-109142872D01*
X145311112Y-109161353D01*
X145217712Y-109181206D01*
X145211682Y-109183891D01*
X145211681Y-109183891D01*
X145049278Y-109256197D01*
X145049276Y-109256198D01*
X145043248Y-109258882D01*
X144888747Y-109371134D01*
X144884326Y-109376044D01*
X144884325Y-109376045D01*
X144847671Y-109416754D01*
X144760960Y-109513056D01*
X144702686Y-109613990D01*
X144686011Y-109642872D01*
X144665473Y-109678444D01*
X144606458Y-109860072D01*
X144605768Y-109866633D01*
X144605768Y-109866635D01*
X144598699Y-109933891D01*
X144586496Y-110050000D01*
X140763346Y-110050000D01*
X140749950Y-110040267D01*
X140712094Y-110012763D01*
X140712093Y-110012762D01*
X140706752Y-110008882D01*
X140700724Y-110006198D01*
X140700722Y-110006197D01*
X140538319Y-109933891D01*
X140538318Y-109933891D01*
X140532288Y-109931206D01*
X140432861Y-109910072D01*
X140351944Y-109892872D01*
X140351939Y-109892872D01*
X140345487Y-109891500D01*
X140154513Y-109891500D01*
X140148061Y-109892872D01*
X140148056Y-109892872D01*
X140067139Y-109910072D01*
X139967712Y-109931206D01*
X139961682Y-109933891D01*
X139961681Y-109933891D01*
X139799278Y-110006197D01*
X139799276Y-110006198D01*
X139793248Y-110008882D01*
X139787907Y-110012762D01*
X139787906Y-110012763D01*
X139750050Y-110040267D01*
X139638747Y-110121134D01*
X139634326Y-110126044D01*
X139634325Y-110126045D01*
X139531785Y-110239928D01*
X139510960Y-110263056D01*
X139415473Y-110428444D01*
X139356458Y-110610072D01*
X139355768Y-110616633D01*
X139355768Y-110616635D01*
X139342810Y-110739928D01*
X139336496Y-110800000D01*
X129708084Y-110800000D01*
X129707972Y-109050000D01*
X146586496Y-109050000D01*
X146606458Y-109239928D01*
X146665473Y-109421556D01*
X146760960Y-109586944D01*
X146845834Y-109681206D01*
X146847671Y-109683246D01*
X146878388Y-109747254D01*
X146873867Y-109806492D01*
X146856458Y-109860072D01*
X146855768Y-109866633D01*
X146855768Y-109866635D01*
X146848699Y-109933891D01*
X146836496Y-110050000D01*
X146837186Y-110056565D01*
X146851405Y-110191847D01*
X146856458Y-110239928D01*
X146915473Y-110421556D01*
X147010960Y-110586944D01*
X147015378Y-110591851D01*
X147015379Y-110591852D01*
X147053986Y-110634729D01*
X147138747Y-110728866D01*
X147293248Y-110841118D01*
X147299276Y-110843802D01*
X147299278Y-110843803D01*
X147459799Y-110915271D01*
X147467712Y-110918794D01*
X147561113Y-110938647D01*
X147648056Y-110957128D01*
X147648061Y-110957128D01*
X147654513Y-110958500D01*
X147845487Y-110958500D01*
X147850401Y-110957456D01*
X147919662Y-110970122D01*
X147972112Y-111019658D01*
X148010960Y-111086944D01*
X148138747Y-111228866D01*
X148293248Y-111341118D01*
X148299276Y-111343802D01*
X148299278Y-111343803D01*
X148361613Y-111371556D01*
X148467712Y-111418794D01*
X148561113Y-111438647D01*
X148648056Y-111457128D01*
X148648061Y-111457128D01*
X148654513Y-111458500D01*
X148845487Y-111458500D01*
X148851939Y-111457128D01*
X148851944Y-111457128D01*
X148938887Y-111438647D01*
X149032288Y-111418794D01*
X149138387Y-111371556D01*
X149200722Y-111343803D01*
X149200724Y-111343802D01*
X149206752Y-111341118D01*
X149361253Y-111228866D01*
X149489040Y-111086944D01*
X149539237Y-111000000D01*
X170086496Y-111000000D01*
X170087186Y-111006565D01*
X170105129Y-111177279D01*
X170106458Y-111189928D01*
X170165473Y-111371556D01*
X170260960Y-111536944D01*
X170265378Y-111541851D01*
X170265379Y-111541852D01*
X170379678Y-111668794D01*
X170388747Y-111678866D01*
X170427646Y-111707128D01*
X170530916Y-111782158D01*
X170543248Y-111791118D01*
X170549276Y-111793802D01*
X170549278Y-111793803D01*
X170680962Y-111852432D01*
X170717712Y-111868794D01*
X170811112Y-111888647D01*
X170898056Y-111907128D01*
X170898061Y-111907128D01*
X170904513Y-111908500D01*
X171095487Y-111908500D01*
X171101939Y-111907128D01*
X171101944Y-111907128D01*
X171188887Y-111888647D01*
X171282288Y-111868794D01*
X171319038Y-111852432D01*
X171450722Y-111793803D01*
X171450724Y-111793802D01*
X171456752Y-111791118D01*
X171469085Y-111782158D01*
X171572354Y-111707128D01*
X171611253Y-111678866D01*
X171620322Y-111668794D01*
X171734621Y-111541852D01*
X171734622Y-111541851D01*
X171739040Y-111536944D01*
X171834527Y-111371556D01*
X171893542Y-111189928D01*
X171894872Y-111177279D01*
X171912814Y-111006565D01*
X171913504Y-111000000D01*
X171898320Y-110855532D01*
X171911092Y-110785694D01*
X171929994Y-110758052D01*
X172034621Y-110641852D01*
X172034622Y-110641851D01*
X172039040Y-110636944D01*
X172134527Y-110471556D01*
X172193542Y-110289928D01*
X172195126Y-110274863D01*
X172212814Y-110106565D01*
X172213504Y-110100000D01*
X172203645Y-110006197D01*
X172194232Y-109916635D01*
X172194232Y-109916633D01*
X172193542Y-109910072D01*
X172134527Y-109728444D01*
X172039040Y-109563056D01*
X171999169Y-109518774D01*
X171915675Y-109426045D01*
X171915674Y-109426044D01*
X171911253Y-109421134D01*
X171756752Y-109308882D01*
X171750724Y-109306198D01*
X171750722Y-109306197D01*
X171588319Y-109233891D01*
X171588318Y-109233891D01*
X171582288Y-109231206D01*
X171488888Y-109211353D01*
X171401944Y-109192872D01*
X171401939Y-109192872D01*
X171395487Y-109191500D01*
X171204513Y-109191500D01*
X171198061Y-109192872D01*
X171198056Y-109192872D01*
X171111112Y-109211353D01*
X171017712Y-109231206D01*
X171011682Y-109233891D01*
X171011681Y-109233891D01*
X170849278Y-109306197D01*
X170849276Y-109306198D01*
X170843248Y-109308882D01*
X170688747Y-109421134D01*
X170684326Y-109426044D01*
X170684325Y-109426045D01*
X170600832Y-109518774D01*
X170560960Y-109563056D01*
X170465473Y-109728444D01*
X170406458Y-109910072D01*
X170405768Y-109916633D01*
X170405768Y-109916635D01*
X170396355Y-110006197D01*
X170386496Y-110100000D01*
X170387186Y-110106565D01*
X170401680Y-110244468D01*
X170388908Y-110314306D01*
X170370006Y-110341948D01*
X170260960Y-110463056D01*
X170165473Y-110628444D01*
X170106458Y-110810072D01*
X170086496Y-111000000D01*
X149539237Y-111000000D01*
X149563861Y-110957350D01*
X149581223Y-110927279D01*
X149581224Y-110927278D01*
X149584527Y-110921556D01*
X149643542Y-110739928D01*
X149656501Y-110616635D01*
X149662814Y-110556565D01*
X149663504Y-110550000D01*
X149643542Y-110360072D01*
X149584527Y-110178444D01*
X149489040Y-110013056D01*
X149388669Y-109901582D01*
X149365675Y-109876045D01*
X149365674Y-109876044D01*
X149361253Y-109871134D01*
X149206752Y-109758882D01*
X149200724Y-109756198D01*
X149200722Y-109756197D01*
X149038319Y-109683891D01*
X149038318Y-109683891D01*
X149032288Y-109681206D01*
X148938888Y-109661353D01*
X148851944Y-109642872D01*
X148851939Y-109642872D01*
X148845487Y-109641500D01*
X148654513Y-109641500D01*
X148649599Y-109642544D01*
X148580338Y-109629878D01*
X148527887Y-109580341D01*
X148521209Y-109568774D01*
X148489040Y-109513056D01*
X148402329Y-109416753D01*
X148371612Y-109352746D01*
X148376133Y-109293508D01*
X148384178Y-109268749D01*
X148393542Y-109239928D01*
X148413504Y-109050000D01*
X148408468Y-109002089D01*
X173090066Y-109002089D01*
X173126343Y-109239163D01*
X173200854Y-109467129D01*
X173203244Y-109471720D01*
X173307879Y-109672721D01*
X173311597Y-109679864D01*
X173314700Y-109683997D01*
X173314702Y-109684000D01*
X173446901Y-109860072D01*
X173455598Y-109871655D01*
X173628990Y-110037352D01*
X173633262Y-110040266D01*
X173633263Y-110040267D01*
X173746118Y-110117251D01*
X173827117Y-110172505D01*
X173958228Y-110233365D01*
X174011618Y-110258148D01*
X174044656Y-110273484D01*
X174275768Y-110337576D01*
X174379479Y-110348660D01*
X174468222Y-110358144D01*
X174468230Y-110358144D01*
X174471557Y-110358500D01*
X176210803Y-110358500D01*
X176213376Y-110358288D01*
X176213387Y-110358288D01*
X176383876Y-110344271D01*
X176383882Y-110344270D01*
X176389027Y-110343847D01*
X176544624Y-110304764D01*
X176616625Y-110286679D01*
X176616629Y-110286678D01*
X176621636Y-110285420D01*
X176626366Y-110283364D01*
X176626373Y-110283361D01*
X176836841Y-110191847D01*
X176836844Y-110191845D01*
X176841578Y-110189787D01*
X176845912Y-110186983D01*
X176845916Y-110186981D01*
X177038604Y-110062325D01*
X177038607Y-110062323D01*
X177042947Y-110059515D01*
X177064101Y-110040267D01*
X177216513Y-109901582D01*
X177216514Y-109901580D01*
X177220335Y-109898104D01*
X177223534Y-109894053D01*
X177223538Y-109894049D01*
X177365774Y-109713946D01*
X177368979Y-109709888D01*
X177484887Y-109499922D01*
X177537005Y-109352746D01*
X177563219Y-109278720D01*
X177563220Y-109278716D01*
X177564945Y-109273845D01*
X177566919Y-109262763D01*
X177606098Y-109042816D01*
X177606099Y-109042810D01*
X177607004Y-109037727D01*
X177609934Y-108797911D01*
X177573657Y-108560837D01*
X177499146Y-108332871D01*
X177400239Y-108142872D01*
X177390792Y-108124725D01*
X177390791Y-108124724D01*
X177388403Y-108120136D01*
X177365861Y-108090112D01*
X177247507Y-107932480D01*
X177247505Y-107932477D01*
X177244402Y-107928345D01*
X177149063Y-107837237D01*
X177074747Y-107766219D01*
X177074746Y-107766218D01*
X177071010Y-107762648D01*
X177064836Y-107758436D01*
X176877162Y-107630414D01*
X176877163Y-107630414D01*
X176872883Y-107627495D01*
X176655344Y-107526516D01*
X176424232Y-107462424D01*
X176320521Y-107451340D01*
X176231778Y-107441856D01*
X176231770Y-107441856D01*
X176228443Y-107441500D01*
X174489197Y-107441500D01*
X174486624Y-107441712D01*
X174486613Y-107441712D01*
X174316124Y-107455729D01*
X174316118Y-107455730D01*
X174310973Y-107456153D01*
X174194669Y-107485366D01*
X174083375Y-107513321D01*
X174083371Y-107513322D01*
X174078364Y-107514580D01*
X174073634Y-107516636D01*
X174073627Y-107516639D01*
X173863159Y-107608153D01*
X173863156Y-107608155D01*
X173858422Y-107610213D01*
X173854088Y-107613017D01*
X173854084Y-107613019D01*
X173661396Y-107737675D01*
X173661393Y-107737677D01*
X173657053Y-107740485D01*
X173653230Y-107743964D01*
X173653227Y-107743966D01*
X173580991Y-107809696D01*
X173479665Y-107901896D01*
X173476466Y-107905947D01*
X173476462Y-107905951D01*
X173455511Y-107932480D01*
X173331021Y-108090112D01*
X173215113Y-108300078D01*
X173201759Y-108337789D01*
X173137669Y-108518774D01*
X173135055Y-108526155D01*
X173134148Y-108531248D01*
X173134147Y-108531251D01*
X173106809Y-108684729D01*
X173092996Y-108762273D01*
X173090066Y-109002089D01*
X148408468Y-109002089D01*
X148393542Y-108860072D01*
X148334527Y-108678444D01*
X148239040Y-108513056D01*
X148111253Y-108371134D01*
X147956752Y-108258882D01*
X147950724Y-108256198D01*
X147950722Y-108256197D01*
X147788319Y-108183891D01*
X147788318Y-108183891D01*
X147782288Y-108181206D01*
X147688887Y-108161353D01*
X147601944Y-108142872D01*
X147601939Y-108142872D01*
X147595487Y-108141500D01*
X147404513Y-108141500D01*
X147398061Y-108142872D01*
X147398056Y-108142872D01*
X147311112Y-108161353D01*
X147217712Y-108181206D01*
X147211682Y-108183891D01*
X147211681Y-108183891D01*
X147049278Y-108256197D01*
X147049276Y-108256198D01*
X147043248Y-108258882D01*
X146888747Y-108371134D01*
X146760960Y-108513056D01*
X146665473Y-108678444D01*
X146606458Y-108860072D01*
X146586496Y-109050000D01*
X129707972Y-109050000D01*
X129707792Y-106254568D01*
X130137382Y-106254568D01*
X130137963Y-106259588D01*
X130137963Y-106259592D01*
X130141517Y-106290304D01*
X130166208Y-106503699D01*
X130167587Y-106508573D01*
X130167588Y-106508577D01*
X130224161Y-106708500D01*
X130234494Y-106745017D01*
X130236628Y-106749592D01*
X130236630Y-106749599D01*
X130338347Y-106967731D01*
X130340484Y-106972313D01*
X130343326Y-106976494D01*
X130343326Y-106976495D01*
X130478605Y-107175552D01*
X130478608Y-107175556D01*
X130481451Y-107179739D01*
X130484928Y-107183416D01*
X130484929Y-107183417D01*
X130585238Y-107289491D01*
X130653767Y-107361959D01*
X130657793Y-107365037D01*
X130657794Y-107365038D01*
X130848981Y-107511212D01*
X130848985Y-107511215D01*
X130853001Y-107514285D01*
X131074026Y-107632797D01*
X131078807Y-107634443D01*
X131078811Y-107634445D01*
X131304538Y-107712169D01*
X131311156Y-107714448D01*
X131414689Y-107732331D01*
X131554380Y-107756460D01*
X131554386Y-107756461D01*
X131558290Y-107757135D01*
X131562251Y-107757315D01*
X131562252Y-107757315D01*
X131586931Y-107758436D01*
X131586950Y-107758436D01*
X131588350Y-107758500D01*
X131763015Y-107758500D01*
X131765523Y-107758298D01*
X131765528Y-107758298D01*
X131944944Y-107743863D01*
X131944949Y-107743862D01*
X131949985Y-107743457D01*
X131954893Y-107742252D01*
X131954896Y-107742251D01*
X132188625Y-107684841D01*
X132193539Y-107683634D01*
X132198191Y-107681659D01*
X132198195Y-107681658D01*
X132419741Y-107587617D01*
X132419742Y-107587617D01*
X132424396Y-107585641D01*
X132630020Y-107456153D01*
X132632334Y-107454696D01*
X132632335Y-107454695D01*
X132636615Y-107452000D01*
X132824738Y-107286147D01*
X132983924Y-107092351D01*
X133008573Y-107050000D01*
X143836496Y-107050000D01*
X143837186Y-107056565D01*
X143853011Y-107207128D01*
X143856458Y-107239928D01*
X143915473Y-107421556D01*
X143918776Y-107427278D01*
X143918777Y-107427279D01*
X143938752Y-107461876D01*
X144010960Y-107586944D01*
X144015378Y-107591851D01*
X144015379Y-107591852D01*
X144052246Y-107632797D01*
X144138747Y-107728866D01*
X144179535Y-107758500D01*
X144250000Y-107809696D01*
X144293248Y-107841118D01*
X144299276Y-107843802D01*
X144299278Y-107843803D01*
X144429758Y-107901896D01*
X144467712Y-107918794D01*
X144561113Y-107938647D01*
X144648056Y-107957128D01*
X144648061Y-107957128D01*
X144654513Y-107958500D01*
X144845487Y-107958500D01*
X144851939Y-107957128D01*
X144851944Y-107957128D01*
X144938887Y-107938647D01*
X145032288Y-107918794D01*
X145070242Y-107901896D01*
X145200722Y-107843803D01*
X145200724Y-107843802D01*
X145206752Y-107841118D01*
X145250001Y-107809696D01*
X145320465Y-107758500D01*
X145361253Y-107728866D01*
X145447754Y-107632797D01*
X145484621Y-107591852D01*
X145484622Y-107591851D01*
X145489040Y-107586944D01*
X145561248Y-107461876D01*
X145581223Y-107427279D01*
X145581224Y-107427278D01*
X145584527Y-107421556D01*
X145643542Y-107239928D01*
X145646990Y-107207128D01*
X145662814Y-107056565D01*
X145663504Y-107050000D01*
X145655778Y-106976495D01*
X145644232Y-106866635D01*
X145644232Y-106866633D01*
X145643542Y-106860072D01*
X145584527Y-106678444D01*
X145577406Y-106666109D01*
X145534109Y-106591118D01*
X145489040Y-106513056D01*
X145468216Y-106489928D01*
X145365675Y-106376045D01*
X145365674Y-106376044D01*
X145361253Y-106371134D01*
X145263346Y-106300000D01*
X148336496Y-106300000D01*
X148337186Y-106306565D01*
X148355164Y-106477613D01*
X148356458Y-106489928D01*
X148415473Y-106671556D01*
X148418776Y-106677278D01*
X148418777Y-106677279D01*
X148436803Y-106708500D01*
X148510960Y-106836944D01*
X148515378Y-106841851D01*
X148515379Y-106841852D01*
X148537694Y-106866635D01*
X148638747Y-106978866D01*
X148793248Y-107091118D01*
X148799276Y-107093802D01*
X148799278Y-107093803D01*
X148804799Y-107096261D01*
X148967712Y-107168794D01*
X149061113Y-107188647D01*
X149148056Y-107207128D01*
X149148061Y-107207128D01*
X149154513Y-107208500D01*
X149345487Y-107208500D01*
X149351939Y-107207128D01*
X149351944Y-107207128D01*
X149438888Y-107188647D01*
X149532288Y-107168794D01*
X149695201Y-107096261D01*
X149700722Y-107093803D01*
X149700724Y-107093802D01*
X149706752Y-107091118D01*
X149763346Y-107050000D01*
X161086496Y-107050000D01*
X161087186Y-107056565D01*
X161103011Y-107207128D01*
X161106458Y-107239928D01*
X161165473Y-107421556D01*
X161168776Y-107427278D01*
X161168777Y-107427279D01*
X161188752Y-107461876D01*
X161260960Y-107586944D01*
X161265378Y-107591851D01*
X161265379Y-107591852D01*
X161302246Y-107632797D01*
X161388747Y-107728866D01*
X161429535Y-107758500D01*
X161500000Y-107809696D01*
X161543248Y-107841118D01*
X161549276Y-107843802D01*
X161549278Y-107843803D01*
X161679758Y-107901896D01*
X161717712Y-107918794D01*
X161811113Y-107938647D01*
X161898056Y-107957128D01*
X161898061Y-107957128D01*
X161904513Y-107958500D01*
X162095487Y-107958500D01*
X162101939Y-107957128D01*
X162101944Y-107957128D01*
X162188887Y-107938647D01*
X162282288Y-107918794D01*
X162328054Y-107898418D01*
X162350089Y-107888607D01*
X162448752Y-107844680D01*
X162519118Y-107835246D01*
X162551247Y-107844680D01*
X162649911Y-107888607D01*
X162671947Y-107898418D01*
X162717712Y-107918794D01*
X162811113Y-107938647D01*
X162898056Y-107957128D01*
X162898061Y-107957128D01*
X162904513Y-107958500D01*
X163095487Y-107958500D01*
X163101939Y-107957128D01*
X163101944Y-107957128D01*
X163188887Y-107938647D01*
X163282288Y-107918794D01*
X163320242Y-107901896D01*
X163450722Y-107843803D01*
X163450724Y-107843802D01*
X163456752Y-107841118D01*
X163500001Y-107809696D01*
X163570465Y-107758500D01*
X163611253Y-107728866D01*
X163697754Y-107632797D01*
X163734621Y-107591852D01*
X163734622Y-107591851D01*
X163739040Y-107586944D01*
X163811248Y-107461876D01*
X163831223Y-107427279D01*
X163831224Y-107427278D01*
X163834527Y-107421556D01*
X163893542Y-107239928D01*
X163896990Y-107207128D01*
X163912814Y-107056565D01*
X163913504Y-107050000D01*
X163905778Y-106976495D01*
X163894232Y-106866635D01*
X163894232Y-106866633D01*
X163893542Y-106860072D01*
X163834527Y-106678444D01*
X163827406Y-106666109D01*
X163784109Y-106591118D01*
X163739040Y-106513056D01*
X163718216Y-106489928D01*
X163615675Y-106376045D01*
X163615674Y-106376044D01*
X163611253Y-106371134D01*
X163504310Y-106293435D01*
X163462094Y-106262763D01*
X163462093Y-106262762D01*
X163456752Y-106258882D01*
X163450724Y-106256198D01*
X163450722Y-106256197D01*
X163288319Y-106183891D01*
X163288318Y-106183891D01*
X163282288Y-106181206D01*
X163188887Y-106161353D01*
X163101944Y-106142872D01*
X163101939Y-106142872D01*
X163095487Y-106141500D01*
X162904513Y-106141500D01*
X162898061Y-106142872D01*
X162898056Y-106142872D01*
X162811113Y-106161353D01*
X162717712Y-106181206D01*
X162551248Y-106255320D01*
X162480882Y-106264754D01*
X162448753Y-106255320D01*
X162282288Y-106181206D01*
X162188887Y-106161353D01*
X162101944Y-106142872D01*
X162101939Y-106142872D01*
X162095487Y-106141500D01*
X161904513Y-106141500D01*
X161898061Y-106142872D01*
X161898056Y-106142872D01*
X161811113Y-106161353D01*
X161717712Y-106181206D01*
X161711682Y-106183891D01*
X161711681Y-106183891D01*
X161549278Y-106256197D01*
X161549276Y-106256198D01*
X161543248Y-106258882D01*
X161537907Y-106262762D01*
X161537906Y-106262763D01*
X161495690Y-106293435D01*
X161388747Y-106371134D01*
X161384326Y-106376044D01*
X161384325Y-106376045D01*
X161281785Y-106489928D01*
X161260960Y-106513056D01*
X161215891Y-106591118D01*
X161172595Y-106666109D01*
X161165473Y-106678444D01*
X161106458Y-106860072D01*
X161105768Y-106866633D01*
X161105768Y-106866635D01*
X161094222Y-106976495D01*
X161086496Y-107050000D01*
X149763346Y-107050000D01*
X149861253Y-106978866D01*
X149962306Y-106866635D01*
X149984621Y-106841852D01*
X149984622Y-106841851D01*
X149989040Y-106836944D01*
X150063197Y-106708500D01*
X150081223Y-106677279D01*
X150081224Y-106677278D01*
X150084527Y-106671556D01*
X150143542Y-106489928D01*
X150144837Y-106477613D01*
X150162814Y-106306565D01*
X150163504Y-106300000D01*
X150151301Y-106183891D01*
X150144232Y-106116635D01*
X150144232Y-106116633D01*
X150143542Y-106110072D01*
X150110244Y-106007592D01*
X150108216Y-105936626D01*
X150144879Y-105875828D01*
X150178827Y-105853551D01*
X150206752Y-105841118D01*
X150263346Y-105800000D01*
X155086496Y-105800000D01*
X155087186Y-105806565D01*
X155097147Y-105901334D01*
X155106458Y-105989928D01*
X155165473Y-106171556D01*
X155168776Y-106177278D01*
X155168777Y-106177279D01*
X155202686Y-106236010D01*
X155260960Y-106336944D01*
X155265378Y-106341851D01*
X155265379Y-106341852D01*
X155297575Y-106377609D01*
X155388747Y-106478866D01*
X155543248Y-106591118D01*
X155549276Y-106593802D01*
X155549278Y-106593803D01*
X155666922Y-106646181D01*
X155717712Y-106668794D01*
X155792680Y-106684729D01*
X155898056Y-106707128D01*
X155898061Y-106707128D01*
X155904513Y-106708500D01*
X156095487Y-106708500D01*
X156101939Y-106707128D01*
X156101944Y-106707128D01*
X156207320Y-106684729D01*
X156282288Y-106668794D01*
X156333078Y-106646181D01*
X156450722Y-106593803D01*
X156450724Y-106593802D01*
X156456752Y-106591118D01*
X156611253Y-106478866D01*
X156702425Y-106377609D01*
X156734621Y-106341852D01*
X156734622Y-106341851D01*
X156739040Y-106336944D01*
X156797314Y-106236010D01*
X156831223Y-106177279D01*
X156831224Y-106177278D01*
X156834527Y-106171556D01*
X156893542Y-105989928D01*
X156902854Y-105901334D01*
X156912814Y-105806565D01*
X156913504Y-105800000D01*
X156906028Y-105728866D01*
X156894232Y-105616635D01*
X156894232Y-105616633D01*
X156893542Y-105610072D01*
X156855365Y-105492575D01*
X174286404Y-105492575D01*
X174287888Y-105508882D01*
X174301628Y-105659852D01*
X174305218Y-105699303D01*
X174306956Y-105705209D01*
X174306957Y-105705213D01*
X174336787Y-105806565D01*
X174363827Y-105898440D01*
X174459999Y-106082400D01*
X174590071Y-106244177D01*
X174594788Y-106248135D01*
X174594790Y-106248137D01*
X174645043Y-106290304D01*
X174749089Y-106377609D01*
X174754481Y-106380573D01*
X174754485Y-106380576D01*
X174924341Y-106473955D01*
X174930995Y-106477613D01*
X175128861Y-106540379D01*
X175134978Y-106541065D01*
X175134982Y-106541066D01*
X175211598Y-106549659D01*
X175290413Y-106558500D01*
X175402237Y-106558500D01*
X175405293Y-106558200D01*
X175405300Y-106558200D01*
X175550466Y-106543966D01*
X175550469Y-106543965D01*
X175556592Y-106543365D01*
X175712793Y-106496206D01*
X175749407Y-106485152D01*
X175749410Y-106485151D01*
X175755315Y-106483368D01*
X175763782Y-106478866D01*
X175933153Y-106388809D01*
X175933155Y-106388808D01*
X175938599Y-106385913D01*
X176005652Y-106331226D01*
X176094689Y-106258610D01*
X176094692Y-106258607D01*
X176099464Y-106254715D01*
X176161412Y-106179834D01*
X176227855Y-106099518D01*
X176231783Y-106094770D01*
X176235876Y-106087201D01*
X176327584Y-105917590D01*
X176327586Y-105917585D01*
X176330514Y-105912170D01*
X176391898Y-105713871D01*
X176393429Y-105699303D01*
X176412952Y-105513554D01*
X176412952Y-105513552D01*
X176413596Y-105507425D01*
X176398461Y-105341118D01*
X176395341Y-105306836D01*
X176395340Y-105306833D01*
X176394782Y-105300697D01*
X176392298Y-105292255D01*
X176337912Y-105107469D01*
X176336173Y-105101560D01*
X176240001Y-104917600D01*
X176109929Y-104755823D01*
X176097371Y-104745285D01*
X175955629Y-104626350D01*
X175950911Y-104622391D01*
X175945519Y-104619427D01*
X175945515Y-104619424D01*
X175774402Y-104525354D01*
X175769005Y-104522387D01*
X175571139Y-104459621D01*
X175565022Y-104458935D01*
X175565018Y-104458934D01*
X175488402Y-104450341D01*
X175409587Y-104441500D01*
X175297763Y-104441500D01*
X175294707Y-104441800D01*
X175294700Y-104441800D01*
X175149534Y-104456034D01*
X175149531Y-104456035D01*
X175143408Y-104456635D01*
X175011454Y-104496474D01*
X174950593Y-104514848D01*
X174950590Y-104514849D01*
X174944685Y-104516632D01*
X174939240Y-104519527D01*
X174939238Y-104519528D01*
X174766847Y-104611191D01*
X174766845Y-104611192D01*
X174761401Y-104614087D01*
X174709345Y-104656543D01*
X174605311Y-104741390D01*
X174605308Y-104741393D01*
X174600536Y-104745285D01*
X174596608Y-104750033D01*
X174596607Y-104750034D01*
X174510769Y-104853794D01*
X174468217Y-104905230D01*
X174465288Y-104910647D01*
X174465286Y-104910650D01*
X174372416Y-105082410D01*
X174372414Y-105082415D01*
X174369486Y-105087830D01*
X174308102Y-105286129D01*
X174307458Y-105292254D01*
X174307458Y-105292255D01*
X174290130Y-105457128D01*
X174286404Y-105492575D01*
X156855365Y-105492575D01*
X156834527Y-105428444D01*
X156827406Y-105416109D01*
X156783536Y-105340126D01*
X156739040Y-105263056D01*
X156718216Y-105239928D01*
X156615675Y-105126045D01*
X156615674Y-105126044D01*
X156611253Y-105121134D01*
X156456752Y-105008882D01*
X156450724Y-105006198D01*
X156450722Y-105006197D01*
X156288319Y-104933891D01*
X156288318Y-104933891D01*
X156282288Y-104931206D01*
X156185580Y-104910650D01*
X156101944Y-104892872D01*
X156101939Y-104892872D01*
X156095487Y-104891500D01*
X155904513Y-104891500D01*
X155898061Y-104892872D01*
X155898056Y-104892872D01*
X155814420Y-104910650D01*
X155717712Y-104931206D01*
X155711682Y-104933891D01*
X155711681Y-104933891D01*
X155549278Y-105006197D01*
X155549276Y-105006198D01*
X155543248Y-105008882D01*
X155388747Y-105121134D01*
X155384326Y-105126044D01*
X155384325Y-105126045D01*
X155281785Y-105239928D01*
X155260960Y-105263056D01*
X155216464Y-105340126D01*
X155172595Y-105416109D01*
X155165473Y-105428444D01*
X155106458Y-105610072D01*
X155105768Y-105616633D01*
X155105768Y-105616635D01*
X155093972Y-105728866D01*
X155086496Y-105800000D01*
X150263346Y-105800000D01*
X150361253Y-105728866D01*
X150374755Y-105713871D01*
X150484621Y-105591852D01*
X150484622Y-105591851D01*
X150489040Y-105586944D01*
X150563197Y-105458500D01*
X150581223Y-105427279D01*
X150581224Y-105427278D01*
X150584527Y-105421556D01*
X150591944Y-105398730D01*
X150632018Y-105340126D01*
X150697415Y-105312490D01*
X150767371Y-105324598D01*
X150785841Y-105335736D01*
X150793248Y-105341118D01*
X150799276Y-105343802D01*
X150799278Y-105343803D01*
X150955538Y-105413374D01*
X150967712Y-105418794D01*
X151031107Y-105432269D01*
X151148056Y-105457128D01*
X151148061Y-105457128D01*
X151154513Y-105458500D01*
X151345487Y-105458500D01*
X151351939Y-105457128D01*
X151351944Y-105457128D01*
X151468893Y-105432269D01*
X151532288Y-105418794D01*
X151544462Y-105413374D01*
X151700722Y-105343803D01*
X151700724Y-105343802D01*
X151706752Y-105341118D01*
X151714159Y-105335737D01*
X151774006Y-105292255D01*
X151861253Y-105228866D01*
X151872313Y-105216583D01*
X151984621Y-105091852D01*
X151984622Y-105091851D01*
X151989040Y-105086944D01*
X152070816Y-104945304D01*
X152081223Y-104927279D01*
X152081224Y-104927278D01*
X152084527Y-104921556D01*
X152143542Y-104739928D01*
X152146019Y-104716366D01*
X152162814Y-104556565D01*
X152163504Y-104550000D01*
X152143542Y-104360072D01*
X152084527Y-104178444D01*
X152063990Y-104142872D01*
X152043353Y-104107128D01*
X151989040Y-104013056D01*
X151965793Y-103987237D01*
X151865675Y-103876045D01*
X151865674Y-103876044D01*
X151861253Y-103871134D01*
X151706752Y-103758882D01*
X151700724Y-103756198D01*
X151700722Y-103756197D01*
X151538319Y-103683891D01*
X151538318Y-103683891D01*
X151532288Y-103681206D01*
X151438888Y-103661353D01*
X151351944Y-103642872D01*
X151351939Y-103642872D01*
X151345487Y-103641500D01*
X151154513Y-103641500D01*
X151148061Y-103642872D01*
X151148056Y-103642872D01*
X151061112Y-103661353D01*
X150967712Y-103681206D01*
X150961682Y-103683891D01*
X150961681Y-103683891D01*
X150799278Y-103756197D01*
X150799276Y-103756198D01*
X150793248Y-103758882D01*
X150638747Y-103871134D01*
X150634326Y-103876044D01*
X150634325Y-103876045D01*
X150534208Y-103987237D01*
X150510960Y-104013056D01*
X150456647Y-104107128D01*
X150436011Y-104142872D01*
X150415473Y-104178444D01*
X150413431Y-104184729D01*
X150408057Y-104201269D01*
X150367982Y-104259874D01*
X150302585Y-104287510D01*
X150232629Y-104275402D01*
X150214158Y-104264263D01*
X150206752Y-104258882D01*
X150200724Y-104256198D01*
X150200722Y-104256197D01*
X150038319Y-104183891D01*
X150038318Y-104183891D01*
X150032288Y-104181206D01*
X149938887Y-104161353D01*
X149851944Y-104142872D01*
X149851939Y-104142872D01*
X149845487Y-104141500D01*
X149654513Y-104141500D01*
X149648061Y-104142872D01*
X149648056Y-104142872D01*
X149561113Y-104161353D01*
X149467712Y-104181206D01*
X149461682Y-104183891D01*
X149461681Y-104183891D01*
X149299278Y-104256197D01*
X149299276Y-104256198D01*
X149293248Y-104258882D01*
X149287907Y-104262762D01*
X149287906Y-104262763D01*
X149270510Y-104275402D01*
X149138747Y-104371134D01*
X149134326Y-104376044D01*
X149134325Y-104376045D01*
X149057396Y-104461484D01*
X149010960Y-104513056D01*
X148985840Y-104556565D01*
X148928118Y-104656543D01*
X148915473Y-104678444D01*
X148856458Y-104860072D01*
X148855768Y-104866633D01*
X148855768Y-104866635D01*
X148846865Y-104951345D01*
X148836496Y-105050000D01*
X148837186Y-105056565D01*
X148844489Y-105126045D01*
X148856458Y-105239928D01*
X148889756Y-105342408D01*
X148891784Y-105413374D01*
X148855121Y-105474172D01*
X148821173Y-105496449D01*
X148793248Y-105508882D01*
X148787907Y-105512762D01*
X148787906Y-105512763D01*
X148737843Y-105549136D01*
X148638747Y-105621134D01*
X148634326Y-105626044D01*
X148634325Y-105626045D01*
X148538249Y-105732749D01*
X148510960Y-105763056D01*
X148465891Y-105841118D01*
X148421740Y-105917590D01*
X148415473Y-105928444D01*
X148356458Y-106110072D01*
X148355768Y-106116633D01*
X148355768Y-106116635D01*
X148348699Y-106183891D01*
X148336496Y-106300000D01*
X145263346Y-106300000D01*
X145254310Y-106293435D01*
X145212094Y-106262763D01*
X145212093Y-106262762D01*
X145206752Y-106258882D01*
X145200724Y-106256198D01*
X145200722Y-106256197D01*
X145038319Y-106183891D01*
X145038318Y-106183891D01*
X145032288Y-106181206D01*
X144938887Y-106161353D01*
X144851944Y-106142872D01*
X144851939Y-106142872D01*
X144845487Y-106141500D01*
X144654513Y-106141500D01*
X144648061Y-106142872D01*
X144648056Y-106142872D01*
X144561113Y-106161353D01*
X144467712Y-106181206D01*
X144461682Y-106183891D01*
X144461681Y-106183891D01*
X144299278Y-106256197D01*
X144299276Y-106256198D01*
X144293248Y-106258882D01*
X144287907Y-106262762D01*
X144287906Y-106262763D01*
X144245690Y-106293435D01*
X144138747Y-106371134D01*
X144134326Y-106376044D01*
X144134325Y-106376045D01*
X144031785Y-106489928D01*
X144010960Y-106513056D01*
X143965891Y-106591118D01*
X143922595Y-106666109D01*
X143915473Y-106678444D01*
X143856458Y-106860072D01*
X143855768Y-106866633D01*
X143855768Y-106866635D01*
X143844222Y-106976495D01*
X143836496Y-107050000D01*
X133008573Y-107050000D01*
X133110078Y-106875596D01*
X133199955Y-106641461D01*
X133209912Y-106593803D01*
X133250206Y-106400921D01*
X133251241Y-106395967D01*
X133252255Y-106373650D01*
X133257871Y-106249966D01*
X133262618Y-106145432D01*
X133257306Y-106099518D01*
X133234374Y-105901334D01*
X133233792Y-105896301D01*
X133221695Y-105853549D01*
X133166884Y-105659852D01*
X133166883Y-105659850D01*
X133165506Y-105654983D01*
X133163372Y-105650408D01*
X133163370Y-105650401D01*
X133061653Y-105432269D01*
X133061651Y-105432265D01*
X133059516Y-105427687D01*
X133051648Y-105416109D01*
X132921395Y-105224448D01*
X132921392Y-105224444D01*
X132918549Y-105220261D01*
X132817925Y-105113853D01*
X132749713Y-105041721D01*
X132746233Y-105038041D01*
X132704583Y-105006197D01*
X132551019Y-104888788D01*
X132551015Y-104888785D01*
X132546999Y-104885715D01*
X132325974Y-104767203D01*
X132321193Y-104765557D01*
X132321189Y-104765555D01*
X132093633Y-104687201D01*
X132088844Y-104685552D01*
X131985311Y-104667669D01*
X131845620Y-104643540D01*
X131845614Y-104643539D01*
X131841710Y-104642865D01*
X131837749Y-104642685D01*
X131837748Y-104642685D01*
X131813069Y-104641564D01*
X131813050Y-104641564D01*
X131811650Y-104641500D01*
X131636985Y-104641500D01*
X131634477Y-104641702D01*
X131634472Y-104641702D01*
X131455056Y-104656137D01*
X131455051Y-104656138D01*
X131450015Y-104656543D01*
X131445107Y-104657748D01*
X131445104Y-104657749D01*
X131213326Y-104714680D01*
X131206461Y-104716366D01*
X131201809Y-104718341D01*
X131201805Y-104718342D01*
X131081061Y-104769595D01*
X130975604Y-104814359D01*
X130971320Y-104817057D01*
X130790054Y-104931206D01*
X130763385Y-104948000D01*
X130575262Y-105113853D01*
X130416076Y-105307649D01*
X130289922Y-105524404D01*
X130200045Y-105758539D01*
X130199012Y-105763485D01*
X130199010Y-105763491D01*
X130175542Y-105875828D01*
X130148759Y-106004033D01*
X130148530Y-106009082D01*
X130148529Y-106009088D01*
X130144423Y-106099518D01*
X130137382Y-106254568D01*
X129707792Y-106254568D01*
X129707506Y-101806695D01*
X130387251Y-101806695D01*
X130387548Y-101811848D01*
X130387548Y-101811851D01*
X130396004Y-101958500D01*
X130400110Y-102029715D01*
X130401247Y-102034761D01*
X130401248Y-102034767D01*
X130421119Y-102122939D01*
X130449222Y-102247639D01*
X130533266Y-102454616D01*
X130649987Y-102645088D01*
X130796250Y-102813938D01*
X130968126Y-102956632D01*
X131161000Y-103069338D01*
X131369692Y-103149030D01*
X131374760Y-103150061D01*
X131374763Y-103150062D01*
X131473578Y-103170166D01*
X131588597Y-103193567D01*
X131593772Y-103193757D01*
X131593774Y-103193757D01*
X131806673Y-103201564D01*
X131806677Y-103201564D01*
X131811837Y-103201753D01*
X131816957Y-103201097D01*
X131816959Y-103201097D01*
X132028288Y-103174025D01*
X132028289Y-103174025D01*
X132033416Y-103173368D01*
X132048662Y-103168794D01*
X132242429Y-103110661D01*
X132242434Y-103110659D01*
X132247384Y-103109174D01*
X132447994Y-103010896D01*
X132629860Y-102881173D01*
X132788096Y-102723489D01*
X132825414Y-102671556D01*
X132915435Y-102546277D01*
X132918453Y-102542077D01*
X132926377Y-102526045D01*
X133015136Y-102346453D01*
X133015137Y-102346451D01*
X133017430Y-102341811D01*
X133030133Y-102300000D01*
X144586496Y-102300000D01*
X144587186Y-102306565D01*
X144602747Y-102454616D01*
X144606458Y-102489928D01*
X144665473Y-102671556D01*
X144760960Y-102836944D01*
X144765378Y-102841851D01*
X144765379Y-102841852D01*
X144868727Y-102956632D01*
X144888747Y-102978866D01*
X144987843Y-103050864D01*
X145013271Y-103069338D01*
X145043248Y-103091118D01*
X145049276Y-103093802D01*
X145049278Y-103093803D01*
X145169177Y-103147185D01*
X145217712Y-103168794D01*
X145311113Y-103188647D01*
X145398056Y-103207128D01*
X145398061Y-103207128D01*
X145404513Y-103208500D01*
X145595487Y-103208500D01*
X145601939Y-103207128D01*
X145601944Y-103207128D01*
X145688887Y-103188647D01*
X145782288Y-103168794D01*
X145830823Y-103147185D01*
X145950722Y-103093803D01*
X145950724Y-103093802D01*
X145956752Y-103091118D01*
X145986730Y-103069338D01*
X146012157Y-103050864D01*
X146111253Y-102978866D01*
X146131273Y-102956632D01*
X146234621Y-102841852D01*
X146234622Y-102841851D01*
X146239040Y-102836944D01*
X146334527Y-102671556D01*
X146374023Y-102550000D01*
X147086496Y-102550000D01*
X147087186Y-102556565D01*
X147105114Y-102727137D01*
X147106458Y-102739928D01*
X147165473Y-102921556D01*
X147260960Y-103086944D01*
X147265378Y-103091851D01*
X147265379Y-103091852D01*
X147356845Y-103193435D01*
X147388747Y-103228866D01*
X147543248Y-103341118D01*
X147549276Y-103343802D01*
X147549278Y-103343803D01*
X147666978Y-103396206D01*
X147717712Y-103418794D01*
X147811113Y-103438647D01*
X147898056Y-103457128D01*
X147898061Y-103457128D01*
X147904513Y-103458500D01*
X148095487Y-103458500D01*
X148101939Y-103457128D01*
X148101944Y-103457128D01*
X148188887Y-103438647D01*
X148282288Y-103418794D01*
X148333022Y-103396206D01*
X148450722Y-103343803D01*
X148450724Y-103343802D01*
X148456752Y-103341118D01*
X148611253Y-103228866D01*
X148637244Y-103200000D01*
X163479362Y-103200000D01*
X163499324Y-103389928D01*
X163558339Y-103571556D01*
X163653826Y-103736944D01*
X163658244Y-103741851D01*
X163658245Y-103741852D01*
X163771155Y-103867251D01*
X163781613Y-103878866D01*
X163936114Y-103991118D01*
X163942142Y-103993802D01*
X163942144Y-103993803D01*
X164104547Y-104066109D01*
X164110578Y-104068794D01*
X164203979Y-104088647D01*
X164290922Y-104107128D01*
X164290927Y-104107128D01*
X164297379Y-104108500D01*
X164488353Y-104108500D01*
X164494805Y-104107128D01*
X164494810Y-104107128D01*
X164581753Y-104088647D01*
X164675154Y-104068794D01*
X164681185Y-104066109D01*
X164843588Y-103993803D01*
X164843590Y-103993802D01*
X164849618Y-103991118D01*
X165004119Y-103878866D01*
X165014577Y-103867251D01*
X165127487Y-103741852D01*
X165127488Y-103741851D01*
X165131906Y-103736944D01*
X165227393Y-103571556D01*
X165286408Y-103389928D01*
X165306370Y-103200000D01*
X168548996Y-103200000D01*
X168568958Y-103389928D01*
X168627973Y-103571556D01*
X168723460Y-103736944D01*
X168727878Y-103741851D01*
X168727879Y-103741852D01*
X168840789Y-103867251D01*
X168851247Y-103878866D01*
X169005748Y-103991118D01*
X169011776Y-103993802D01*
X169011778Y-103993803D01*
X169174181Y-104066109D01*
X169180212Y-104068794D01*
X169273613Y-104088647D01*
X169360556Y-104107128D01*
X169360561Y-104107128D01*
X169367013Y-104108500D01*
X169557987Y-104108500D01*
X169564439Y-104107128D01*
X169564444Y-104107128D01*
X169651387Y-104088647D01*
X169744788Y-104068794D01*
X169750819Y-104066109D01*
X169913222Y-103993803D01*
X169913224Y-103993802D01*
X169919252Y-103991118D01*
X170073753Y-103878866D01*
X170084211Y-103867251D01*
X170197121Y-103741852D01*
X170197122Y-103741851D01*
X170201540Y-103736944D01*
X170297027Y-103571556D01*
X170356042Y-103389928D01*
X170376004Y-103200000D01*
X170364152Y-103087237D01*
X170356732Y-103016635D01*
X170356732Y-103016633D01*
X170356042Y-103010072D01*
X170297027Y-102828444D01*
X170290559Y-102817240D01*
X170234008Y-102719292D01*
X170201540Y-102663056D01*
X170073753Y-102521134D01*
X169919252Y-102408882D01*
X169913224Y-102406198D01*
X169913222Y-102406197D01*
X169750819Y-102333891D01*
X169750818Y-102333891D01*
X169744788Y-102331206D01*
X169628862Y-102306565D01*
X169564444Y-102292872D01*
X169564439Y-102292872D01*
X169557987Y-102291500D01*
X169367013Y-102291500D01*
X169360561Y-102292872D01*
X169360556Y-102292872D01*
X169296138Y-102306565D01*
X169180212Y-102331206D01*
X169174182Y-102333891D01*
X169174181Y-102333891D01*
X169011778Y-102406197D01*
X169011776Y-102406198D01*
X169005748Y-102408882D01*
X168851247Y-102521134D01*
X168723460Y-102663056D01*
X168690992Y-102719292D01*
X168634442Y-102817240D01*
X168627973Y-102828444D01*
X168568958Y-103010072D01*
X168568268Y-103016633D01*
X168568268Y-103016635D01*
X168560848Y-103087237D01*
X168548996Y-103200000D01*
X165306370Y-103200000D01*
X165294518Y-103087237D01*
X165287098Y-103016635D01*
X165287098Y-103016633D01*
X165286408Y-103010072D01*
X165227393Y-102828444D01*
X165220925Y-102817240D01*
X165164374Y-102719292D01*
X165131906Y-102663056D01*
X165004119Y-102521134D01*
X164849618Y-102408882D01*
X164843590Y-102406198D01*
X164843588Y-102406197D01*
X164681185Y-102333891D01*
X164681184Y-102333891D01*
X164675154Y-102331206D01*
X164559228Y-102306565D01*
X164494810Y-102292872D01*
X164494805Y-102292872D01*
X164488353Y-102291500D01*
X164297379Y-102291500D01*
X164290927Y-102292872D01*
X164290922Y-102292872D01*
X164226504Y-102306565D01*
X164110578Y-102331206D01*
X164104548Y-102333891D01*
X164104547Y-102333891D01*
X163942144Y-102406197D01*
X163942142Y-102406198D01*
X163936114Y-102408882D01*
X163781613Y-102521134D01*
X163653826Y-102663056D01*
X163621358Y-102719292D01*
X163564808Y-102817240D01*
X163558339Y-102828444D01*
X163499324Y-103010072D01*
X163498634Y-103016633D01*
X163498634Y-103016635D01*
X163491214Y-103087237D01*
X163479362Y-103200000D01*
X148637244Y-103200000D01*
X148643155Y-103193435D01*
X148734621Y-103091852D01*
X148734622Y-103091851D01*
X148739040Y-103086944D01*
X148834527Y-102921556D01*
X148893542Y-102739928D01*
X148894887Y-102727137D01*
X148912814Y-102556565D01*
X148913504Y-102550000D01*
X148907190Y-102489928D01*
X148894232Y-102366635D01*
X148894232Y-102366633D01*
X148893542Y-102360072D01*
X148834527Y-102178444D01*
X148739040Y-102013056D01*
X148689648Y-101958200D01*
X148615675Y-101876045D01*
X148615674Y-101876044D01*
X148611253Y-101871134D01*
X148486611Y-101780576D01*
X148462094Y-101762763D01*
X148462093Y-101762762D01*
X148456752Y-101758882D01*
X148450724Y-101756198D01*
X148450722Y-101756197D01*
X148288319Y-101683891D01*
X148288318Y-101683891D01*
X148282288Y-101681206D01*
X148175983Y-101658610D01*
X148101944Y-101642872D01*
X148101939Y-101642872D01*
X148095487Y-101641500D01*
X147904513Y-101641500D01*
X147898061Y-101642872D01*
X147898056Y-101642872D01*
X147824017Y-101658610D01*
X147717712Y-101681206D01*
X147711682Y-101683891D01*
X147711681Y-101683891D01*
X147549278Y-101756197D01*
X147549276Y-101756198D01*
X147543248Y-101758882D01*
X147537907Y-101762762D01*
X147537906Y-101762763D01*
X147513389Y-101780576D01*
X147388747Y-101871134D01*
X147384326Y-101876044D01*
X147384325Y-101876045D01*
X147310353Y-101958200D01*
X147260960Y-102013056D01*
X147165473Y-102178444D01*
X147106458Y-102360072D01*
X147105768Y-102366633D01*
X147105768Y-102366635D01*
X147092810Y-102489928D01*
X147086496Y-102550000D01*
X146374023Y-102550000D01*
X146393542Y-102489928D01*
X146397254Y-102454616D01*
X146412814Y-102306565D01*
X146413504Y-102300000D01*
X146395434Y-102128069D01*
X146394232Y-102116635D01*
X146394232Y-102116633D01*
X146393542Y-102110072D01*
X146334527Y-101928444D01*
X146319976Y-101903240D01*
X146297314Y-101863990D01*
X146239040Y-101763056D01*
X146141490Y-101654715D01*
X146115675Y-101626045D01*
X146115674Y-101626044D01*
X146111253Y-101621134D01*
X145956752Y-101508882D01*
X145950724Y-101506198D01*
X145950722Y-101506197D01*
X145788319Y-101433891D01*
X145788318Y-101433891D01*
X145782288Y-101431206D01*
X145688887Y-101411353D01*
X145601944Y-101392872D01*
X145601939Y-101392872D01*
X145595487Y-101391500D01*
X145404513Y-101391500D01*
X145398061Y-101392872D01*
X145398056Y-101392872D01*
X145311112Y-101411353D01*
X145217712Y-101431206D01*
X145211682Y-101433891D01*
X145211681Y-101433891D01*
X145049278Y-101506197D01*
X145049276Y-101506198D01*
X145043248Y-101508882D01*
X144888747Y-101621134D01*
X144884326Y-101626044D01*
X144884325Y-101626045D01*
X144858511Y-101654715D01*
X144760960Y-101763056D01*
X144702686Y-101863990D01*
X144680025Y-101903240D01*
X144665473Y-101928444D01*
X144606458Y-102110072D01*
X144605768Y-102116633D01*
X144605768Y-102116635D01*
X144604566Y-102128069D01*
X144586496Y-102300000D01*
X133030133Y-102300000D01*
X133082370Y-102128069D01*
X133111529Y-101906590D01*
X133112053Y-101885152D01*
X133113074Y-101843365D01*
X133113074Y-101843361D01*
X133113156Y-101840000D01*
X133094852Y-101617361D01*
X133040431Y-101400702D01*
X132951354Y-101195840D01*
X132830014Y-101008277D01*
X132724733Y-100892575D01*
X174286404Y-100892575D01*
X174305218Y-101099303D01*
X174306956Y-101105209D01*
X174306957Y-101105213D01*
X174333630Y-101195840D01*
X174363827Y-101298440D01*
X174459999Y-101482400D01*
X174590071Y-101644177D01*
X174594788Y-101648135D01*
X174594790Y-101648137D01*
X174632565Y-101679834D01*
X174749089Y-101777609D01*
X174754481Y-101780573D01*
X174754485Y-101780576D01*
X174862577Y-101840000D01*
X174930995Y-101877613D01*
X175128861Y-101940379D01*
X175134978Y-101941065D01*
X175134982Y-101941066D01*
X175211598Y-101949659D01*
X175290413Y-101958500D01*
X175402237Y-101958500D01*
X175405293Y-101958200D01*
X175405300Y-101958200D01*
X175550466Y-101943966D01*
X175550469Y-101943965D01*
X175556592Y-101943365D01*
X175689495Y-101903240D01*
X175749407Y-101885152D01*
X175749410Y-101885151D01*
X175755315Y-101883368D01*
X175762635Y-101879476D01*
X175933153Y-101788809D01*
X175933155Y-101788808D01*
X175938599Y-101785913D01*
X176066983Y-101681206D01*
X176094689Y-101658610D01*
X176094692Y-101658607D01*
X176099464Y-101654715D01*
X176109262Y-101642872D01*
X176227855Y-101499518D01*
X176231783Y-101494770D01*
X176235876Y-101487201D01*
X176327584Y-101317590D01*
X176327586Y-101317585D01*
X176330514Y-101312170D01*
X176391898Y-101113871D01*
X176393429Y-101099303D01*
X176412952Y-100913554D01*
X176412952Y-100913552D01*
X176413596Y-100907425D01*
X176395492Y-100708500D01*
X176395341Y-100706836D01*
X176395340Y-100706833D01*
X176394782Y-100700697D01*
X176392298Y-100692255D01*
X176337912Y-100507469D01*
X176336173Y-100501560D01*
X176240001Y-100317600D01*
X176109929Y-100155823D01*
X176097371Y-100145285D01*
X175955629Y-100026350D01*
X175950911Y-100022391D01*
X175945519Y-100019427D01*
X175945515Y-100019424D01*
X175774402Y-99925354D01*
X175769005Y-99922387D01*
X175571139Y-99859621D01*
X175565022Y-99858935D01*
X175565018Y-99858934D01*
X175488402Y-99850341D01*
X175409587Y-99841500D01*
X175297763Y-99841500D01*
X175294707Y-99841800D01*
X175294700Y-99841800D01*
X175149534Y-99856034D01*
X175149531Y-99856035D01*
X175143408Y-99856635D01*
X175011454Y-99896474D01*
X174950593Y-99914848D01*
X174950590Y-99914849D01*
X174944685Y-99916632D01*
X174939240Y-99919527D01*
X174939238Y-99919528D01*
X174766847Y-100011191D01*
X174766845Y-100011192D01*
X174761401Y-100014087D01*
X174746365Y-100026350D01*
X174605311Y-100141390D01*
X174605308Y-100141393D01*
X174600536Y-100145285D01*
X174596608Y-100150033D01*
X174596607Y-100150034D01*
X174502728Y-100263514D01*
X174468217Y-100305230D01*
X174465288Y-100310647D01*
X174465286Y-100310650D01*
X174372416Y-100482410D01*
X174372414Y-100482415D01*
X174369486Y-100487830D01*
X174308102Y-100686129D01*
X174307458Y-100692254D01*
X174307458Y-100692255D01*
X174305926Y-100706836D01*
X174286404Y-100892575D01*
X132724733Y-100892575D01*
X132679670Y-100843051D01*
X132675619Y-100839852D01*
X132675615Y-100839848D01*
X132508414Y-100707800D01*
X132508410Y-100707798D01*
X132504359Y-100704598D01*
X132497293Y-100700697D01*
X132462569Y-100681529D01*
X132412598Y-100631097D01*
X132397826Y-100561654D01*
X132422942Y-100495248D01*
X132450294Y-100468641D01*
X132625328Y-100343792D01*
X132633200Y-100337139D01*
X132784052Y-100186812D01*
X132790730Y-100178965D01*
X132915003Y-100006020D01*
X132920313Y-99997183D01*
X133014670Y-99806267D01*
X133018469Y-99796672D01*
X133080377Y-99592910D01*
X133082555Y-99582837D01*
X133083986Y-99571962D01*
X133081775Y-99557778D01*
X133068617Y-99554000D01*
X130433225Y-99554000D01*
X130419694Y-99557973D01*
X130418257Y-99567966D01*
X130448565Y-99702446D01*
X130451645Y-99712275D01*
X130531770Y-99909603D01*
X130536413Y-99918794D01*
X130647694Y-100100388D01*
X130653777Y-100108699D01*
X130793213Y-100269667D01*
X130800580Y-100276883D01*
X130964434Y-100412916D01*
X130972881Y-100418831D01*
X131041969Y-100459203D01*
X131090693Y-100510842D01*
X131103764Y-100580625D01*
X131077033Y-100646396D01*
X131036584Y-100679752D01*
X131023607Y-100686507D01*
X131019474Y-100689610D01*
X131019471Y-100689612D01*
X130996531Y-100706836D01*
X130844965Y-100820635D01*
X130690629Y-100982138D01*
X130564743Y-101166680D01*
X130470688Y-101369305D01*
X130410989Y-101584570D01*
X130387251Y-101806695D01*
X129707506Y-101806695D01*
X129707345Y-99300000D01*
X139586496Y-99300000D01*
X139606458Y-99489928D01*
X139665473Y-99671556D01*
X139760960Y-99836944D01*
X139765378Y-99841851D01*
X139765379Y-99841852D01*
X139884325Y-99973955D01*
X139888747Y-99978866D01*
X140043248Y-100091118D01*
X140049276Y-100093802D01*
X140049278Y-100093803D01*
X140209799Y-100165271D01*
X140217712Y-100168794D01*
X140302480Y-100186812D01*
X140398056Y-100207128D01*
X140398061Y-100207128D01*
X140404513Y-100208500D01*
X140595487Y-100208500D01*
X140601939Y-100207128D01*
X140601944Y-100207128D01*
X140697520Y-100186812D01*
X140782288Y-100168794D01*
X140790201Y-100165271D01*
X140950722Y-100093803D01*
X140950724Y-100093802D01*
X140956752Y-100091118D01*
X141111253Y-99978866D01*
X141115675Y-99973955D01*
X141234621Y-99841852D01*
X141234622Y-99841851D01*
X141239040Y-99836944D01*
X141260370Y-99800000D01*
X168086496Y-99800000D01*
X168087186Y-99806565D01*
X168098982Y-99918794D01*
X168106458Y-99989928D01*
X168165473Y-100171556D01*
X168168776Y-100177278D01*
X168168777Y-100177279D01*
X168186803Y-100208500D01*
X168260960Y-100336944D01*
X168388747Y-100478866D01*
X168432758Y-100510842D01*
X168528806Y-100580625D01*
X168543248Y-100591118D01*
X168549276Y-100593802D01*
X168549278Y-100593803D01*
X168667405Y-100646396D01*
X168717712Y-100668794D01*
X168801045Y-100686507D01*
X168898056Y-100707128D01*
X168898061Y-100707128D01*
X168904513Y-100708500D01*
X169095487Y-100708500D01*
X169101939Y-100707128D01*
X169101944Y-100707128D01*
X169198955Y-100686507D01*
X169282288Y-100668794D01*
X169448752Y-100594680D01*
X169519118Y-100585246D01*
X169551247Y-100594680D01*
X169717712Y-100668794D01*
X169801045Y-100686507D01*
X169898056Y-100707128D01*
X169898061Y-100707128D01*
X169904513Y-100708500D01*
X170095487Y-100708500D01*
X170101939Y-100707128D01*
X170101944Y-100707128D01*
X170198955Y-100686507D01*
X170282288Y-100668794D01*
X170332595Y-100646396D01*
X170450722Y-100593803D01*
X170450724Y-100593802D01*
X170456752Y-100591118D01*
X170471195Y-100580625D01*
X170567242Y-100510842D01*
X170611253Y-100478866D01*
X170739040Y-100336944D01*
X170813197Y-100208500D01*
X170831223Y-100177279D01*
X170831224Y-100177278D01*
X170834527Y-100171556D01*
X170893542Y-99989928D01*
X170901019Y-99918794D01*
X170912814Y-99806565D01*
X170913504Y-99800000D01*
X170893542Y-99610072D01*
X170834527Y-99428444D01*
X170739040Y-99263056D01*
X170689133Y-99207628D01*
X170615675Y-99126045D01*
X170615674Y-99126044D01*
X170611253Y-99121134D01*
X170502372Y-99042027D01*
X170462094Y-99012763D01*
X170462093Y-99012762D01*
X170456752Y-99008882D01*
X170450724Y-99006198D01*
X170450722Y-99006197D01*
X170288319Y-98933891D01*
X170288318Y-98933891D01*
X170282288Y-98931206D01*
X170188887Y-98911353D01*
X170101944Y-98892872D01*
X170101939Y-98892872D01*
X170095487Y-98891500D01*
X169904513Y-98891500D01*
X169898061Y-98892872D01*
X169898056Y-98892872D01*
X169811112Y-98911353D01*
X169717712Y-98931206D01*
X169711682Y-98933891D01*
X169711681Y-98933891D01*
X169656408Y-98958500D01*
X169551248Y-99005320D01*
X169480882Y-99014754D01*
X169448753Y-99005320D01*
X169343592Y-98958500D01*
X169288319Y-98933891D01*
X169288318Y-98933891D01*
X169282288Y-98931206D01*
X169188887Y-98911353D01*
X169101944Y-98892872D01*
X169101939Y-98892872D01*
X169095487Y-98891500D01*
X168904513Y-98891500D01*
X168898061Y-98892872D01*
X168898056Y-98892872D01*
X168811112Y-98911353D01*
X168717712Y-98931206D01*
X168711682Y-98933891D01*
X168711681Y-98933891D01*
X168549278Y-99006197D01*
X168549276Y-99006198D01*
X168543248Y-99008882D01*
X168537907Y-99012762D01*
X168537906Y-99012763D01*
X168497628Y-99042027D01*
X168388747Y-99121134D01*
X168384326Y-99126044D01*
X168384325Y-99126045D01*
X168310868Y-99207628D01*
X168260960Y-99263056D01*
X168165473Y-99428444D01*
X168106458Y-99610072D01*
X168086496Y-99800000D01*
X141260370Y-99800000D01*
X141334527Y-99671556D01*
X141393542Y-99489928D01*
X141413504Y-99300000D01*
X141403940Y-99209000D01*
X141394232Y-99116635D01*
X141394232Y-99116633D01*
X141393542Y-99110072D01*
X141334527Y-98928444D01*
X141327406Y-98916109D01*
X141281988Y-98837444D01*
X141239040Y-98763056D01*
X141211752Y-98732749D01*
X141115675Y-98626045D01*
X141115674Y-98626044D01*
X141111253Y-98621134D01*
X140956752Y-98508882D01*
X140950724Y-98506198D01*
X140950722Y-98506197D01*
X140788319Y-98433891D01*
X140788318Y-98433891D01*
X140782288Y-98431206D01*
X140688887Y-98411353D01*
X140601944Y-98392872D01*
X140601939Y-98392872D01*
X140595487Y-98391500D01*
X140404513Y-98391500D01*
X140398061Y-98392872D01*
X140398056Y-98392872D01*
X140311113Y-98411353D01*
X140217712Y-98431206D01*
X140211682Y-98433891D01*
X140211681Y-98433891D01*
X140049278Y-98506197D01*
X140049276Y-98506198D01*
X140043248Y-98508882D01*
X139888747Y-98621134D01*
X139884326Y-98626044D01*
X139884325Y-98626045D01*
X139788249Y-98732749D01*
X139760960Y-98763056D01*
X139718012Y-98837444D01*
X139672595Y-98916109D01*
X139665473Y-98928444D01*
X139606458Y-99110072D01*
X139605768Y-99116633D01*
X139605768Y-99116635D01*
X139596060Y-99209000D01*
X139586496Y-99300000D01*
X129707345Y-99300000D01*
X129707180Y-96726695D01*
X130387251Y-96726695D01*
X130387548Y-96731848D01*
X130387548Y-96731851D01*
X130397248Y-96900078D01*
X130400110Y-96949715D01*
X130401247Y-96954761D01*
X130401248Y-96954767D01*
X130423392Y-97053023D01*
X130449222Y-97167639D01*
X130510673Y-97318976D01*
X130526188Y-97357184D01*
X130533266Y-97374616D01*
X130649987Y-97565088D01*
X130796250Y-97733938D01*
X130940617Y-97853794D01*
X130956085Y-97866635D01*
X130968126Y-97876632D01*
X131035683Y-97916109D01*
X131041955Y-97919774D01*
X131090679Y-97971412D01*
X131103750Y-98041195D01*
X131077019Y-98106967D01*
X131036562Y-98140327D01*
X131028457Y-98144546D01*
X131019738Y-98150036D01*
X130849433Y-98277905D01*
X130841726Y-98284748D01*
X130694590Y-98438717D01*
X130688104Y-98446727D01*
X130568098Y-98622649D01*
X130563000Y-98631623D01*
X130473338Y-98824783D01*
X130469775Y-98834470D01*
X130414389Y-99034183D01*
X130415912Y-99042607D01*
X130428292Y-99046000D01*
X133068344Y-99046000D01*
X133081875Y-99042027D01*
X133083180Y-99032947D01*
X133041214Y-98865875D01*
X133037894Y-98856124D01*
X132952972Y-98660814D01*
X132948105Y-98651739D01*
X132832426Y-98472926D01*
X132826136Y-98464757D01*
X132682806Y-98307240D01*
X132675273Y-98300215D01*
X132508139Y-98168222D01*
X132499556Y-98162520D01*
X132462602Y-98142120D01*
X132412631Y-98091687D01*
X132403763Y-98050000D01*
X136586496Y-98050000D01*
X136606458Y-98239928D01*
X136665473Y-98421556D01*
X136668776Y-98427278D01*
X136668777Y-98427279D01*
X136690415Y-98464757D01*
X136760960Y-98586944D01*
X136765378Y-98591851D01*
X136765379Y-98591852D01*
X136823169Y-98656034D01*
X136888747Y-98728866D01*
X137043248Y-98841118D01*
X137049276Y-98843802D01*
X137049278Y-98843803D01*
X137142752Y-98885420D01*
X137217712Y-98918794D01*
X137306074Y-98937576D01*
X137398056Y-98957128D01*
X137398061Y-98957128D01*
X137404513Y-98958500D01*
X137595487Y-98958500D01*
X137601939Y-98957128D01*
X137601944Y-98957128D01*
X137693926Y-98937576D01*
X137782288Y-98918794D01*
X137857248Y-98885420D01*
X137950722Y-98843803D01*
X137950724Y-98843802D01*
X137956752Y-98841118D01*
X138111253Y-98728866D01*
X138176831Y-98656034D01*
X138234621Y-98591852D01*
X138234622Y-98591851D01*
X138239040Y-98586944D01*
X138309585Y-98464757D01*
X138331223Y-98427279D01*
X138331224Y-98427278D01*
X138334527Y-98421556D01*
X138373861Y-98300500D01*
X142836496Y-98300500D01*
X142837186Y-98307065D01*
X142854727Y-98473955D01*
X142856458Y-98490428D01*
X142915473Y-98672056D01*
X143010960Y-98837444D01*
X143015378Y-98842351D01*
X143015379Y-98842352D01*
X143107147Y-98944271D01*
X143138747Y-98979366D01*
X143293248Y-99091618D01*
X143299276Y-99094302D01*
X143299278Y-99094303D01*
X143461681Y-99166609D01*
X143467712Y-99169294D01*
X143561113Y-99189147D01*
X143648056Y-99207628D01*
X143648061Y-99207628D01*
X143654513Y-99209000D01*
X143845487Y-99209000D01*
X143851939Y-99207628D01*
X143851944Y-99207628D01*
X143938887Y-99189147D01*
X144032288Y-99169294D01*
X144038319Y-99166609D01*
X144200722Y-99094303D01*
X144200724Y-99094302D01*
X144206752Y-99091618D01*
X144361253Y-98979366D01*
X144392853Y-98944271D01*
X144484621Y-98842352D01*
X144484622Y-98842351D01*
X144489040Y-98837444D01*
X144584527Y-98672056D01*
X144643542Y-98490428D01*
X144645274Y-98473955D01*
X144662814Y-98307065D01*
X144663504Y-98300500D01*
X144646858Y-98142120D01*
X144644232Y-98117135D01*
X144644232Y-98117133D01*
X144643542Y-98110572D01*
X144584527Y-97928944D01*
X144555832Y-97879242D01*
X144535371Y-97843803D01*
X144510081Y-97800000D01*
X145836996Y-97800000D01*
X145837686Y-97806565D01*
X145853511Y-97957128D01*
X145856958Y-97989928D01*
X145915973Y-98171556D01*
X146011460Y-98336944D01*
X146015878Y-98341851D01*
X146015879Y-98341852D01*
X146134825Y-98473955D01*
X146139247Y-98478866D01*
X146293748Y-98591118D01*
X146299776Y-98593802D01*
X146299778Y-98593803D01*
X146453682Y-98662325D01*
X146468212Y-98668794D01*
X146561612Y-98688647D01*
X146648556Y-98707128D01*
X146648561Y-98707128D01*
X146655013Y-98708500D01*
X146845987Y-98708500D01*
X146852439Y-98707128D01*
X146852444Y-98707128D01*
X146939387Y-98688647D01*
X147032788Y-98668794D01*
X147047318Y-98662325D01*
X147201222Y-98593803D01*
X147201224Y-98593802D01*
X147207252Y-98591118D01*
X147361753Y-98478866D01*
X147366175Y-98473955D01*
X147485121Y-98341852D01*
X147485122Y-98341851D01*
X147489540Y-98336944D01*
X147585027Y-98171556D01*
X147624523Y-98050000D01*
X152086496Y-98050000D01*
X152106458Y-98239928D01*
X152165473Y-98421556D01*
X152168776Y-98427278D01*
X152168777Y-98427279D01*
X152190415Y-98464757D01*
X152260960Y-98586944D01*
X152265378Y-98591851D01*
X152265379Y-98591852D01*
X152323169Y-98656034D01*
X152388747Y-98728866D01*
X152543248Y-98841118D01*
X152549276Y-98843802D01*
X152549278Y-98843803D01*
X152642752Y-98885420D01*
X152717712Y-98918794D01*
X152806074Y-98937576D01*
X152898056Y-98957128D01*
X152898061Y-98957128D01*
X152904513Y-98958500D01*
X153095487Y-98958500D01*
X153101939Y-98957128D01*
X153101944Y-98957128D01*
X153193926Y-98937576D01*
X153282288Y-98918794D01*
X153357248Y-98885420D01*
X153450722Y-98843803D01*
X153450724Y-98843802D01*
X153456752Y-98841118D01*
X153611253Y-98728866D01*
X153676831Y-98656034D01*
X153734621Y-98591852D01*
X153734622Y-98591851D01*
X153739040Y-98586944D01*
X153809585Y-98464757D01*
X153831223Y-98427279D01*
X153831224Y-98427278D01*
X153834527Y-98421556D01*
X153893542Y-98239928D01*
X153913504Y-98050000D01*
X153906878Y-97986958D01*
X153894232Y-97866635D01*
X153894232Y-97866633D01*
X153893542Y-97860072D01*
X153874023Y-97800000D01*
X165586496Y-97800000D01*
X165587186Y-97806565D01*
X165603011Y-97957128D01*
X165606458Y-97989928D01*
X165665473Y-98171556D01*
X165760960Y-98336944D01*
X165765378Y-98341851D01*
X165765379Y-98341852D01*
X165884325Y-98473955D01*
X165888747Y-98478866D01*
X166043248Y-98591118D01*
X166049276Y-98593802D01*
X166049278Y-98593803D01*
X166203182Y-98662325D01*
X166217712Y-98668794D01*
X166311112Y-98688647D01*
X166398056Y-98707128D01*
X166398061Y-98707128D01*
X166404513Y-98708500D01*
X166595487Y-98708500D01*
X166601939Y-98707128D01*
X166601944Y-98707128D01*
X166688887Y-98688647D01*
X166782288Y-98668794D01*
X166796818Y-98662325D01*
X166950722Y-98593803D01*
X166950724Y-98593802D01*
X166956752Y-98591118D01*
X167111253Y-98478866D01*
X167115675Y-98473955D01*
X167234621Y-98341852D01*
X167234622Y-98341851D01*
X167239040Y-98336944D01*
X167334527Y-98171556D01*
X167375465Y-98045563D01*
X167415539Y-97986958D01*
X167480936Y-97959321D01*
X167495298Y-97958500D01*
X167595487Y-97958500D01*
X167601939Y-97957128D01*
X167601944Y-97957128D01*
X167688888Y-97938647D01*
X167782288Y-97918794D01*
X167871124Y-97879242D01*
X167950722Y-97843803D01*
X167950724Y-97843802D01*
X167956752Y-97841118D01*
X168111253Y-97728866D01*
X168212306Y-97616635D01*
X168225403Y-97602089D01*
X173090066Y-97602089D01*
X173126343Y-97839163D01*
X173200854Y-98067129D01*
X173311597Y-98279864D01*
X173314700Y-98283997D01*
X173314702Y-98284000D01*
X173452493Y-98467520D01*
X173455598Y-98471655D01*
X173459336Y-98475227D01*
X173607956Y-98617251D01*
X173628990Y-98637352D01*
X173633262Y-98640266D01*
X173633263Y-98640267D01*
X173679864Y-98672056D01*
X173827117Y-98772505D01*
X174044656Y-98873484D01*
X174198359Y-98916109D01*
X174242839Y-98928444D01*
X174275768Y-98937576D01*
X174379479Y-98948660D01*
X174468222Y-98958144D01*
X174468230Y-98958144D01*
X174471557Y-98958500D01*
X176210803Y-98958500D01*
X176213376Y-98958288D01*
X176213387Y-98958288D01*
X176383876Y-98944271D01*
X176383882Y-98944270D01*
X176389027Y-98943847D01*
X176505331Y-98914634D01*
X176616625Y-98886679D01*
X176616629Y-98886678D01*
X176621636Y-98885420D01*
X176626366Y-98883364D01*
X176626373Y-98883361D01*
X176836841Y-98791847D01*
X176836844Y-98791845D01*
X176841578Y-98789787D01*
X176845912Y-98786983D01*
X176845916Y-98786981D01*
X177038604Y-98662325D01*
X177038607Y-98662323D01*
X177042947Y-98659515D01*
X177064101Y-98640267D01*
X177216513Y-98501582D01*
X177216514Y-98501580D01*
X177220335Y-98498104D01*
X177223534Y-98494053D01*
X177223538Y-98494049D01*
X177365774Y-98313946D01*
X177368979Y-98309888D01*
X177484887Y-98099922D01*
X177544742Y-97930896D01*
X177563219Y-97878720D01*
X177563220Y-97878716D01*
X177564945Y-97873845D01*
X177565853Y-97868749D01*
X177606098Y-97642816D01*
X177606099Y-97642810D01*
X177607004Y-97637727D01*
X177609934Y-97397911D01*
X177573657Y-97160837D01*
X177499146Y-96932871D01*
X177407409Y-96756646D01*
X177390792Y-96724725D01*
X177390791Y-96724724D01*
X177388403Y-96720136D01*
X177365861Y-96690112D01*
X177247507Y-96532480D01*
X177247505Y-96532477D01*
X177244402Y-96528345D01*
X177171577Y-96458752D01*
X177074747Y-96366219D01*
X177074746Y-96366218D01*
X177071010Y-96362648D01*
X177009520Y-96320702D01*
X176877162Y-96230414D01*
X176877163Y-96230414D01*
X176872883Y-96227495D01*
X176655344Y-96126516D01*
X176424232Y-96062424D01*
X176307979Y-96050000D01*
X176231778Y-96041856D01*
X176231770Y-96041856D01*
X176228443Y-96041500D01*
X174489197Y-96041500D01*
X174486624Y-96041712D01*
X174486613Y-96041712D01*
X174316124Y-96055729D01*
X174316118Y-96055730D01*
X174310973Y-96056153D01*
X174206475Y-96082401D01*
X174083375Y-96113321D01*
X174083371Y-96113322D01*
X174078364Y-96114580D01*
X174073634Y-96116636D01*
X174073627Y-96116639D01*
X173863159Y-96208153D01*
X173863156Y-96208155D01*
X173858422Y-96210213D01*
X173854088Y-96213017D01*
X173854084Y-96213019D01*
X173661396Y-96337675D01*
X173661393Y-96337677D01*
X173657053Y-96340485D01*
X173653230Y-96343964D01*
X173653227Y-96343966D01*
X173496035Y-96487000D01*
X173479665Y-96501896D01*
X173476466Y-96505947D01*
X173476462Y-96505951D01*
X173436940Y-96555995D01*
X173331021Y-96690112D01*
X173215113Y-96900078D01*
X173135055Y-97126155D01*
X173134148Y-97131248D01*
X173134147Y-97131251D01*
X173109651Y-97268774D01*
X173092996Y-97362273D01*
X173090066Y-97602089D01*
X168225403Y-97602089D01*
X168234621Y-97591852D01*
X168234622Y-97591851D01*
X168239040Y-97586944D01*
X168311132Y-97462077D01*
X168331223Y-97427279D01*
X168331224Y-97427278D01*
X168334527Y-97421556D01*
X168393542Y-97239928D01*
X168401318Y-97165949D01*
X168412814Y-97056565D01*
X168413504Y-97050000D01*
X168401301Y-96933891D01*
X168394232Y-96866635D01*
X168394232Y-96866633D01*
X168393542Y-96860072D01*
X168334527Y-96678444D01*
X168239040Y-96513056D01*
X168226914Y-96499588D01*
X168115675Y-96376045D01*
X168115674Y-96376044D01*
X168111253Y-96371134D01*
X168005496Y-96294297D01*
X167962094Y-96262763D01*
X167962093Y-96262762D01*
X167956752Y-96258882D01*
X167950724Y-96256198D01*
X167950722Y-96256197D01*
X167788319Y-96183891D01*
X167788318Y-96183891D01*
X167782288Y-96181206D01*
X167688887Y-96161353D01*
X167601944Y-96142872D01*
X167601939Y-96142872D01*
X167595487Y-96141500D01*
X167404513Y-96141500D01*
X167398061Y-96142872D01*
X167398056Y-96142872D01*
X167311113Y-96161353D01*
X167217712Y-96181206D01*
X167211682Y-96183891D01*
X167211681Y-96183891D01*
X167049278Y-96256197D01*
X167049276Y-96256198D01*
X167043248Y-96258882D01*
X167037907Y-96262762D01*
X167037906Y-96262763D01*
X166994504Y-96294297D01*
X166888747Y-96371134D01*
X166884326Y-96376044D01*
X166884325Y-96376045D01*
X166773087Y-96499588D01*
X166760960Y-96513056D01*
X166665473Y-96678444D01*
X166661682Y-96690112D01*
X166624535Y-96804437D01*
X166584461Y-96863042D01*
X166519064Y-96890679D01*
X166504702Y-96891500D01*
X166404513Y-96891500D01*
X166398061Y-96892872D01*
X166398056Y-96892872D01*
X166311112Y-96911353D01*
X166217712Y-96931206D01*
X166211682Y-96933891D01*
X166211681Y-96933891D01*
X166049278Y-97006197D01*
X166049276Y-97006198D01*
X166043248Y-97008882D01*
X165888747Y-97121134D01*
X165884326Y-97126044D01*
X165884325Y-97126045D01*
X165766542Y-97256857D01*
X165760960Y-97263056D01*
X165665473Y-97428444D01*
X165606458Y-97610072D01*
X165605768Y-97616633D01*
X165605768Y-97616635D01*
X165593972Y-97728866D01*
X165586496Y-97800000D01*
X153874023Y-97800000D01*
X153834527Y-97678444D01*
X153739040Y-97513056D01*
X153733315Y-97506697D01*
X153615675Y-97376045D01*
X153615674Y-97376044D01*
X153611253Y-97371134D01*
X153456752Y-97258882D01*
X153450724Y-97256198D01*
X153450722Y-97256197D01*
X153288319Y-97183891D01*
X153288318Y-97183891D01*
X153282288Y-97181206D01*
X153163337Y-97155922D01*
X153101944Y-97142872D01*
X153101939Y-97142872D01*
X153095487Y-97141500D01*
X152904513Y-97141500D01*
X152898061Y-97142872D01*
X152898056Y-97142872D01*
X152836663Y-97155922D01*
X152717712Y-97181206D01*
X152711682Y-97183891D01*
X152711681Y-97183891D01*
X152549278Y-97256197D01*
X152549276Y-97256198D01*
X152543248Y-97258882D01*
X152388747Y-97371134D01*
X152384326Y-97376044D01*
X152384325Y-97376045D01*
X152266686Y-97506697D01*
X152260960Y-97513056D01*
X152165473Y-97678444D01*
X152106458Y-97860072D01*
X152105768Y-97866633D01*
X152105768Y-97866635D01*
X152093122Y-97986958D01*
X152086496Y-98050000D01*
X147624523Y-98050000D01*
X147644042Y-97989928D01*
X147647490Y-97957128D01*
X147663314Y-97806565D01*
X147664004Y-97800000D01*
X147656528Y-97728866D01*
X147644732Y-97616635D01*
X147644732Y-97616633D01*
X147644042Y-97610072D01*
X147585027Y-97428444D01*
X147489540Y-97263056D01*
X147483959Y-97256857D01*
X147366175Y-97126045D01*
X147366174Y-97126044D01*
X147361753Y-97121134D01*
X147207252Y-97008882D01*
X147201224Y-97006198D01*
X147201222Y-97006197D01*
X147038819Y-96933891D01*
X147038818Y-96933891D01*
X147032788Y-96931206D01*
X146939387Y-96911353D01*
X146852444Y-96892872D01*
X146852439Y-96892872D01*
X146845987Y-96891500D01*
X146655013Y-96891500D01*
X146648561Y-96892872D01*
X146648556Y-96892872D01*
X146561612Y-96911353D01*
X146468212Y-96931206D01*
X146462182Y-96933891D01*
X146462181Y-96933891D01*
X146299778Y-97006197D01*
X146299776Y-97006198D01*
X146293748Y-97008882D01*
X146139247Y-97121134D01*
X146134826Y-97126044D01*
X146134825Y-97126045D01*
X146017042Y-97256857D01*
X146011460Y-97263056D01*
X145915973Y-97428444D01*
X145856958Y-97610072D01*
X145856268Y-97616633D01*
X145856268Y-97616635D01*
X145844472Y-97728866D01*
X145836996Y-97800000D01*
X144510081Y-97800000D01*
X144489040Y-97763556D01*
X144361253Y-97621634D01*
X144206752Y-97509382D01*
X144200724Y-97506698D01*
X144200722Y-97506697D01*
X144038319Y-97434391D01*
X144038318Y-97434391D01*
X144032288Y-97431706D01*
X143938888Y-97411853D01*
X143851944Y-97393372D01*
X143851939Y-97393372D01*
X143845487Y-97392000D01*
X143654513Y-97392000D01*
X143648061Y-97393372D01*
X143648056Y-97393372D01*
X143561112Y-97411853D01*
X143467712Y-97431706D01*
X143461682Y-97434391D01*
X143461681Y-97434391D01*
X143299278Y-97506697D01*
X143299276Y-97506698D01*
X143293248Y-97509382D01*
X143138747Y-97621634D01*
X143010960Y-97763556D01*
X142964629Y-97843803D01*
X142944169Y-97879242D01*
X142915473Y-97928944D01*
X142856458Y-98110572D01*
X142855768Y-98117133D01*
X142855768Y-98117135D01*
X142853142Y-98142120D01*
X142836496Y-98300500D01*
X138373861Y-98300500D01*
X138393542Y-98239928D01*
X138413504Y-98050000D01*
X138406878Y-97986958D01*
X138394232Y-97866635D01*
X138394232Y-97866633D01*
X138393542Y-97860072D01*
X138334527Y-97678444D01*
X138239040Y-97513056D01*
X138233315Y-97506697D01*
X138115675Y-97376045D01*
X138115674Y-97376044D01*
X138111253Y-97371134D01*
X137956752Y-97258882D01*
X137950724Y-97256198D01*
X137950722Y-97256197D01*
X137788319Y-97183891D01*
X137788318Y-97183891D01*
X137782288Y-97181206D01*
X137663337Y-97155922D01*
X137601944Y-97142872D01*
X137601939Y-97142872D01*
X137595487Y-97141500D01*
X137404513Y-97141500D01*
X137398061Y-97142872D01*
X137398056Y-97142872D01*
X137336663Y-97155922D01*
X137217712Y-97181206D01*
X137211682Y-97183891D01*
X137211681Y-97183891D01*
X137049278Y-97256197D01*
X137049276Y-97256198D01*
X137043248Y-97258882D01*
X136888747Y-97371134D01*
X136884326Y-97376044D01*
X136884325Y-97376045D01*
X136766686Y-97506697D01*
X136760960Y-97513056D01*
X136665473Y-97678444D01*
X136606458Y-97860072D01*
X136605768Y-97866633D01*
X136605768Y-97866635D01*
X136593122Y-97986958D01*
X136586496Y-98050000D01*
X132403763Y-98050000D01*
X132397859Y-98022245D01*
X132422975Y-97955839D01*
X132450327Y-97929232D01*
X132473797Y-97912491D01*
X132629860Y-97801173D01*
X132788096Y-97643489D01*
X132792237Y-97637727D01*
X132915435Y-97466277D01*
X132918453Y-97462077D01*
X132934142Y-97430334D01*
X133015136Y-97266453D01*
X133015137Y-97266451D01*
X133017430Y-97261811D01*
X133081783Y-97050000D01*
X139336496Y-97050000D01*
X139337186Y-97056565D01*
X139348683Y-97165949D01*
X139356458Y-97239928D01*
X139415473Y-97421556D01*
X139418776Y-97427278D01*
X139418777Y-97427279D01*
X139438868Y-97462077D01*
X139510960Y-97586944D01*
X139515378Y-97591851D01*
X139515379Y-97591852D01*
X139537694Y-97616635D01*
X139638747Y-97728866D01*
X139793248Y-97841118D01*
X139799276Y-97843802D01*
X139799278Y-97843803D01*
X139878876Y-97879242D01*
X139967712Y-97918794D01*
X140061113Y-97938647D01*
X140148056Y-97957128D01*
X140148061Y-97957128D01*
X140154513Y-97958500D01*
X140345487Y-97958500D01*
X140351939Y-97957128D01*
X140351944Y-97957128D01*
X140438888Y-97938647D01*
X140532288Y-97918794D01*
X140621124Y-97879242D01*
X140700722Y-97843803D01*
X140700724Y-97843802D01*
X140706752Y-97841118D01*
X140761732Y-97801173D01*
X140800939Y-97772687D01*
X140867807Y-97748828D01*
X140936958Y-97764909D01*
X140949061Y-97772687D01*
X140988269Y-97801173D01*
X141043248Y-97841118D01*
X141049276Y-97843802D01*
X141049278Y-97843803D01*
X141128876Y-97879242D01*
X141217712Y-97918794D01*
X141311113Y-97938647D01*
X141398056Y-97957128D01*
X141398061Y-97957128D01*
X141404513Y-97958500D01*
X141595487Y-97958500D01*
X141601939Y-97957128D01*
X141601944Y-97957128D01*
X141688888Y-97938647D01*
X141782288Y-97918794D01*
X141871124Y-97879242D01*
X141950722Y-97843803D01*
X141950724Y-97843802D01*
X141956752Y-97841118D01*
X142111253Y-97728866D01*
X142212306Y-97616635D01*
X142234621Y-97591852D01*
X142234622Y-97591851D01*
X142239040Y-97586944D01*
X142311132Y-97462077D01*
X142331223Y-97427279D01*
X142331224Y-97427278D01*
X142334527Y-97421556D01*
X142393542Y-97239928D01*
X142401318Y-97165949D01*
X142412814Y-97056565D01*
X142413504Y-97050000D01*
X142401301Y-96933891D01*
X142394232Y-96866635D01*
X142394232Y-96866633D01*
X142393542Y-96860072D01*
X142334527Y-96678444D01*
X142296743Y-96613000D01*
X142280005Y-96544005D01*
X142296743Y-96487000D01*
X142331223Y-96427279D01*
X142331224Y-96427278D01*
X142334527Y-96421556D01*
X142393542Y-96239928D01*
X142406717Y-96114580D01*
X142412814Y-96056565D01*
X142413504Y-96050000D01*
X142400308Y-95924450D01*
X142394232Y-95866635D01*
X142394232Y-95866633D01*
X142393542Y-95860072D01*
X142334527Y-95678444D01*
X142239040Y-95513056D01*
X142172038Y-95438642D01*
X142115675Y-95376045D01*
X142115674Y-95376044D01*
X142111253Y-95371134D01*
X141956752Y-95258882D01*
X141950724Y-95256198D01*
X141950722Y-95256197D01*
X141788319Y-95183891D01*
X141788318Y-95183891D01*
X141782288Y-95181206D01*
X141688888Y-95161353D01*
X141601944Y-95142872D01*
X141601939Y-95142872D01*
X141595487Y-95141500D01*
X141404513Y-95141500D01*
X141398061Y-95142872D01*
X141398056Y-95142872D01*
X141311112Y-95161353D01*
X141217712Y-95181206D01*
X141211682Y-95183891D01*
X141211681Y-95183891D01*
X141049278Y-95256197D01*
X141049276Y-95256198D01*
X141043248Y-95258882D01*
X141037907Y-95262762D01*
X141037906Y-95262763D01*
X140949061Y-95327313D01*
X140882193Y-95351172D01*
X140813042Y-95335091D01*
X140800939Y-95327313D01*
X140712094Y-95262763D01*
X140712093Y-95262762D01*
X140706752Y-95258882D01*
X140700724Y-95256198D01*
X140700722Y-95256197D01*
X140538319Y-95183891D01*
X140538318Y-95183891D01*
X140532288Y-95181206D01*
X140438888Y-95161353D01*
X140351944Y-95142872D01*
X140351939Y-95142872D01*
X140345487Y-95141500D01*
X140154513Y-95141500D01*
X140148061Y-95142872D01*
X140148056Y-95142872D01*
X140061112Y-95161353D01*
X139967712Y-95181206D01*
X139961682Y-95183891D01*
X139961681Y-95183891D01*
X139799278Y-95256197D01*
X139799276Y-95256198D01*
X139793248Y-95258882D01*
X139638747Y-95371134D01*
X139634326Y-95376044D01*
X139634325Y-95376045D01*
X139577963Y-95438642D01*
X139510960Y-95513056D01*
X139415473Y-95678444D01*
X139356458Y-95860072D01*
X139355768Y-95866633D01*
X139355768Y-95866635D01*
X139349692Y-95924450D01*
X139336496Y-96050000D01*
X139337186Y-96056565D01*
X139343284Y-96114580D01*
X139356458Y-96239928D01*
X139415473Y-96421556D01*
X139418776Y-96427278D01*
X139418777Y-96427279D01*
X139453257Y-96487000D01*
X139469995Y-96555995D01*
X139453257Y-96613000D01*
X139415473Y-96678444D01*
X139356458Y-96860072D01*
X139355768Y-96866633D01*
X139355768Y-96866635D01*
X139348699Y-96933891D01*
X139336496Y-97050000D01*
X133081783Y-97050000D01*
X133082370Y-97048069D01*
X133111529Y-96826590D01*
X133113156Y-96760000D01*
X133094852Y-96537361D01*
X133040431Y-96320702D01*
X132951354Y-96115840D01*
X132830014Y-95928277D01*
X132826532Y-95924450D01*
X132682798Y-95766488D01*
X132651746Y-95702642D01*
X132660141Y-95632143D01*
X132705317Y-95577375D01*
X132731761Y-95563706D01*
X132838297Y-95523767D01*
X132846705Y-95520615D01*
X132963261Y-95433261D01*
X133050615Y-95316705D01*
X133101745Y-95180316D01*
X133108500Y-95118134D01*
X133108500Y-93321866D01*
X133106125Y-93300000D01*
X151836496Y-93300000D01*
X151856458Y-93489928D01*
X151915473Y-93671556D01*
X152010960Y-93836944D01*
X152138747Y-93978866D01*
X152293248Y-94091118D01*
X152299276Y-94093802D01*
X152299278Y-94093803D01*
X152461681Y-94166109D01*
X152467712Y-94168794D01*
X152561112Y-94188647D01*
X152648056Y-94207128D01*
X152648061Y-94207128D01*
X152654513Y-94208500D01*
X152845487Y-94208500D01*
X152851939Y-94207128D01*
X152851944Y-94207128D01*
X152938887Y-94188647D01*
X153032288Y-94168794D01*
X153038319Y-94166109D01*
X153200722Y-94093803D01*
X153200724Y-94093802D01*
X153206752Y-94091118D01*
X153361253Y-93978866D01*
X153489040Y-93836944D01*
X153584527Y-93671556D01*
X153643542Y-93489928D01*
X153663504Y-93300000D01*
X153658489Y-93252285D01*
X153644232Y-93116635D01*
X153644232Y-93116633D01*
X153643542Y-93110072D01*
X153584527Y-92928444D01*
X153489040Y-92763056D01*
X153361253Y-92621134D01*
X153206752Y-92508882D01*
X153200724Y-92506198D01*
X153200722Y-92506197D01*
X153038319Y-92433891D01*
X153038318Y-92433891D01*
X153032288Y-92431206D01*
X152938887Y-92411353D01*
X152851944Y-92392872D01*
X152851939Y-92392872D01*
X152845487Y-92391500D01*
X152654513Y-92391500D01*
X152648061Y-92392872D01*
X152648056Y-92392872D01*
X152561113Y-92411353D01*
X152467712Y-92431206D01*
X152461682Y-92433891D01*
X152461681Y-92433891D01*
X152299278Y-92506197D01*
X152299276Y-92506198D01*
X152293248Y-92508882D01*
X152138747Y-92621134D01*
X152010960Y-92763056D01*
X151915473Y-92928444D01*
X151856458Y-93110072D01*
X151855768Y-93116633D01*
X151855768Y-93116635D01*
X151841511Y-93252285D01*
X151836496Y-93300000D01*
X133106125Y-93300000D01*
X133101745Y-93259684D01*
X133050615Y-93123295D01*
X132963261Y-93006739D01*
X132846705Y-92919385D01*
X132710316Y-92868255D01*
X132648134Y-92861500D01*
X130851866Y-92861500D01*
X130789684Y-92868255D01*
X130653295Y-92919385D01*
X130536739Y-93006739D01*
X130449385Y-93123295D01*
X130398255Y-93259684D01*
X130391500Y-93321866D01*
X130391500Y-95118134D01*
X130398255Y-95180316D01*
X130449385Y-95316705D01*
X130536739Y-95433261D01*
X130653295Y-95520615D01*
X130661704Y-95523767D01*
X130661705Y-95523768D01*
X130770451Y-95564535D01*
X130827216Y-95607176D01*
X130851916Y-95673738D01*
X130836709Y-95743087D01*
X130817316Y-95769568D01*
X130690629Y-95902138D01*
X130564743Y-96086680D01*
X130470688Y-96289305D01*
X130410989Y-96504570D01*
X130387251Y-96726695D01*
X129707180Y-96726695D01*
X129706694Y-89147064D01*
X136137707Y-89147064D01*
X136166825Y-89339599D01*
X136169028Y-89345585D01*
X136169029Y-89345591D01*
X136231860Y-89516360D01*
X136231862Y-89516365D01*
X136234063Y-89522346D01*
X136336674Y-89687840D01*
X136341055Y-89692473D01*
X136341056Y-89692474D01*
X136449240Y-89806876D01*
X136470466Y-89829322D01*
X136629975Y-89941011D01*
X136668400Y-89957639D01*
X136802825Y-90015810D01*
X136802829Y-90015811D01*
X136808684Y-90018345D01*
X136814931Y-90019650D01*
X136814934Y-90019651D01*
X136994557Y-90057176D01*
X136994562Y-90057177D01*
X136999293Y-90058165D01*
X137005685Y-90058500D01*
X137148663Y-90058500D01*
X137236292Y-90049599D01*
X137287378Y-90044410D01*
X137287379Y-90044410D01*
X137293727Y-90043765D01*
X137374843Y-90018345D01*
X137473451Y-89987444D01*
X137473456Y-89987442D01*
X137479541Y-89985535D01*
X137567985Y-89936509D01*
X137644271Y-89894223D01*
X137644274Y-89894221D01*
X137649850Y-89891130D01*
X137654691Y-89886981D01*
X137654695Y-89886978D01*
X137792855Y-89768560D01*
X137797698Y-89764409D01*
X137820862Y-89734547D01*
X137872955Y-89667389D01*
X137917046Y-89610547D01*
X137957779Y-89527768D01*
X138000200Y-89441556D01*
X138003018Y-89435829D01*
X138004628Y-89429649D01*
X138050492Y-89253575D01*
X138050492Y-89253572D01*
X138052102Y-89247393D01*
X138057360Y-89147064D01*
X139137707Y-89147064D01*
X139166825Y-89339599D01*
X139169028Y-89345585D01*
X139169029Y-89345591D01*
X139231860Y-89516360D01*
X139231862Y-89516365D01*
X139234063Y-89522346D01*
X139336674Y-89687840D01*
X139341055Y-89692473D01*
X139341056Y-89692474D01*
X139449240Y-89806876D01*
X139470466Y-89829322D01*
X139629975Y-89941011D01*
X139668400Y-89957639D01*
X139802825Y-90015810D01*
X139802829Y-90015811D01*
X139808684Y-90018345D01*
X139814931Y-90019650D01*
X139814934Y-90019651D01*
X139994557Y-90057176D01*
X139994562Y-90057177D01*
X139999293Y-90058165D01*
X140005685Y-90058500D01*
X140148663Y-90058500D01*
X140236292Y-90049599D01*
X140287378Y-90044410D01*
X140287379Y-90044410D01*
X140293727Y-90043765D01*
X140374843Y-90018345D01*
X140473451Y-89987444D01*
X140473456Y-89987442D01*
X140479541Y-89985535D01*
X140567985Y-89936509D01*
X140644271Y-89894223D01*
X140644274Y-89894221D01*
X140649850Y-89891130D01*
X140654691Y-89886981D01*
X140654695Y-89886978D01*
X140792855Y-89768560D01*
X140797698Y-89764409D01*
X140820862Y-89734547D01*
X140872955Y-89667389D01*
X140917046Y-89610547D01*
X140957779Y-89527768D01*
X140963228Y-89516695D01*
X144567251Y-89516695D01*
X144567548Y-89521848D01*
X144567548Y-89521851D01*
X144577873Y-89700921D01*
X144580110Y-89739715D01*
X144581247Y-89744761D01*
X144581248Y-89744767D01*
X144595606Y-89808475D01*
X144629222Y-89957639D01*
X144713266Y-90164616D01*
X144764942Y-90248944D01*
X144827291Y-90350688D01*
X144829987Y-90355088D01*
X144976250Y-90523938D01*
X145148126Y-90666632D01*
X145341000Y-90779338D01*
X145549692Y-90859030D01*
X145554760Y-90860061D01*
X145554763Y-90860062D01*
X145662017Y-90881883D01*
X145768597Y-90903567D01*
X145773772Y-90903757D01*
X145773774Y-90903757D01*
X145986673Y-90911564D01*
X145986677Y-90911564D01*
X145991837Y-90911753D01*
X145996957Y-90911097D01*
X145996959Y-90911097D01*
X146208288Y-90884025D01*
X146208289Y-90884025D01*
X146213416Y-90883368D01*
X146218366Y-90881883D01*
X146422429Y-90820661D01*
X146422434Y-90820659D01*
X146427384Y-90819174D01*
X146627994Y-90720896D01*
X146809860Y-90591173D01*
X146818826Y-90582239D01*
X146950036Y-90451486D01*
X146968096Y-90433489D01*
X146997657Y-90392351D01*
X147098453Y-90252077D01*
X147099776Y-90253028D01*
X147146645Y-90209857D01*
X147216580Y-90197625D01*
X147282026Y-90225144D01*
X147309875Y-90256994D01*
X147369987Y-90355088D01*
X147516250Y-90523938D01*
X147688126Y-90666632D01*
X147881000Y-90779338D01*
X148089692Y-90859030D01*
X148094760Y-90860061D01*
X148094763Y-90860062D01*
X148202017Y-90881883D01*
X148308597Y-90903567D01*
X148313772Y-90903757D01*
X148313774Y-90903757D01*
X148526673Y-90911564D01*
X148526677Y-90911564D01*
X148531837Y-90911753D01*
X148536957Y-90911097D01*
X148536959Y-90911097D01*
X148748288Y-90884025D01*
X148748289Y-90884025D01*
X148753416Y-90883368D01*
X148758366Y-90881883D01*
X148962429Y-90820661D01*
X148962434Y-90820659D01*
X148967384Y-90819174D01*
X149167994Y-90720896D01*
X149349860Y-90591173D01*
X149358826Y-90582239D01*
X149490036Y-90451486D01*
X149508096Y-90433489D01*
X149537657Y-90392351D01*
X149638453Y-90252077D01*
X149639776Y-90253028D01*
X149686645Y-90209857D01*
X149756580Y-90197625D01*
X149822026Y-90225144D01*
X149849875Y-90256994D01*
X149909987Y-90355088D01*
X150056250Y-90523938D01*
X150228126Y-90666632D01*
X150421000Y-90779338D01*
X150629692Y-90859030D01*
X150634760Y-90860061D01*
X150634763Y-90860062D01*
X150742017Y-90881883D01*
X150848597Y-90903567D01*
X150853772Y-90903757D01*
X150853774Y-90903757D01*
X151066673Y-90911564D01*
X151066677Y-90911564D01*
X151071837Y-90911753D01*
X151076957Y-90911097D01*
X151076959Y-90911097D01*
X151288288Y-90884025D01*
X151288289Y-90884025D01*
X151293416Y-90883368D01*
X151298366Y-90881883D01*
X151502429Y-90820661D01*
X151502434Y-90820659D01*
X151507384Y-90819174D01*
X151707994Y-90720896D01*
X151889860Y-90591173D01*
X151898826Y-90582239D01*
X151998479Y-90482933D01*
X152060851Y-90449017D01*
X152131658Y-90454205D01*
X152188419Y-90496851D01*
X152205401Y-90527954D01*
X152246676Y-90638054D01*
X152255214Y-90653649D01*
X152331715Y-90755724D01*
X152344276Y-90768285D01*
X152446351Y-90844786D01*
X152461946Y-90853324D01*
X152582394Y-90898478D01*
X152597649Y-90902105D01*
X152648514Y-90907631D01*
X152655328Y-90908000D01*
X153277885Y-90908000D01*
X153293124Y-90903525D01*
X153294329Y-90902135D01*
X153296000Y-90894452D01*
X153296000Y-90889884D01*
X153804000Y-90889884D01*
X153808475Y-90905123D01*
X153809865Y-90906328D01*
X153817548Y-90907999D01*
X154444669Y-90907999D01*
X154451490Y-90907629D01*
X154502352Y-90902105D01*
X154517604Y-90898479D01*
X154638054Y-90853324D01*
X154653649Y-90844786D01*
X154755724Y-90768285D01*
X154768285Y-90755724D01*
X154844786Y-90653649D01*
X154853324Y-90638054D01*
X154898478Y-90517606D01*
X154902105Y-90502351D01*
X154907631Y-90451486D01*
X154908000Y-90444672D01*
X154908000Y-89822115D01*
X154903525Y-89806876D01*
X154902135Y-89805671D01*
X154894452Y-89804000D01*
X153822115Y-89804000D01*
X153806876Y-89808475D01*
X153805671Y-89809865D01*
X153804000Y-89817548D01*
X153804000Y-90889884D01*
X153296000Y-90889884D01*
X153296000Y-89554568D01*
X167537382Y-89554568D01*
X167537963Y-89559588D01*
X167537963Y-89559592D01*
X167543859Y-89610547D01*
X167566208Y-89803699D01*
X167567587Y-89808573D01*
X167567588Y-89808577D01*
X167627316Y-90019651D01*
X167634494Y-90045017D01*
X167636628Y-90049592D01*
X167636630Y-90049599D01*
X167738347Y-90267731D01*
X167740484Y-90272313D01*
X167743326Y-90276494D01*
X167743326Y-90276495D01*
X167878605Y-90475552D01*
X167878608Y-90475556D01*
X167881451Y-90479739D01*
X167884928Y-90483416D01*
X167884929Y-90483417D01*
X167983382Y-90587529D01*
X168053767Y-90661959D01*
X168057793Y-90665037D01*
X168057794Y-90665038D01*
X168248981Y-90811212D01*
X168248985Y-90811215D01*
X168253001Y-90814285D01*
X168257459Y-90816675D01*
X168257460Y-90816676D01*
X168336450Y-90859030D01*
X168474026Y-90932797D01*
X168478807Y-90934443D01*
X168478811Y-90934445D01*
X168704538Y-91012169D01*
X168711156Y-91014448D01*
X168814689Y-91032331D01*
X168954380Y-91056460D01*
X168954386Y-91056461D01*
X168958290Y-91057135D01*
X168962251Y-91057315D01*
X168962252Y-91057315D01*
X168986931Y-91058436D01*
X168986950Y-91058436D01*
X168988350Y-91058500D01*
X169163015Y-91058500D01*
X169165523Y-91058298D01*
X169165528Y-91058298D01*
X169344944Y-91043863D01*
X169344949Y-91043862D01*
X169349985Y-91043457D01*
X169354893Y-91042252D01*
X169354896Y-91042251D01*
X169588625Y-90984841D01*
X169593539Y-90983634D01*
X169598191Y-90981659D01*
X169598195Y-90981658D01*
X169819741Y-90887617D01*
X169819742Y-90887617D01*
X169824396Y-90885641D01*
X170010755Y-90768285D01*
X170032334Y-90754696D01*
X170032335Y-90754695D01*
X170036615Y-90752000D01*
X170224738Y-90586147D01*
X170383924Y-90392351D01*
X170510078Y-90175596D01*
X170512603Y-90169020D01*
X170584224Y-89982442D01*
X170599955Y-89941461D01*
X170609824Y-89894223D01*
X170650206Y-89700921D01*
X170651241Y-89695967D01*
X170651857Y-89682418D01*
X170657869Y-89550000D01*
X170662618Y-89445432D01*
X170633792Y-89196301D01*
X170619860Y-89147064D01*
X170566884Y-88959852D01*
X170566883Y-88959850D01*
X170565506Y-88954983D01*
X170563372Y-88950408D01*
X170563370Y-88950401D01*
X170461653Y-88732269D01*
X170461651Y-88732265D01*
X170459516Y-88727687D01*
X170456674Y-88723505D01*
X170321395Y-88524448D01*
X170321392Y-88524444D01*
X170318549Y-88520261D01*
X170217925Y-88413853D01*
X170149713Y-88341721D01*
X170146233Y-88338041D01*
X170139801Y-88333123D01*
X169951019Y-88188788D01*
X169951015Y-88188785D01*
X169946999Y-88185715D01*
X169936992Y-88180349D01*
X169730435Y-88069595D01*
X169725974Y-88067203D01*
X169721193Y-88065557D01*
X169721189Y-88065555D01*
X169493633Y-87987201D01*
X169488844Y-87985552D01*
X169385311Y-87967669D01*
X169245620Y-87943540D01*
X169245614Y-87943539D01*
X169241710Y-87942865D01*
X169237749Y-87942685D01*
X169237748Y-87942685D01*
X169213069Y-87941564D01*
X169213050Y-87941564D01*
X169211650Y-87941500D01*
X169036985Y-87941500D01*
X169034477Y-87941702D01*
X169034472Y-87941702D01*
X168855056Y-87956137D01*
X168855051Y-87956138D01*
X168850015Y-87956543D01*
X168845107Y-87957748D01*
X168845104Y-87957749D01*
X168674190Y-87999730D01*
X168606461Y-88016366D01*
X168601809Y-88018341D01*
X168601805Y-88018342D01*
X168481061Y-88069595D01*
X168375604Y-88114359D01*
X168163385Y-88248000D01*
X167975262Y-88413853D01*
X167816076Y-88607649D01*
X167689922Y-88824404D01*
X167600045Y-89058539D01*
X167599012Y-89063485D01*
X167599010Y-89063491D01*
X167582884Y-89140683D01*
X167548759Y-89304033D01*
X167548530Y-89309082D01*
X167548529Y-89309088D01*
X167547144Y-89339599D01*
X167537382Y-89554568D01*
X153296000Y-89554568D01*
X153296000Y-89277885D01*
X153804000Y-89277885D01*
X153808475Y-89293124D01*
X153809865Y-89294329D01*
X153817548Y-89296000D01*
X154889884Y-89296000D01*
X154905123Y-89291525D01*
X154906328Y-89290135D01*
X154907999Y-89282452D01*
X154907999Y-88655331D01*
X154907629Y-88648510D01*
X154902105Y-88597648D01*
X154898479Y-88582396D01*
X154853324Y-88461946D01*
X154844786Y-88446351D01*
X154768285Y-88344276D01*
X154755724Y-88331715D01*
X154653649Y-88255214D01*
X154638054Y-88246676D01*
X154517606Y-88201522D01*
X154502351Y-88197895D01*
X154451486Y-88192369D01*
X154444672Y-88192000D01*
X153822115Y-88192000D01*
X153806876Y-88196475D01*
X153805671Y-88197865D01*
X153804000Y-88205548D01*
X153804000Y-89277885D01*
X153296000Y-89277885D01*
X153296000Y-88210116D01*
X153291525Y-88194877D01*
X153290135Y-88193672D01*
X153282452Y-88192001D01*
X152655331Y-88192001D01*
X152648510Y-88192371D01*
X152597648Y-88197895D01*
X152582396Y-88201521D01*
X152461946Y-88246676D01*
X152446351Y-88255214D01*
X152344276Y-88331715D01*
X152331715Y-88344276D01*
X152255214Y-88446351D01*
X152246676Y-88461946D01*
X152205297Y-88572322D01*
X152162655Y-88629087D01*
X152096093Y-88653786D01*
X152026744Y-88638578D01*
X151994121Y-88612891D01*
X151943151Y-88556876D01*
X151943145Y-88556870D01*
X151939670Y-88553051D01*
X151935619Y-88549852D01*
X151935615Y-88549848D01*
X151768414Y-88417800D01*
X151768410Y-88417798D01*
X151764359Y-88414598D01*
X151568789Y-88306638D01*
X151563920Y-88304914D01*
X151563916Y-88304912D01*
X151363087Y-88233795D01*
X151363083Y-88233794D01*
X151358212Y-88232069D01*
X151353119Y-88231162D01*
X151353116Y-88231161D01*
X151143373Y-88193800D01*
X151143367Y-88193799D01*
X151138284Y-88192894D01*
X151064452Y-88191992D01*
X150920081Y-88190228D01*
X150920079Y-88190228D01*
X150914911Y-88190165D01*
X150694091Y-88223955D01*
X150481756Y-88293357D01*
X150451956Y-88308870D01*
X150340261Y-88367015D01*
X150283607Y-88396507D01*
X150279474Y-88399610D01*
X150279471Y-88399612D01*
X150113205Y-88524448D01*
X150104965Y-88530635D01*
X150065128Y-88572322D01*
X149963086Y-88679103D01*
X149950629Y-88692138D01*
X149843201Y-88849621D01*
X149788293Y-88894621D01*
X149717768Y-88902792D01*
X149654021Y-88871538D01*
X149633324Y-88847054D01*
X149552822Y-88722617D01*
X149552820Y-88722614D01*
X149550014Y-88718277D01*
X149399670Y-88553051D01*
X149395619Y-88549852D01*
X149395615Y-88549848D01*
X149228414Y-88417800D01*
X149228410Y-88417798D01*
X149224359Y-88414598D01*
X149028789Y-88306638D01*
X149023920Y-88304914D01*
X149023916Y-88304912D01*
X148823087Y-88233795D01*
X148823083Y-88233794D01*
X148818212Y-88232069D01*
X148813119Y-88231162D01*
X148813116Y-88231161D01*
X148603373Y-88193800D01*
X148603367Y-88193799D01*
X148598284Y-88192894D01*
X148524452Y-88191992D01*
X148380081Y-88190228D01*
X148380079Y-88190228D01*
X148374911Y-88190165D01*
X148154091Y-88223955D01*
X147941756Y-88293357D01*
X147911956Y-88308870D01*
X147800261Y-88367015D01*
X147743607Y-88396507D01*
X147739474Y-88399610D01*
X147739471Y-88399612D01*
X147573205Y-88524448D01*
X147564965Y-88530635D01*
X147525128Y-88572322D01*
X147423086Y-88679103D01*
X147410629Y-88692138D01*
X147303201Y-88849621D01*
X147248293Y-88894621D01*
X147177768Y-88902792D01*
X147114021Y-88871538D01*
X147093324Y-88847054D01*
X147012822Y-88722617D01*
X147012820Y-88722614D01*
X147010014Y-88718277D01*
X146859670Y-88553051D01*
X146855619Y-88549852D01*
X146855615Y-88549848D01*
X146688414Y-88417800D01*
X146688410Y-88417798D01*
X146684359Y-88414598D01*
X146488789Y-88306638D01*
X146483920Y-88304914D01*
X146483916Y-88304912D01*
X146283087Y-88233795D01*
X146283083Y-88233794D01*
X146278212Y-88232069D01*
X146273119Y-88231162D01*
X146273116Y-88231161D01*
X146063373Y-88193800D01*
X146063367Y-88193799D01*
X146058284Y-88192894D01*
X145984452Y-88191992D01*
X145840081Y-88190228D01*
X145840079Y-88190228D01*
X145834911Y-88190165D01*
X145614091Y-88223955D01*
X145401756Y-88293357D01*
X145371956Y-88308870D01*
X145260261Y-88367015D01*
X145203607Y-88396507D01*
X145199474Y-88399610D01*
X145199471Y-88399612D01*
X145033205Y-88524448D01*
X145024965Y-88530635D01*
X144985128Y-88572322D01*
X144883086Y-88679103D01*
X144870629Y-88692138D01*
X144867720Y-88696403D01*
X144867714Y-88696411D01*
X144831722Y-88749174D01*
X144744743Y-88876680D01*
X144712369Y-88946425D01*
X144658029Y-89063491D01*
X144650688Y-89079305D01*
X144590989Y-89294570D01*
X144567251Y-89516695D01*
X140963228Y-89516695D01*
X141000200Y-89441556D01*
X141003018Y-89435829D01*
X141004628Y-89429649D01*
X141050492Y-89253575D01*
X141050492Y-89253572D01*
X141052102Y-89247393D01*
X141059266Y-89110702D01*
X141061959Y-89059317D01*
X141061959Y-89059313D01*
X141062293Y-89052936D01*
X141033175Y-88860401D01*
X141030972Y-88854415D01*
X141030971Y-88854409D01*
X140968140Y-88683640D01*
X140968138Y-88683635D01*
X140965937Y-88677654D01*
X140891051Y-88556876D01*
X140866688Y-88517582D01*
X140866687Y-88517581D01*
X140863326Y-88512160D01*
X140855681Y-88504075D01*
X140733919Y-88375315D01*
X140729534Y-88370678D01*
X140682924Y-88338041D01*
X140575259Y-88262654D01*
X140570025Y-88258989D01*
X140505718Y-88231161D01*
X140397175Y-88184190D01*
X140397171Y-88184189D01*
X140391316Y-88181655D01*
X140385069Y-88180350D01*
X140385066Y-88180349D01*
X140205443Y-88142824D01*
X140205438Y-88142823D01*
X140200707Y-88141835D01*
X140194315Y-88141500D01*
X140051337Y-88141500D01*
X139982049Y-88148538D01*
X139912622Y-88155590D01*
X139912621Y-88155590D01*
X139906273Y-88156235D01*
X139896193Y-88159394D01*
X139726549Y-88212556D01*
X139726544Y-88212558D01*
X139720459Y-88214465D01*
X139664825Y-88245304D01*
X139555729Y-88305777D01*
X139555726Y-88305779D01*
X139550150Y-88308870D01*
X139545309Y-88313019D01*
X139545305Y-88313022D01*
X139423059Y-88417800D01*
X139402302Y-88435591D01*
X139398391Y-88440633D01*
X139398390Y-88440634D01*
X139381859Y-88461946D01*
X139282954Y-88589453D01*
X139280138Y-88595176D01*
X139280136Y-88595179D01*
X139212680Y-88732269D01*
X139196982Y-88764171D01*
X139195373Y-88770349D01*
X139195372Y-88770351D01*
X139166453Y-88881375D01*
X139147898Y-88952607D01*
X139143496Y-89036597D01*
X139139613Y-89110702D01*
X139137707Y-89147064D01*
X138057360Y-89147064D01*
X138059266Y-89110702D01*
X138061959Y-89059317D01*
X138061959Y-89059313D01*
X138062293Y-89052936D01*
X138033175Y-88860401D01*
X138030972Y-88854415D01*
X138030971Y-88854409D01*
X137968140Y-88683640D01*
X137968138Y-88683635D01*
X137965937Y-88677654D01*
X137891051Y-88556876D01*
X137866688Y-88517582D01*
X137866687Y-88517581D01*
X137863326Y-88512160D01*
X137855681Y-88504075D01*
X137733919Y-88375315D01*
X137729534Y-88370678D01*
X137682924Y-88338041D01*
X137575259Y-88262654D01*
X137570025Y-88258989D01*
X137505718Y-88231161D01*
X137397175Y-88184190D01*
X137397171Y-88184189D01*
X137391316Y-88181655D01*
X137385069Y-88180350D01*
X137385066Y-88180349D01*
X137205443Y-88142824D01*
X137205438Y-88142823D01*
X137200707Y-88141835D01*
X137194315Y-88141500D01*
X137051337Y-88141500D01*
X136982049Y-88148538D01*
X136912622Y-88155590D01*
X136912621Y-88155590D01*
X136906273Y-88156235D01*
X136896193Y-88159394D01*
X136726549Y-88212556D01*
X136726544Y-88212558D01*
X136720459Y-88214465D01*
X136664825Y-88245304D01*
X136555729Y-88305777D01*
X136555726Y-88305779D01*
X136550150Y-88308870D01*
X136545309Y-88313019D01*
X136545305Y-88313022D01*
X136423059Y-88417800D01*
X136402302Y-88435591D01*
X136398391Y-88440633D01*
X136398390Y-88440634D01*
X136381859Y-88461946D01*
X136282954Y-88589453D01*
X136280138Y-88595176D01*
X136280136Y-88595179D01*
X136212680Y-88732269D01*
X136196982Y-88764171D01*
X136195373Y-88770349D01*
X136195372Y-88770351D01*
X136166453Y-88881375D01*
X136147898Y-88952607D01*
X136143496Y-89036597D01*
X136139613Y-89110702D01*
X136137707Y-89147064D01*
X129706694Y-89147064D01*
X129706668Y-88749174D01*
X129708176Y-88729731D01*
X129710467Y-88715054D01*
X129710467Y-88715053D01*
X129711852Y-88706182D01*
X129710032Y-88692215D01*
X129709374Y-88665920D01*
X129710219Y-88655331D01*
X129714333Y-88603739D01*
X129720680Y-88524148D01*
X129723829Y-88504474D01*
X129763020Y-88342835D01*
X129769232Y-88323902D01*
X129833414Y-88170467D01*
X129842532Y-88152751D01*
X129930102Y-88011347D01*
X129941900Y-87995289D01*
X130050662Y-87869463D01*
X130064843Y-87855466D01*
X130192085Y-87748356D01*
X130208295Y-87736770D01*
X130350831Y-87651057D01*
X130368663Y-87642173D01*
X130522929Y-87580002D01*
X130541932Y-87574041D01*
X130611855Y-87558052D01*
X130704075Y-87536965D01*
X130723788Y-87534073D01*
X130723910Y-87534065D01*
X130858679Y-87525090D01*
X130875541Y-87525940D01*
X130875546Y-87525756D01*
X130884521Y-87525979D01*
X130893373Y-87527473D01*
X130902287Y-87526422D01*
X130902291Y-87526422D01*
X130929132Y-87523257D01*
X130943843Y-87522390D01*
X159246912Y-87512809D01*
X177251101Y-87506715D01*
X177270572Y-87508223D01*
G37*
%TD.AperFunction*%
%TD*%
M02*
